M48
; DRILL file {KiCad (7.0.0-0)} date Tuesday, 18 April 2023 at 09:29:17
; FORMAT={-:-/ absolute / metric / decimal}
; #@! TF.CreationDate,2023-04-18T09:29:17+01:00
; #@! TF.GenerationSoftware,Kicad,Pcbnew,(7.0.0-0)
; #@! TF.FileFunction,Plated,1,2,PTH
FMAT,2
METRIC
; #@! TA.AperFunction,Plated,PTH,ViaDrill
T1C0.400
; #@! TA.AperFunction,Plated,PTH,ComponentDrill
T2C0.800
; #@! TA.AperFunction,Plated,PTH,ComponentDrill
T3C1.000
%
G90
G05
T1
X129.25Y-117.28
X129.9Y-121.62
X130.36Y-106.11
X133.481Y-124.004
X134.37Y-132.03
X134.63Y-139.31
X136.21Y-113.29
X137.63Y-103.82
X139.575Y-130.669
X139.62Y-113.37
X140.435Y-132.591
X142.42Y-126.77
T2
X131.47Y-109.83
X131.47Y-112.37
X131.47Y-114.91
X131.47Y-117.45
X134.01Y-107.29
X134.01Y-109.83
X134.01Y-112.37
X134.01Y-114.91
X134.01Y-117.45
X134.01Y-119.99
X136.55Y-107.29
X136.55Y-109.83
X136.55Y-117.45
X136.55Y-119.99
X139.09Y-107.29
X139.09Y-109.83
X139.09Y-117.45
X139.09Y-119.99
X141.63Y-107.29
X141.63Y-109.83
X141.63Y-112.37
X141.63Y-114.91
X141.63Y-117.45
X141.63Y-119.99
X144.17Y-109.83
X144.17Y-112.37
X144.17Y-114.91
X144.17Y-117.45
T3
X128.91Y-80.23
X128.91Y-82.77
X128.91Y-143.73
X128.91Y-146.27
X131.45Y-80.23
X131.45Y-82.77
X131.45Y-143.73
X131.45Y-146.27
X133.99Y-80.23
X133.99Y-82.77
X133.99Y-143.73
X133.99Y-146.27
X136.53Y-80.23
X136.53Y-82.77
X136.53Y-143.73
X136.53Y-146.27
X139.07Y-80.23
X139.07Y-82.77
X139.07Y-143.73
X139.07Y-146.27
X141.61Y-80.23
X141.61Y-82.77
X141.61Y-143.73
X141.61Y-146.27
X144.15Y-80.23
X144.15Y-82.77
X144.15Y-143.73
X144.15Y-146.27
X146.69Y-80.23
X146.69Y-82.77
X146.69Y-143.73
X146.69Y-146.27
T0
M30
