G04 #@! TF.GenerationSoftware,KiCad,Pcbnew,(7.0.0-0)*
G04 #@! TF.CreationDate,2023-04-18T09:29:12+01:00*
G04 #@! TF.ProjectId,GAL26Adapter,47414c32-3641-4646-9170-7465722e6b69,rev?*
G04 #@! TF.SameCoordinates,Original*
G04 #@! TF.FileFunction,Legend,Top*
G04 #@! TF.FilePolarity,Positive*
%FSLAX46Y46*%
G04 Gerber Fmt 4.6, Leading zero omitted, Abs format (unit mm)*
G04 Created by KiCad (PCBNEW (7.0.0-0)) date 2023-04-18 09:29:12*
%MOMM*%
%LPD*%
G01*
G04 APERTURE LIST*
%ADD10C,0.120000*%
%ADD11C,0.200000*%
%ADD12C,0.150000*%
G04 APERTURE END LIST*
D10*
X148460000Y-78440000D02*
X148460000Y-84590000D01*
X127110000Y-78430000D02*
X148460000Y-78440000D01*
X148460000Y-141940000D02*
X148480000Y-148080000D01*
X127110000Y-148080000D02*
X127110000Y-141940000D01*
X127110000Y-141940000D02*
X148460000Y-141940000D01*
X148480000Y-148080000D02*
X127110000Y-148080000D01*
X148460000Y-84590000D02*
X127110000Y-84570000D01*
X127110000Y-84570000D02*
X127110000Y-78430000D01*
D11*
G36*
X141284097Y-136995518D02*
G01*
X141308767Y-137020188D01*
X141338571Y-137079796D01*
X141338571Y-137318298D01*
X141308767Y-137377906D01*
X141284097Y-137402575D01*
X141224489Y-137432380D01*
X141081225Y-137432380D01*
X141062381Y-137422958D01*
X141062381Y-136975136D01*
X141081225Y-136965714D01*
X141224489Y-136965714D01*
X141284097Y-136995518D01*
G37*
G36*
X138585543Y-137146666D02*
G01*
X138386837Y-137146666D01*
X138486189Y-136848607D01*
X138585543Y-137146666D01*
G37*
G36*
X142744988Y-136987868D02*
G01*
X142762439Y-137022769D01*
X142490953Y-137077067D01*
X142490953Y-137032177D01*
X142513107Y-136987868D01*
X142557416Y-136965714D01*
X142700680Y-136965714D01*
X142744988Y-136987868D01*
G37*
G36*
X140386190Y-137251495D02*
G01*
X140386190Y-137422958D01*
X140367346Y-137432380D01*
X140176463Y-137432380D01*
X140132154Y-137410225D01*
X140110000Y-137365917D01*
X140110000Y-137317891D01*
X140132154Y-137273582D01*
X140176463Y-137251428D01*
X140385567Y-137251428D01*
X140386190Y-137251495D01*
G37*
G36*
X139481428Y-136975136D02*
G01*
X139481428Y-137422958D01*
X139462584Y-137432380D01*
X139319320Y-137432380D01*
X139259712Y-137402576D01*
X139235042Y-137377906D01*
X139205238Y-137318298D01*
X139205238Y-137079796D01*
X139235042Y-137020187D01*
X139259712Y-136995518D01*
X139319320Y-136965714D01*
X139462584Y-136965714D01*
X139481428Y-136975136D01*
G37*
G36*
X137112668Y-137090756D02*
G01*
X137137338Y-137115426D01*
X137167142Y-137175034D01*
X137167142Y-137318298D01*
X137137338Y-137377906D01*
X137112668Y-137402575D01*
X137053060Y-137432380D01*
X136909796Y-137432380D01*
X136850188Y-137402576D01*
X136825518Y-137377906D01*
X136795714Y-137318298D01*
X136795714Y-137175034D01*
X136825518Y-137115425D01*
X136850188Y-137090756D01*
X136909796Y-137060952D01*
X137053060Y-137060952D01*
X137112668Y-137090756D01*
G37*
G36*
X137112668Y-136662185D02*
G01*
X137137338Y-136686855D01*
X137167142Y-136746463D01*
X137167142Y-136746870D01*
X137137338Y-136806478D01*
X137112668Y-136831147D01*
X137053060Y-136860952D01*
X136909796Y-136860952D01*
X136850188Y-136831148D01*
X136825518Y-136806478D01*
X136795714Y-136746870D01*
X136795714Y-136746463D01*
X136825518Y-136686854D01*
X136850187Y-136662185D01*
X136909798Y-136632380D01*
X137053058Y-136632380D01*
X137112668Y-136662185D01*
G37*
G36*
X132398382Y-136662185D02*
G01*
X132423052Y-136686855D01*
X132452856Y-136746463D01*
X132452856Y-136842108D01*
X132423052Y-136901716D01*
X132398382Y-136926385D01*
X132338774Y-136956190D01*
X132081428Y-136956190D01*
X132081428Y-136632380D01*
X132338772Y-136632380D01*
X132398382Y-136662185D01*
G37*
G36*
X140897369Y-135367868D02*
G01*
X140914820Y-135402769D01*
X140643334Y-135457067D01*
X140643334Y-135412177D01*
X140665488Y-135367868D01*
X140709797Y-135345714D01*
X140853061Y-135345714D01*
X140897369Y-135367868D01*
G37*
G36*
X138633809Y-135631495D02*
G01*
X138633809Y-135802958D01*
X138614965Y-135812380D01*
X138424082Y-135812380D01*
X138379773Y-135790225D01*
X138357619Y-135745917D01*
X138357619Y-135697891D01*
X138379773Y-135653582D01*
X138424082Y-135631428D01*
X138633186Y-135631428D01*
X138633809Y-135631495D01*
G37*
G36*
X137203600Y-135523593D02*
G01*
X137223052Y-135543045D01*
X137252856Y-135602653D01*
X137252856Y-135698298D01*
X137223052Y-135757906D01*
X137198382Y-135782575D01*
X137138774Y-135812380D01*
X136881428Y-135812380D01*
X136881428Y-135488571D01*
X137098533Y-135488571D01*
X137203600Y-135523593D01*
G37*
G36*
X137150763Y-135042185D02*
G01*
X137175433Y-135066855D01*
X137205237Y-135126463D01*
X137205237Y-135174489D01*
X137175433Y-135234097D01*
X137150763Y-135258766D01*
X137092869Y-135287713D01*
X137089031Y-135287575D01*
X137087351Y-135288571D01*
X136881428Y-135288571D01*
X136881428Y-135012380D01*
X137091153Y-135012380D01*
X137150763Y-135042185D01*
G37*
G36*
X144269525Y-138192857D02*
G01*
X131150476Y-138192857D01*
X131150476Y-137071022D01*
X131878267Y-137071022D01*
X131881428Y-137077944D01*
X131881428Y-137546759D01*
X131893751Y-137588727D01*
X131938133Y-137627184D01*
X131996260Y-137635541D01*
X132049679Y-137611146D01*
X132081428Y-137561743D01*
X132081428Y-137547212D01*
X132878267Y-137547212D01*
X132887493Y-137567415D01*
X132893751Y-137588727D01*
X132899501Y-137593709D01*
X132902662Y-137600631D01*
X132921347Y-137612639D01*
X132938133Y-137627184D01*
X132945664Y-137628266D01*
X132952065Y-137632380D01*
X132974274Y-137632380D01*
X132996260Y-137635541D01*
X133003182Y-137632380D01*
X133471997Y-137632380D01*
X133513965Y-137620057D01*
X133552422Y-137575675D01*
X133560779Y-137517548D01*
X133536384Y-137464129D01*
X133486981Y-137432380D01*
X133081428Y-137432380D01*
X133081428Y-137099576D01*
X133639197Y-137099576D01*
X133643333Y-137116120D01*
X133643333Y-137118188D01*
X133646812Y-137130038D01*
X133689617Y-137301258D01*
X133688378Y-137312743D01*
X133696599Y-137329186D01*
X133697425Y-137332488D01*
X133703010Y-137342008D01*
X133743520Y-137423028D01*
X133747098Y-137439471D01*
X133766577Y-137458950D01*
X133785349Y-137479131D01*
X133787242Y-137479615D01*
X133859287Y-137551660D01*
X133874330Y-137570344D01*
X133893717Y-137576806D01*
X133911655Y-137586601D01*
X133921079Y-137585927D01*
X134033147Y-137623282D01*
X134047303Y-137632380D01*
X134074858Y-137632380D01*
X134102395Y-137633376D01*
X134104075Y-137632380D01*
X134159364Y-137632380D01*
X134175671Y-137636534D01*
X134201810Y-137627820D01*
X134228251Y-137620057D01*
X134229530Y-137618580D01*
X134341271Y-137581333D01*
X134364709Y-137576234D01*
X134379159Y-137561783D01*
X134395942Y-137550120D01*
X134399553Y-137541389D01*
X134443258Y-137497685D01*
X134464220Y-137459296D01*
X134460030Y-137400720D01*
X134424838Y-137353709D01*
X134369815Y-137333186D01*
X134312432Y-137345669D01*
X134260743Y-137397357D01*
X134155677Y-137432380D01*
X134092893Y-137432380D01*
X133987828Y-137397358D01*
X133920756Y-137330287D01*
X133885304Y-137259383D01*
X133845352Y-137099576D01*
X134639197Y-137099576D01*
X134643333Y-137116120D01*
X134643333Y-137118188D01*
X134646812Y-137130038D01*
X134689617Y-137301258D01*
X134688378Y-137312743D01*
X134696599Y-137329186D01*
X134697425Y-137332488D01*
X134703010Y-137342008D01*
X134743520Y-137423028D01*
X134747098Y-137439471D01*
X134766577Y-137458950D01*
X134785349Y-137479131D01*
X134787242Y-137479615D01*
X134859287Y-137551660D01*
X134874330Y-137570344D01*
X134893717Y-137576806D01*
X134911655Y-137586601D01*
X134921079Y-137585927D01*
X135033147Y-137623282D01*
X135047303Y-137632380D01*
X135074858Y-137632380D01*
X135102395Y-137633376D01*
X135104075Y-137632380D01*
X135159364Y-137632380D01*
X135175671Y-137636534D01*
X135201810Y-137627820D01*
X135228251Y-137620057D01*
X135229530Y-137618580D01*
X135341271Y-137581333D01*
X135364709Y-137576234D01*
X135379159Y-137561783D01*
X135395942Y-137550120D01*
X135397145Y-137547212D01*
X135592553Y-137547212D01*
X135597255Y-137557509D01*
X135598063Y-137568802D01*
X135609216Y-137583701D01*
X135616948Y-137600631D01*
X135626471Y-137606751D01*
X135633256Y-137615814D01*
X135650694Y-137622318D01*
X135666351Y-137632380D01*
X135677670Y-137632380D01*
X135688279Y-137636337D01*
X135706467Y-137632380D01*
X136329140Y-137632380D01*
X136371108Y-137620057D01*
X136409565Y-137575675D01*
X136417922Y-137517548D01*
X136393527Y-137464129D01*
X136344124Y-137432380D01*
X135937135Y-137432380D01*
X136206898Y-137162616D01*
X136592094Y-137162616D01*
X136595714Y-137171344D01*
X136595714Y-137336519D01*
X136593140Y-137360362D01*
X136602278Y-137378638D01*
X136608037Y-137398251D01*
X136615178Y-137404439D01*
X136648282Y-137470647D01*
X136651860Y-137487090D01*
X136671339Y-137506569D01*
X136690111Y-137526750D01*
X136692004Y-137527234D01*
X136711375Y-137546605D01*
X136719968Y-137561072D01*
X136744604Y-137573390D01*
X136768798Y-137586601D01*
X136770746Y-137586461D01*
X136836651Y-137619414D01*
X136856827Y-137632380D01*
X136877262Y-137632380D01*
X136897378Y-137636000D01*
X136906106Y-137632380D01*
X137071281Y-137632380D01*
X137095124Y-137634954D01*
X137113400Y-137625815D01*
X137133013Y-137620057D01*
X137139201Y-137612915D01*
X137205409Y-137579811D01*
X137221852Y-137576234D01*
X137239975Y-137558110D01*
X138051861Y-137558110D01*
X138081804Y-137608628D01*
X138134306Y-137634937D01*
X138192698Y-137628687D01*
X138238440Y-137591859D01*
X138320171Y-137346666D01*
X138652210Y-137346666D01*
X138729202Y-137577643D01*
X138754164Y-137613561D01*
X138808429Y-137636010D01*
X138866216Y-137625556D01*
X138909179Y-137585521D01*
X138923677Y-137528613D01*
X138826633Y-137237483D01*
X138827446Y-137231834D01*
X138817465Y-137209980D01*
X138769931Y-137067378D01*
X139001618Y-137067378D01*
X139005238Y-137076106D01*
X139005238Y-137336519D01*
X139002664Y-137360362D01*
X139011802Y-137378638D01*
X139017561Y-137398251D01*
X139024702Y-137404439D01*
X139057806Y-137470647D01*
X139061384Y-137487090D01*
X139080863Y-137506569D01*
X139099635Y-137526750D01*
X139101528Y-137527234D01*
X139120899Y-137546605D01*
X139129492Y-137561072D01*
X139154128Y-137573390D01*
X139178322Y-137586601D01*
X139180270Y-137586461D01*
X139246175Y-137619414D01*
X139266351Y-137632380D01*
X139286786Y-137632380D01*
X139306902Y-137636000D01*
X139315630Y-137632380D01*
X139480805Y-137632380D01*
X139504648Y-137634954D01*
X139522924Y-137625815D01*
X139533104Y-137622826D01*
X139538133Y-137627184D01*
X139596260Y-137635541D01*
X139649679Y-137611146D01*
X139681428Y-137561743D01*
X139681428Y-137497344D01*
X139685585Y-137481088D01*
X139681428Y-137468579D01*
X139681428Y-137305473D01*
X139906380Y-137305473D01*
X139910000Y-137314201D01*
X139910000Y-137384138D01*
X139907426Y-137407981D01*
X139916564Y-137426257D01*
X139922323Y-137445870D01*
X139929464Y-137452058D01*
X139956783Y-137506695D01*
X139956646Y-137510581D01*
X139969796Y-137532721D01*
X139974607Y-137542343D01*
X139977107Y-137545031D01*
X139986635Y-137561072D01*
X139996717Y-137566113D01*
X140004397Y-137574369D01*
X140022473Y-137578991D01*
X140103318Y-137619414D01*
X140123494Y-137632380D01*
X140143929Y-137632380D01*
X140164045Y-137636000D01*
X140172773Y-137632380D01*
X140385567Y-137632380D01*
X140409410Y-137634954D01*
X140427686Y-137625815D01*
X140437866Y-137622826D01*
X140442895Y-137627184D01*
X140501022Y-137635541D01*
X140554441Y-137611146D01*
X140586190Y-137561743D01*
X140586190Y-137497344D01*
X140590347Y-137481088D01*
X140586190Y-137468579D01*
X140586190Y-137116392D01*
X140590347Y-137100136D01*
X140586190Y-137087627D01*
X140586190Y-137013955D01*
X140588764Y-136990112D01*
X140579625Y-136971834D01*
X140573867Y-136952224D01*
X140566725Y-136946036D01*
X140552210Y-136917006D01*
X140858224Y-136917006D01*
X140862381Y-136929515D01*
X140862381Y-137482994D01*
X140861408Y-137510581D01*
X140862381Y-137512219D01*
X140862381Y-137880093D01*
X140874704Y-137922061D01*
X140919086Y-137960518D01*
X140977213Y-137968875D01*
X141030632Y-137944480D01*
X141062381Y-137895077D01*
X141062381Y-137634844D01*
X141068807Y-137636000D01*
X141077535Y-137632380D01*
X141242710Y-137632380D01*
X141266553Y-137634954D01*
X141284829Y-137625815D01*
X141304442Y-137620057D01*
X141310630Y-137612915D01*
X141376838Y-137579811D01*
X141393281Y-137576234D01*
X141412760Y-137556754D01*
X141432941Y-137537983D01*
X141433425Y-137536089D01*
X141452796Y-137516718D01*
X141467263Y-137508126D01*
X141479581Y-137483489D01*
X141492792Y-137459296D01*
X141492652Y-137457347D01*
X141525605Y-137391442D01*
X141538571Y-137371267D01*
X141538571Y-137350832D01*
X141542191Y-137330716D01*
X141538571Y-137321988D01*
X141538571Y-137061574D01*
X141541145Y-137037731D01*
X141532006Y-137019453D01*
X141526248Y-136999843D01*
X141519106Y-136993655D01*
X141486001Y-136927444D01*
X141482425Y-136911004D01*
X141462950Y-136891529D01*
X141452734Y-136880546D01*
X141621125Y-136880546D01*
X141645520Y-136933965D01*
X141694923Y-136965714D01*
X141767143Y-136965714D01*
X141767143Y-137384138D01*
X141764569Y-137407981D01*
X141773707Y-137426257D01*
X141779466Y-137445870D01*
X141786607Y-137452058D01*
X141813926Y-137506695D01*
X141813789Y-137510581D01*
X141826939Y-137532721D01*
X141831750Y-137542343D01*
X141834250Y-137545031D01*
X141843778Y-137561072D01*
X141853860Y-137566113D01*
X141861540Y-137574369D01*
X141879616Y-137578991D01*
X141960461Y-137619414D01*
X141980637Y-137632380D01*
X142001072Y-137632380D01*
X142021188Y-137636000D01*
X142029916Y-137632380D01*
X142119617Y-137632380D01*
X142161585Y-137620057D01*
X142200042Y-137575675D01*
X142208399Y-137517548D01*
X142184004Y-137464129D01*
X142134601Y-137432380D01*
X142033606Y-137432380D01*
X141989297Y-137410225D01*
X141967143Y-137365917D01*
X141967143Y-137019759D01*
X142287333Y-137019759D01*
X142290953Y-137028487D01*
X142290953Y-137172625D01*
X142289499Y-137175185D01*
X142290953Y-137201787D01*
X142290953Y-137384138D01*
X142288379Y-137407981D01*
X142297517Y-137426257D01*
X142303276Y-137445870D01*
X142310417Y-137452058D01*
X142337736Y-137506695D01*
X142337599Y-137510581D01*
X142350749Y-137532721D01*
X142355560Y-137542343D01*
X142358060Y-137545031D01*
X142367588Y-137561072D01*
X142377670Y-137566113D01*
X142385350Y-137574369D01*
X142403426Y-137578991D01*
X142484271Y-137619414D01*
X142504447Y-137632380D01*
X142524882Y-137632380D01*
X142544998Y-137636000D01*
X142553726Y-137632380D01*
X142718901Y-137632380D01*
X142742744Y-137634954D01*
X142761020Y-137625815D01*
X142780633Y-137620057D01*
X142786821Y-137612915D01*
X142877106Y-137567773D01*
X142909132Y-137537983D01*
X142923681Y-137481088D01*
X142905161Y-137425360D01*
X142859451Y-137388490D01*
X142801065Y-137382187D01*
X142700680Y-137432380D01*
X142557416Y-137432380D01*
X142513107Y-137410225D01*
X142490953Y-137365917D01*
X142490953Y-137281028D01*
X142869911Y-137205235D01*
X142881975Y-137206970D01*
X142898132Y-137199591D01*
X142900854Y-137199047D01*
X142911164Y-137193639D01*
X142935394Y-137182575D01*
X142936985Y-137180099D01*
X142939590Y-137178733D01*
X142952740Y-137155583D01*
X142967143Y-137133172D01*
X142967143Y-137130229D01*
X142968596Y-137127671D01*
X142967143Y-137101088D01*
X142967143Y-137067378D01*
X143192095Y-137067378D01*
X143195715Y-137076106D01*
X143195715Y-137546759D01*
X143208038Y-137588727D01*
X143252420Y-137627184D01*
X143310547Y-137635541D01*
X143363966Y-137611146D01*
X143395715Y-137561743D01*
X143395715Y-137079796D01*
X143425519Y-137020187D01*
X143450189Y-136995518D01*
X143509797Y-136965714D01*
X143595808Y-136965714D01*
X143637776Y-136953391D01*
X143676233Y-136909009D01*
X143684590Y-136850882D01*
X143660195Y-136797463D01*
X143610792Y-136765714D01*
X143491575Y-136765714D01*
X143467732Y-136763140D01*
X143449454Y-136772278D01*
X143429844Y-136778037D01*
X143423656Y-136785178D01*
X143380423Y-136806794D01*
X143339010Y-136770910D01*
X143280883Y-136762553D01*
X143227464Y-136786948D01*
X143195715Y-136836351D01*
X143195715Y-137047263D01*
X143192095Y-137067378D01*
X142967143Y-137067378D01*
X142967143Y-137013955D01*
X142969717Y-136990112D01*
X142960578Y-136971834D01*
X142954820Y-136952224D01*
X142947678Y-136946036D01*
X142920359Y-136891398D01*
X142920497Y-136887513D01*
X142907347Y-136865373D01*
X142902536Y-136855751D01*
X142900035Y-136853062D01*
X142890508Y-136837022D01*
X142880426Y-136831981D01*
X142872746Y-136823724D01*
X142854665Y-136819100D01*
X142773827Y-136778681D01*
X142753649Y-136765714D01*
X142733213Y-136765714D01*
X142713098Y-136762094D01*
X142704370Y-136765714D01*
X142539194Y-136765714D01*
X142515351Y-136763140D01*
X142497073Y-136772278D01*
X142477463Y-136778037D01*
X142471275Y-136785178D01*
X142416637Y-136812497D01*
X142412752Y-136812360D01*
X142390612Y-136825509D01*
X142380990Y-136830321D01*
X142378301Y-136832821D01*
X142362261Y-136842349D01*
X142357220Y-136852430D01*
X142348963Y-136860111D01*
X142344339Y-136878191D01*
X142303920Y-136959029D01*
X142290953Y-136979208D01*
X142290953Y-136999644D01*
X142287333Y-137019759D01*
X141967143Y-137019759D01*
X141967143Y-136965714D01*
X142119617Y-136965714D01*
X142161585Y-136953391D01*
X142200042Y-136909009D01*
X142208399Y-136850882D01*
X142184004Y-136797463D01*
X142134601Y-136765714D01*
X141967143Y-136765714D01*
X141967143Y-136518001D01*
X141954820Y-136476033D01*
X141910438Y-136437576D01*
X141852311Y-136429219D01*
X141798892Y-136453614D01*
X141767143Y-136503017D01*
X141767143Y-136765714D01*
X141709907Y-136765714D01*
X141667939Y-136778037D01*
X141629482Y-136822419D01*
X141621125Y-136880546D01*
X141452734Y-136880546D01*
X141444174Y-136871343D01*
X141442279Y-136870858D01*
X141422909Y-136851488D01*
X141414317Y-136837022D01*
X141389682Y-136824704D01*
X141365487Y-136811493D01*
X141363537Y-136811632D01*
X141297636Y-136778681D01*
X141277458Y-136765714D01*
X141257022Y-136765714D01*
X141236907Y-136762094D01*
X141228179Y-136765714D01*
X141063003Y-136765714D01*
X141039160Y-136763140D01*
X141020882Y-136772278D01*
X141010704Y-136775267D01*
X141005676Y-136770910D01*
X140947549Y-136762553D01*
X140894130Y-136786948D01*
X140862381Y-136836351D01*
X140862381Y-136900749D01*
X140858224Y-136917006D01*
X140552210Y-136917006D01*
X140539406Y-136891398D01*
X140539544Y-136887513D01*
X140526394Y-136865373D01*
X140521583Y-136855751D01*
X140519082Y-136853062D01*
X140509555Y-136837022D01*
X140499473Y-136831981D01*
X140491793Y-136823724D01*
X140473712Y-136819100D01*
X140392874Y-136778681D01*
X140372696Y-136765714D01*
X140352260Y-136765714D01*
X140332145Y-136762094D01*
X140323417Y-136765714D01*
X140158241Y-136765714D01*
X140134398Y-136763140D01*
X140116120Y-136772278D01*
X140096510Y-136778037D01*
X140090322Y-136785178D01*
X140000037Y-136830321D01*
X139968010Y-136860111D01*
X139953462Y-136917006D01*
X139971982Y-136972734D01*
X140017691Y-137009604D01*
X140076077Y-137015907D01*
X140176463Y-136965714D01*
X140319727Y-136965714D01*
X140364035Y-136987868D01*
X140386190Y-137032177D01*
X140386190Y-137042006D01*
X140367346Y-137051428D01*
X140158241Y-137051428D01*
X140134398Y-137048854D01*
X140116120Y-137057992D01*
X140096510Y-137063751D01*
X140090322Y-137070892D01*
X140035684Y-137098211D01*
X140031799Y-137098074D01*
X140009659Y-137111223D01*
X140000037Y-137116035D01*
X139997348Y-137118535D01*
X139981308Y-137128063D01*
X139976267Y-137138144D01*
X139968010Y-137145825D01*
X139963386Y-137163905D01*
X139922967Y-137244743D01*
X139910000Y-137264922D01*
X139910000Y-137285358D01*
X139906380Y-137305473D01*
X139681428Y-137305473D01*
X139681428Y-136915100D01*
X139682401Y-136887513D01*
X139681428Y-136885875D01*
X139681428Y-136518001D01*
X139669105Y-136476033D01*
X139624723Y-136437576D01*
X139566596Y-136429219D01*
X139513177Y-136453614D01*
X139481428Y-136503017D01*
X139481428Y-136763250D01*
X139475002Y-136762094D01*
X139466274Y-136765714D01*
X139301098Y-136765714D01*
X139277255Y-136763140D01*
X139258977Y-136772278D01*
X139239367Y-136778037D01*
X139233179Y-136785178D01*
X139166968Y-136818283D01*
X139150528Y-136821860D01*
X139131053Y-136841334D01*
X139110867Y-136860111D01*
X139110382Y-136862005D01*
X139091012Y-136881375D01*
X139076546Y-136889968D01*
X139064228Y-136914602D01*
X139051017Y-136938798D01*
X139051156Y-136940747D01*
X139018205Y-137006648D01*
X139005238Y-137026827D01*
X139005238Y-137047263D01*
X139001618Y-137067378D01*
X138769931Y-137067378D01*
X138586778Y-136517918D01*
X138587186Y-136506651D01*
X138577672Y-136490600D01*
X138576511Y-136487116D01*
X138570369Y-136478279D01*
X138557243Y-136456133D01*
X138553767Y-136454391D01*
X138551549Y-136451199D01*
X138527752Y-136441354D01*
X138504741Y-136429823D01*
X138500877Y-136430236D01*
X138497284Y-136428750D01*
X138471940Y-136433334D01*
X138446349Y-136436074D01*
X138443321Y-136438511D01*
X138439497Y-136439203D01*
X138420659Y-136456756D01*
X138400607Y-136472901D01*
X138399378Y-136476587D01*
X138396533Y-136479239D01*
X138390175Y-136504196D01*
X138159509Y-137196194D01*
X138153291Y-137203371D01*
X138150388Y-137223556D01*
X138053442Y-137514398D01*
X138051861Y-137558110D01*
X137239975Y-137558110D01*
X137241331Y-137556754D01*
X137261512Y-137537983D01*
X137261996Y-137536089D01*
X137281367Y-137516718D01*
X137295834Y-137508126D01*
X137308152Y-137483489D01*
X137321363Y-137459296D01*
X137321223Y-137457347D01*
X137354176Y-137391442D01*
X137367142Y-137371267D01*
X137367142Y-137350832D01*
X137370762Y-137330716D01*
X137367142Y-137321988D01*
X137367142Y-137156812D01*
X137369716Y-137132969D01*
X137360577Y-137114691D01*
X137354819Y-137095081D01*
X137347677Y-137088893D01*
X137314572Y-137022682D01*
X137310996Y-137006242D01*
X137291521Y-136986767D01*
X137272745Y-136966581D01*
X137270850Y-136966096D01*
X137265706Y-136960952D01*
X137281367Y-136945290D01*
X137295834Y-136936698D01*
X137308152Y-136912061D01*
X137321363Y-136887868D01*
X137321223Y-136885919D01*
X137354176Y-136820014D01*
X137367142Y-136799839D01*
X137367142Y-136779404D01*
X137370762Y-136759288D01*
X137367142Y-136750560D01*
X137367142Y-136728241D01*
X137369716Y-136704398D01*
X137360577Y-136686120D01*
X137354819Y-136666510D01*
X137347677Y-136660322D01*
X137314572Y-136594111D01*
X137310996Y-136577671D01*
X137291521Y-136558196D01*
X137272745Y-136538010D01*
X137270850Y-136537525D01*
X137251481Y-136518156D01*
X137242889Y-136503690D01*
X137218256Y-136491373D01*
X137194058Y-136478160D01*
X137192109Y-136478299D01*
X137126205Y-136445346D01*
X137106029Y-136432380D01*
X137085594Y-136432380D01*
X137065479Y-136428760D01*
X137056751Y-136432380D01*
X136891574Y-136432380D01*
X136867731Y-136429806D01*
X136849453Y-136438944D01*
X136829843Y-136444703D01*
X136823655Y-136451844D01*
X136757442Y-136484950D01*
X136741004Y-136488527D01*
X136721532Y-136507998D01*
X136701343Y-136526779D01*
X136700858Y-136528672D01*
X136681488Y-136548042D01*
X136667022Y-136556635D01*
X136654704Y-136581269D01*
X136641493Y-136605465D01*
X136641632Y-136607414D01*
X136608681Y-136673315D01*
X136595714Y-136693494D01*
X136595714Y-136713930D01*
X136592094Y-136734045D01*
X136595714Y-136742773D01*
X136595714Y-136765091D01*
X136593140Y-136788934D01*
X136602278Y-136807210D01*
X136608037Y-136826823D01*
X136615178Y-136833011D01*
X136648282Y-136899219D01*
X136651860Y-136915662D01*
X136671339Y-136935141D01*
X136690111Y-136955322D01*
X136692004Y-136955806D01*
X136697150Y-136960952D01*
X136681488Y-136976613D01*
X136667022Y-136985206D01*
X136654704Y-137009840D01*
X136641493Y-137034036D01*
X136641632Y-137035985D01*
X136608681Y-137101886D01*
X136595714Y-137122065D01*
X136595714Y-137142501D01*
X136592094Y-137162616D01*
X136206898Y-137162616D01*
X136334041Y-137035473D01*
X136352725Y-137020431D01*
X136359187Y-137001043D01*
X136368982Y-136983106D01*
X136368308Y-136973681D01*
X136405663Y-136861613D01*
X136414761Y-136847458D01*
X136414761Y-136819903D01*
X136415757Y-136792366D01*
X136414761Y-136790686D01*
X136414761Y-136728241D01*
X136417335Y-136704398D01*
X136408196Y-136686120D01*
X136402438Y-136666510D01*
X136395296Y-136660322D01*
X136362191Y-136594111D01*
X136358615Y-136577671D01*
X136339140Y-136558196D01*
X136320364Y-136538010D01*
X136318469Y-136537525D01*
X136299100Y-136518156D01*
X136290508Y-136503690D01*
X136265875Y-136491373D01*
X136241677Y-136478160D01*
X136239728Y-136478299D01*
X136173824Y-136445346D01*
X136153648Y-136432380D01*
X136133213Y-136432380D01*
X136113098Y-136428760D01*
X136104370Y-136432380D01*
X135891574Y-136432380D01*
X135867731Y-136429806D01*
X135849453Y-136438944D01*
X135829843Y-136444703D01*
X135823655Y-136451844D01*
X135757442Y-136484950D01*
X135741004Y-136488527D01*
X135721532Y-136507998D01*
X135701343Y-136526779D01*
X135700858Y-136528672D01*
X135662455Y-136567076D01*
X135641493Y-136605465D01*
X135645682Y-136664041D01*
X135680875Y-136711053D01*
X135735898Y-136731576D01*
X135793281Y-136719092D01*
X135850187Y-136662185D01*
X135909798Y-136632380D01*
X136100677Y-136632380D01*
X136160287Y-136662185D01*
X136184957Y-136686855D01*
X136214761Y-136746463D01*
X136214761Y-136801868D01*
X136179739Y-136906934D01*
X135643052Y-137443620D01*
X135639367Y-137444703D01*
X135622471Y-137464201D01*
X135614836Y-137471837D01*
X135613099Y-137475018D01*
X135600910Y-137489085D01*
X135599298Y-137500291D01*
X135593874Y-137510226D01*
X135595201Y-137528789D01*
X135592553Y-137547212D01*
X135397145Y-137547212D01*
X135399553Y-137541389D01*
X135443258Y-137497685D01*
X135464220Y-137459296D01*
X135460030Y-137400720D01*
X135424838Y-137353709D01*
X135369815Y-137333186D01*
X135312432Y-137345669D01*
X135260743Y-137397357D01*
X135155677Y-137432380D01*
X135092893Y-137432380D01*
X134987828Y-137397358D01*
X134920756Y-137330287D01*
X134885304Y-137259383D01*
X134843333Y-137091498D01*
X134843333Y-136973264D01*
X134885304Y-136805376D01*
X134920756Y-136734473D01*
X134987826Y-136667403D01*
X135092895Y-136632380D01*
X135155675Y-136632380D01*
X135260742Y-136667402D01*
X135301837Y-136708497D01*
X135340226Y-136729459D01*
X135398802Y-136725269D01*
X135445813Y-136690077D01*
X135466336Y-136635054D01*
X135453853Y-136577671D01*
X135389284Y-136513102D01*
X135374241Y-136494417D01*
X135354850Y-136487953D01*
X135336915Y-136478160D01*
X135327491Y-136478833D01*
X135215422Y-136441477D01*
X135201267Y-136432380D01*
X135173712Y-136432380D01*
X135146175Y-136431384D01*
X135144495Y-136432380D01*
X135089206Y-136432380D01*
X135072899Y-136428226D01*
X135046761Y-136436938D01*
X135020319Y-136444703D01*
X135019039Y-136446179D01*
X134907300Y-136483427D01*
X134883861Y-136488526D01*
X134869409Y-136502977D01*
X134852627Y-136514641D01*
X134849015Y-136523371D01*
X134776725Y-136595662D01*
X134762260Y-136604254D01*
X134749942Y-136628888D01*
X134736731Y-136653084D01*
X134736870Y-136655033D01*
X134709476Y-136709821D01*
X134701059Y-136717736D01*
X134696599Y-136735576D01*
X134695079Y-136738616D01*
X134693126Y-136749467D01*
X134650309Y-136920732D01*
X134643333Y-136931589D01*
X134643333Y-136948640D01*
X134642831Y-136950648D01*
X134643333Y-136962994D01*
X134643333Y-137087350D01*
X134639197Y-137099576D01*
X133845352Y-137099576D01*
X133843333Y-137091498D01*
X133843333Y-136973264D01*
X133885304Y-136805376D01*
X133920756Y-136734473D01*
X133987826Y-136667403D01*
X134092895Y-136632380D01*
X134155675Y-136632380D01*
X134260742Y-136667402D01*
X134301837Y-136708497D01*
X134340226Y-136729459D01*
X134398802Y-136725269D01*
X134445813Y-136690077D01*
X134466336Y-136635054D01*
X134453853Y-136577671D01*
X134389284Y-136513102D01*
X134374241Y-136494417D01*
X134354850Y-136487953D01*
X134336915Y-136478160D01*
X134327491Y-136478833D01*
X134215422Y-136441477D01*
X134201267Y-136432380D01*
X134173712Y-136432380D01*
X134146175Y-136431384D01*
X134144495Y-136432380D01*
X134089206Y-136432380D01*
X134072899Y-136428226D01*
X134046761Y-136436938D01*
X134020319Y-136444703D01*
X134019039Y-136446179D01*
X133907300Y-136483427D01*
X133883861Y-136488526D01*
X133869409Y-136502977D01*
X133852627Y-136514641D01*
X133849015Y-136523371D01*
X133776725Y-136595662D01*
X133762260Y-136604254D01*
X133749942Y-136628888D01*
X133736731Y-136653084D01*
X133736870Y-136655033D01*
X133709476Y-136709821D01*
X133701059Y-136717736D01*
X133696599Y-136735576D01*
X133695079Y-136738616D01*
X133693126Y-136749467D01*
X133650309Y-136920732D01*
X133643333Y-136931589D01*
X133643333Y-136948640D01*
X133642831Y-136950648D01*
X133643333Y-136962994D01*
X133643333Y-137087350D01*
X133639197Y-137099576D01*
X133081428Y-137099576D01*
X133081428Y-136518001D01*
X133069105Y-136476033D01*
X133024723Y-136437576D01*
X132966596Y-136429219D01*
X132913177Y-136453614D01*
X132881428Y-136503017D01*
X132881428Y-137525226D01*
X132878267Y-137547212D01*
X132081428Y-137547212D01*
X132081428Y-137156190D01*
X132356995Y-137156190D01*
X132380838Y-137158764D01*
X132399114Y-137149625D01*
X132418727Y-137143867D01*
X132424915Y-137136725D01*
X132491123Y-137103621D01*
X132507566Y-137100044D01*
X132527045Y-137080564D01*
X132547226Y-137061793D01*
X132547710Y-137059899D01*
X132567081Y-137040528D01*
X132581548Y-137031936D01*
X132593866Y-137007299D01*
X132607077Y-136983106D01*
X132606937Y-136981157D01*
X132639890Y-136915252D01*
X132652856Y-136895077D01*
X132652856Y-136874642D01*
X132656476Y-136854526D01*
X132652856Y-136845798D01*
X132652856Y-136728241D01*
X132655430Y-136704398D01*
X132646291Y-136686120D01*
X132640533Y-136666510D01*
X132633391Y-136660322D01*
X132600286Y-136594111D01*
X132596710Y-136577671D01*
X132577235Y-136558196D01*
X132558459Y-136538010D01*
X132556564Y-136537525D01*
X132537195Y-136518156D01*
X132528603Y-136503690D01*
X132503970Y-136491373D01*
X132479772Y-136478160D01*
X132477823Y-136478299D01*
X132411919Y-136445346D01*
X132391743Y-136432380D01*
X132371308Y-136432380D01*
X132351193Y-136428760D01*
X132342465Y-136432380D01*
X131988582Y-136432380D01*
X131966596Y-136429219D01*
X131946392Y-136438445D01*
X131925081Y-136444703D01*
X131920098Y-136450453D01*
X131913177Y-136453614D01*
X131901168Y-136472299D01*
X131886624Y-136489085D01*
X131885541Y-136496616D01*
X131881428Y-136503017D01*
X131881428Y-136525226D01*
X131878267Y-136547212D01*
X131881428Y-136554134D01*
X131881428Y-137049036D01*
X131878267Y-137071022D01*
X131150476Y-137071022D01*
X131150476Y-135479576D01*
X133677292Y-135479576D01*
X133681428Y-135496120D01*
X133681428Y-135498188D01*
X133684907Y-135510038D01*
X133727712Y-135681258D01*
X133726473Y-135692743D01*
X133734694Y-135709186D01*
X133735520Y-135712488D01*
X133741105Y-135722008D01*
X133781615Y-135803028D01*
X133785193Y-135819471D01*
X133804672Y-135838950D01*
X133823444Y-135859131D01*
X133825337Y-135859615D01*
X133897382Y-135931660D01*
X133912425Y-135950344D01*
X133931812Y-135956806D01*
X133949750Y-135966601D01*
X133959174Y-135965927D01*
X134071242Y-136003282D01*
X134085398Y-136012380D01*
X134112953Y-136012380D01*
X134140490Y-136013376D01*
X134142170Y-136012380D01*
X134197459Y-136012380D01*
X134213766Y-136016534D01*
X134239905Y-136007820D01*
X134266346Y-136000057D01*
X134267625Y-135998580D01*
X134379366Y-135961333D01*
X134402804Y-135956234D01*
X134417254Y-135941783D01*
X134434037Y-135930120D01*
X134437648Y-135921389D01*
X134481353Y-135877685D01*
X134502315Y-135839296D01*
X134498125Y-135780720D01*
X134462933Y-135733709D01*
X134407910Y-135713186D01*
X134350527Y-135725669D01*
X134298838Y-135777357D01*
X134193772Y-135812380D01*
X134130988Y-135812380D01*
X134025923Y-135777358D01*
X133958851Y-135710287D01*
X133923399Y-135639383D01*
X133881428Y-135471498D01*
X133881428Y-135353264D01*
X133923399Y-135185376D01*
X133958851Y-135114473D01*
X133959279Y-135114045D01*
X134677808Y-135114045D01*
X134681428Y-135122773D01*
X134681428Y-135192710D01*
X134678854Y-135216553D01*
X134687992Y-135234829D01*
X134693751Y-135254442D01*
X134700892Y-135260630D01*
X134733996Y-135326838D01*
X134737574Y-135343281D01*
X134757053Y-135362760D01*
X134775825Y-135382941D01*
X134777718Y-135383425D01*
X134797089Y-135402796D01*
X134805682Y-135417263D01*
X134830318Y-135429581D01*
X134854512Y-135442792D01*
X134856460Y-135442652D01*
X134911250Y-135470047D01*
X134919164Y-135478464D01*
X134937002Y-135482923D01*
X134940043Y-135484444D01*
X134950897Y-135486397D01*
X135127479Y-135530542D01*
X135198382Y-135565994D01*
X135223052Y-135590664D01*
X135252856Y-135650272D01*
X135252856Y-135698298D01*
X135223052Y-135757906D01*
X135198382Y-135782575D01*
X135138774Y-135812380D01*
X134940512Y-135812380D01*
X134799410Y-135765346D01*
X134755698Y-135763765D01*
X134705180Y-135793708D01*
X134678871Y-135846209D01*
X134685121Y-135904602D01*
X134721949Y-135950344D01*
X134880766Y-136003282D01*
X134894922Y-136012380D01*
X134922477Y-136012380D01*
X134950014Y-136013376D01*
X134951694Y-136012380D01*
X135156995Y-136012380D01*
X135180838Y-136014954D01*
X135199114Y-136005815D01*
X135218727Y-136000057D01*
X135224915Y-135992915D01*
X135291123Y-135959811D01*
X135307566Y-135956234D01*
X135327045Y-135936754D01*
X135347226Y-135917983D01*
X135347710Y-135916089D01*
X135367081Y-135896718D01*
X135381548Y-135888126D01*
X135393866Y-135863489D01*
X135407077Y-135839296D01*
X135406937Y-135837347D01*
X135439890Y-135771442D01*
X135452856Y-135751267D01*
X135452856Y-135730832D01*
X135456476Y-135710716D01*
X135452856Y-135701988D01*
X135452856Y-135632050D01*
X135455430Y-135608207D01*
X135446291Y-135589929D01*
X135440533Y-135570319D01*
X135433391Y-135564131D01*
X135400286Y-135497920D01*
X135396710Y-135481480D01*
X135394806Y-135479576D01*
X135629673Y-135479576D01*
X135633809Y-135496120D01*
X135633809Y-135498188D01*
X135637288Y-135510038D01*
X135680093Y-135681258D01*
X135678854Y-135692743D01*
X135687075Y-135709186D01*
X135687901Y-135712488D01*
X135693486Y-135722008D01*
X135733996Y-135803028D01*
X135737574Y-135819471D01*
X135757053Y-135838950D01*
X135775825Y-135859131D01*
X135777718Y-135859615D01*
X135849763Y-135931660D01*
X135864806Y-135950344D01*
X135884193Y-135956806D01*
X135902131Y-135966601D01*
X135911555Y-135965927D01*
X136023623Y-136003282D01*
X136037779Y-136012380D01*
X136065334Y-136012380D01*
X136092871Y-136013376D01*
X136094551Y-136012380D01*
X136149840Y-136012380D01*
X136166147Y-136016534D01*
X136192286Y-136007820D01*
X136218727Y-136000057D01*
X136220006Y-135998580D01*
X136331747Y-135961333D01*
X136355185Y-135956234D01*
X136369635Y-135941783D01*
X136386418Y-135930120D01*
X136387621Y-135927212D01*
X136678267Y-135927212D01*
X136687493Y-135947415D01*
X136693751Y-135968727D01*
X136699501Y-135973709D01*
X136702662Y-135980631D01*
X136721347Y-135992639D01*
X136738133Y-136007184D01*
X136745664Y-136008266D01*
X136752065Y-136012380D01*
X136774274Y-136012380D01*
X136796260Y-136015541D01*
X136803182Y-136012380D01*
X137156995Y-136012380D01*
X137180838Y-136014954D01*
X137199114Y-136005815D01*
X137218727Y-136000057D01*
X137224915Y-135992915D01*
X137291123Y-135959811D01*
X137307566Y-135956234D01*
X137327045Y-135936754D01*
X137347226Y-135917983D01*
X137347710Y-135916089D01*
X137367081Y-135896718D01*
X137381548Y-135888126D01*
X137393866Y-135863489D01*
X137407077Y-135839296D01*
X137406937Y-135837347D01*
X137431620Y-135787981D01*
X137678854Y-135787981D01*
X137687992Y-135806257D01*
X137693751Y-135825870D01*
X137700892Y-135832058D01*
X137728211Y-135886695D01*
X137728074Y-135890581D01*
X137741224Y-135912721D01*
X137746035Y-135922343D01*
X137748535Y-135925031D01*
X137758063Y-135941072D01*
X137768145Y-135946113D01*
X137775825Y-135954369D01*
X137793901Y-135958991D01*
X137892424Y-136008253D01*
X137935473Y-136016000D01*
X137989718Y-135993502D01*
X138023188Y-135945249D01*
X138025258Y-135886560D01*
X137995269Y-135836069D01*
X137903582Y-135790225D01*
X137881428Y-135745917D01*
X137881428Y-135685473D01*
X138153999Y-135685473D01*
X138157619Y-135694201D01*
X138157619Y-135764138D01*
X138155045Y-135787981D01*
X138164183Y-135806257D01*
X138169942Y-135825870D01*
X138177083Y-135832058D01*
X138204402Y-135886695D01*
X138204265Y-135890581D01*
X138217415Y-135912721D01*
X138222226Y-135922343D01*
X138224726Y-135925031D01*
X138234254Y-135941072D01*
X138244336Y-135946113D01*
X138252016Y-135954369D01*
X138270092Y-135958991D01*
X138350937Y-135999414D01*
X138371113Y-136012380D01*
X138391548Y-136012380D01*
X138411664Y-136016000D01*
X138420392Y-136012380D01*
X138633186Y-136012380D01*
X138657029Y-136014954D01*
X138675305Y-136005815D01*
X138685485Y-136002826D01*
X138690514Y-136007184D01*
X138748641Y-136015541D01*
X138802060Y-135991146D01*
X138833809Y-135941743D01*
X138833809Y-135877344D01*
X138837966Y-135861088D01*
X138833809Y-135848579D01*
X138833809Y-135496392D01*
X138837966Y-135480136D01*
X138833809Y-135467627D01*
X138833809Y-135399759D01*
X139058761Y-135399759D01*
X139062381Y-135408487D01*
X139062381Y-135430805D01*
X139059807Y-135454648D01*
X139068945Y-135472924D01*
X139074704Y-135492537D01*
X139081845Y-135498725D01*
X139109164Y-135553362D01*
X139109027Y-135557248D01*
X139122177Y-135579388D01*
X139126988Y-135589010D01*
X139129488Y-135591698D01*
X139139016Y-135607739D01*
X139149098Y-135612780D01*
X139156778Y-135621036D01*
X139174854Y-135625658D01*
X139255699Y-135666081D01*
X139275875Y-135679047D01*
X139296310Y-135679047D01*
X139316426Y-135682667D01*
X139325154Y-135679047D01*
X139424489Y-135679047D01*
X139468797Y-135701201D01*
X139490952Y-135745510D01*
X139490952Y-135745917D01*
X139468797Y-135790225D01*
X139424489Y-135812380D01*
X139281225Y-135812380D01*
X139194241Y-135768888D01*
X139151193Y-135761141D01*
X139096948Y-135783639D01*
X139063478Y-135831892D01*
X139061408Y-135890581D01*
X139091397Y-135941072D01*
X139208080Y-135999414D01*
X139228256Y-136012380D01*
X139248691Y-136012380D01*
X139268807Y-136016000D01*
X139277535Y-136012380D01*
X139442710Y-136012380D01*
X139466553Y-136014954D01*
X139484829Y-136005815D01*
X139504442Y-136000057D01*
X139510630Y-135992915D01*
X139565267Y-135965596D01*
X139569153Y-135965734D01*
X139591293Y-135952583D01*
X139600915Y-135947773D01*
X139603603Y-135945272D01*
X139619644Y-135935745D01*
X139624685Y-135925662D01*
X139632941Y-135917983D01*
X139637563Y-135899906D01*
X139677986Y-135819061D01*
X139690952Y-135798886D01*
X139690952Y-135778451D01*
X139694572Y-135758335D01*
X139690952Y-135749607D01*
X139690952Y-135727288D01*
X139693526Y-135703445D01*
X139684387Y-135685167D01*
X139678629Y-135665557D01*
X139671487Y-135659369D01*
X139644168Y-135604731D01*
X139644306Y-135600846D01*
X139631156Y-135578706D01*
X139626345Y-135569084D01*
X139623844Y-135566395D01*
X139614317Y-135550355D01*
X139604235Y-135545314D01*
X139596555Y-135537057D01*
X139578474Y-135532433D01*
X139497636Y-135492014D01*
X139477458Y-135479047D01*
X139457022Y-135479047D01*
X139436907Y-135475427D01*
X139428179Y-135479047D01*
X139328844Y-135479047D01*
X139284535Y-135456892D01*
X139262381Y-135412584D01*
X139262381Y-135412177D01*
X139284535Y-135367868D01*
X139328844Y-135345714D01*
X139424489Y-135345714D01*
X139511472Y-135389206D01*
X139554521Y-135396953D01*
X139608766Y-135374455D01*
X139642236Y-135326202D01*
X139644306Y-135267513D01*
X139640168Y-135260546D01*
X139773506Y-135260546D01*
X139797901Y-135313965D01*
X139847304Y-135345714D01*
X139919524Y-135345714D01*
X139919524Y-135764138D01*
X139916950Y-135787981D01*
X139926088Y-135806257D01*
X139931847Y-135825870D01*
X139938988Y-135832058D01*
X139966307Y-135886695D01*
X139966170Y-135890581D01*
X139979320Y-135912721D01*
X139984131Y-135922343D01*
X139986631Y-135925031D01*
X139996159Y-135941072D01*
X140006241Y-135946113D01*
X140013921Y-135954369D01*
X140031997Y-135958991D01*
X140112842Y-135999414D01*
X140133018Y-136012380D01*
X140153453Y-136012380D01*
X140173569Y-136016000D01*
X140182297Y-136012380D01*
X140271998Y-136012380D01*
X140313966Y-136000057D01*
X140352423Y-135955675D01*
X140360780Y-135897548D01*
X140336385Y-135844129D01*
X140286982Y-135812380D01*
X140185987Y-135812380D01*
X140141678Y-135790225D01*
X140119524Y-135745917D01*
X140119524Y-135399759D01*
X140439714Y-135399759D01*
X140443334Y-135408487D01*
X140443334Y-135552625D01*
X140441880Y-135555185D01*
X140443334Y-135581787D01*
X140443334Y-135764138D01*
X140440760Y-135787981D01*
X140449898Y-135806257D01*
X140455657Y-135825870D01*
X140462798Y-135832058D01*
X140490117Y-135886695D01*
X140489980Y-135890581D01*
X140503130Y-135912721D01*
X140507941Y-135922343D01*
X140510441Y-135925031D01*
X140519969Y-135941072D01*
X140530051Y-135946113D01*
X140537731Y-135954369D01*
X140555807Y-135958991D01*
X140636652Y-135999414D01*
X140656828Y-136012380D01*
X140677263Y-136012380D01*
X140697379Y-136016000D01*
X140706107Y-136012380D01*
X140871282Y-136012380D01*
X140895125Y-136014954D01*
X140913401Y-136005815D01*
X140933014Y-136000057D01*
X140939202Y-135992915D01*
X141029487Y-135947773D01*
X141061513Y-135917983D01*
X141076062Y-135861088D01*
X141057542Y-135805360D01*
X141011832Y-135768490D01*
X140953446Y-135762187D01*
X140853061Y-135812380D01*
X140709797Y-135812380D01*
X140665488Y-135790225D01*
X140643334Y-135745917D01*
X140643334Y-135661028D01*
X141022292Y-135585235D01*
X141034356Y-135586970D01*
X141050513Y-135579591D01*
X141053235Y-135579047D01*
X141063545Y-135573639D01*
X141087775Y-135562575D01*
X141089366Y-135560099D01*
X141091971Y-135558733D01*
X141105121Y-135535583D01*
X141119524Y-135513172D01*
X141119524Y-135510229D01*
X141120977Y-135507671D01*
X141119524Y-135481088D01*
X141119524Y-135447378D01*
X141344476Y-135447378D01*
X141348096Y-135456106D01*
X141348096Y-135926759D01*
X141360419Y-135968727D01*
X141404801Y-136007184D01*
X141462928Y-136015541D01*
X141516347Y-135991146D01*
X141548096Y-135941743D01*
X141548096Y-135459796D01*
X141577900Y-135400187D01*
X141602570Y-135375518D01*
X141662178Y-135345714D01*
X141748189Y-135345714D01*
X141790157Y-135333391D01*
X141828614Y-135289009D01*
X141836971Y-135230882D01*
X141812576Y-135177463D01*
X141763173Y-135145714D01*
X141643956Y-135145714D01*
X141620113Y-135143140D01*
X141601835Y-135152278D01*
X141582225Y-135158037D01*
X141576037Y-135165178D01*
X141532804Y-135186794D01*
X141491391Y-135150910D01*
X141433264Y-135142553D01*
X141379845Y-135166948D01*
X141348096Y-135216351D01*
X141348096Y-135427263D01*
X141344476Y-135447378D01*
X141119524Y-135447378D01*
X141119524Y-135393955D01*
X141122098Y-135370112D01*
X141112959Y-135351834D01*
X141107201Y-135332224D01*
X141100059Y-135326036D01*
X141072740Y-135271398D01*
X141072878Y-135267513D01*
X141059728Y-135245373D01*
X141054917Y-135235751D01*
X141052416Y-135233062D01*
X141042889Y-135217022D01*
X141032807Y-135211981D01*
X141025127Y-135203724D01*
X141007046Y-135199100D01*
X140926208Y-135158681D01*
X140906030Y-135145714D01*
X140885594Y-135145714D01*
X140865479Y-135142094D01*
X140856751Y-135145714D01*
X140691575Y-135145714D01*
X140667732Y-135143140D01*
X140649454Y-135152278D01*
X140629844Y-135158037D01*
X140623656Y-135165178D01*
X140569018Y-135192497D01*
X140565133Y-135192360D01*
X140542993Y-135205509D01*
X140533371Y-135210321D01*
X140530682Y-135212821D01*
X140514642Y-135222349D01*
X140509601Y-135232430D01*
X140501344Y-135240111D01*
X140496720Y-135258191D01*
X140456301Y-135339029D01*
X140443334Y-135359208D01*
X140443334Y-135379644D01*
X140439714Y-135399759D01*
X140119524Y-135399759D01*
X140119524Y-135345714D01*
X140271998Y-135345714D01*
X140313966Y-135333391D01*
X140352423Y-135289009D01*
X140360780Y-135230882D01*
X140336385Y-135177463D01*
X140286982Y-135145714D01*
X140119524Y-135145714D01*
X140119524Y-134898001D01*
X140107201Y-134856033D01*
X140062819Y-134817576D01*
X140004692Y-134809219D01*
X139951273Y-134833614D01*
X139919524Y-134883017D01*
X139919524Y-135145714D01*
X139862288Y-135145714D01*
X139820320Y-135158037D01*
X139781863Y-135202419D01*
X139773506Y-135260546D01*
X139640168Y-135260546D01*
X139614317Y-135217022D01*
X139497636Y-135158681D01*
X139477458Y-135145714D01*
X139457022Y-135145714D01*
X139436907Y-135142094D01*
X139428179Y-135145714D01*
X139310622Y-135145714D01*
X139286779Y-135143140D01*
X139268501Y-135152278D01*
X139248891Y-135158037D01*
X139242703Y-135165178D01*
X139188065Y-135192497D01*
X139184180Y-135192360D01*
X139162040Y-135205509D01*
X139152418Y-135210321D01*
X139149729Y-135212821D01*
X139133689Y-135222349D01*
X139128648Y-135232430D01*
X139120391Y-135240111D01*
X139115767Y-135258191D01*
X139075348Y-135339029D01*
X139062381Y-135359208D01*
X139062381Y-135379644D01*
X139058761Y-135399759D01*
X138833809Y-135399759D01*
X138833809Y-135393955D01*
X138836383Y-135370112D01*
X138827244Y-135351834D01*
X138821486Y-135332224D01*
X138814344Y-135326036D01*
X138787025Y-135271398D01*
X138787163Y-135267513D01*
X138774013Y-135245373D01*
X138769202Y-135235751D01*
X138766701Y-135233062D01*
X138757174Y-135217022D01*
X138747092Y-135211981D01*
X138739412Y-135203724D01*
X138721331Y-135199100D01*
X138640493Y-135158681D01*
X138620315Y-135145714D01*
X138599879Y-135145714D01*
X138579764Y-135142094D01*
X138571036Y-135145714D01*
X138405860Y-135145714D01*
X138382017Y-135143140D01*
X138363739Y-135152278D01*
X138344129Y-135158037D01*
X138337941Y-135165178D01*
X138247656Y-135210321D01*
X138215629Y-135240111D01*
X138201081Y-135297006D01*
X138219601Y-135352734D01*
X138265310Y-135389604D01*
X138323696Y-135395907D01*
X138424082Y-135345714D01*
X138567346Y-135345714D01*
X138611654Y-135367868D01*
X138633809Y-135412177D01*
X138633809Y-135422006D01*
X138614965Y-135431428D01*
X138405860Y-135431428D01*
X138382017Y-135428854D01*
X138363739Y-135437992D01*
X138344129Y-135443751D01*
X138337941Y-135450892D01*
X138283303Y-135478211D01*
X138279418Y-135478074D01*
X138257278Y-135491223D01*
X138247656Y-135496035D01*
X138244967Y-135498535D01*
X138228927Y-135508063D01*
X138223886Y-135518144D01*
X138215629Y-135525825D01*
X138211005Y-135543905D01*
X138170586Y-135624743D01*
X138157619Y-135644922D01*
X138157619Y-135665358D01*
X138153999Y-135685473D01*
X137881428Y-135685473D01*
X137881428Y-134898001D01*
X137869105Y-134856033D01*
X137824723Y-134817576D01*
X137766596Y-134809219D01*
X137713177Y-134833614D01*
X137681428Y-134883017D01*
X137681428Y-135764138D01*
X137678854Y-135787981D01*
X137431620Y-135787981D01*
X137439890Y-135771442D01*
X137452856Y-135751267D01*
X137452856Y-135730832D01*
X137456476Y-135710716D01*
X137452856Y-135701988D01*
X137452856Y-135584431D01*
X137455430Y-135560588D01*
X137446291Y-135542310D01*
X137440533Y-135522700D01*
X137433391Y-135516512D01*
X137400286Y-135450301D01*
X137396710Y-135433861D01*
X137377235Y-135414386D01*
X137358459Y-135394200D01*
X137356564Y-135393715D01*
X137332134Y-135369285D01*
X137330008Y-135366645D01*
X137333929Y-135364317D01*
X137346247Y-135339680D01*
X137359458Y-135315487D01*
X137359318Y-135313538D01*
X137392271Y-135247633D01*
X137405237Y-135227458D01*
X137405237Y-135207023D01*
X137408857Y-135186907D01*
X137405237Y-135178179D01*
X137405237Y-135108241D01*
X137407811Y-135084398D01*
X137398672Y-135066120D01*
X137392914Y-135046510D01*
X137385772Y-135040322D01*
X137352667Y-134974111D01*
X137349091Y-134957671D01*
X137329616Y-134938196D01*
X137310840Y-134918010D01*
X137308945Y-134917525D01*
X137289576Y-134898156D01*
X137280984Y-134883690D01*
X137256351Y-134871373D01*
X137232153Y-134858160D01*
X137230204Y-134858299D01*
X137164300Y-134825346D01*
X137144124Y-134812380D01*
X137123689Y-134812380D01*
X137103574Y-134808760D01*
X137094846Y-134812380D01*
X136788582Y-134812380D01*
X136766596Y-134809219D01*
X136746392Y-134818445D01*
X136725081Y-134824703D01*
X136720098Y-134830453D01*
X136713177Y-134833614D01*
X136701168Y-134852299D01*
X136686624Y-134869085D01*
X136685541Y-134876616D01*
X136681428Y-134883017D01*
X136681428Y-134905226D01*
X136678267Y-134927212D01*
X136681428Y-134934134D01*
X136681428Y-135381417D01*
X136678267Y-135403403D01*
X136681428Y-135410325D01*
X136681428Y-135905226D01*
X136678267Y-135927212D01*
X136387621Y-135927212D01*
X136390029Y-135921389D01*
X136410807Y-135900611D01*
X136421107Y-135895908D01*
X136431170Y-135880248D01*
X136433734Y-135877685D01*
X136438910Y-135868204D01*
X136452856Y-135846505D01*
X136452856Y-135842666D01*
X136454696Y-135839296D01*
X136452856Y-135813573D01*
X136452856Y-135490963D01*
X136456017Y-135468977D01*
X136446790Y-135448773D01*
X136440533Y-135427462D01*
X136434782Y-135422479D01*
X136431622Y-135415558D01*
X136412936Y-135403549D01*
X136396151Y-135389005D01*
X136388619Y-135387922D01*
X136382219Y-135383809D01*
X136360010Y-135383809D01*
X136338024Y-135380648D01*
X136331102Y-135383809D01*
X136148001Y-135383809D01*
X136106033Y-135396132D01*
X136067576Y-135440514D01*
X136059219Y-135498641D01*
X136083614Y-135552060D01*
X136133017Y-135583809D01*
X136252856Y-135583809D01*
X136252856Y-135775721D01*
X136251219Y-135777357D01*
X136146153Y-135812380D01*
X136083369Y-135812380D01*
X135978304Y-135777358D01*
X135911232Y-135710287D01*
X135875780Y-135639383D01*
X135833809Y-135471498D01*
X135833809Y-135353264D01*
X135875780Y-135185376D01*
X135911232Y-135114473D01*
X135978302Y-135047403D01*
X136083371Y-135012380D01*
X136186391Y-135012380D01*
X136273376Y-135055873D01*
X136316424Y-135063620D01*
X136370670Y-135041123D01*
X136404140Y-134992870D01*
X136406211Y-134934181D01*
X136376222Y-134883690D01*
X136259538Y-134825346D01*
X136239362Y-134812380D01*
X136218927Y-134812380D01*
X136198812Y-134808760D01*
X136190084Y-134812380D01*
X136079682Y-134812380D01*
X136063375Y-134808226D01*
X136037237Y-134816938D01*
X136010795Y-134824703D01*
X136009515Y-134826179D01*
X135897776Y-134863427D01*
X135874337Y-134868526D01*
X135859885Y-134882977D01*
X135843103Y-134894641D01*
X135839491Y-134903371D01*
X135767201Y-134975662D01*
X135752736Y-134984254D01*
X135740418Y-135008888D01*
X135727207Y-135033084D01*
X135727346Y-135035033D01*
X135699952Y-135089821D01*
X135691535Y-135097736D01*
X135687075Y-135115576D01*
X135685555Y-135118616D01*
X135683602Y-135129467D01*
X135640785Y-135300732D01*
X135633809Y-135311589D01*
X135633809Y-135328640D01*
X135633307Y-135330648D01*
X135633809Y-135342994D01*
X135633809Y-135467350D01*
X135629673Y-135479576D01*
X135394806Y-135479576D01*
X135377235Y-135462005D01*
X135358459Y-135441819D01*
X135356564Y-135441334D01*
X135337194Y-135421964D01*
X135328602Y-135407498D01*
X135303967Y-135395180D01*
X135279772Y-135381969D01*
X135277822Y-135382108D01*
X135223034Y-135354714D01*
X135215120Y-135346297D01*
X135197280Y-135341837D01*
X135194240Y-135340317D01*
X135183388Y-135338364D01*
X135006804Y-135294218D01*
X134935902Y-135258767D01*
X134911232Y-135234097D01*
X134881428Y-135174489D01*
X134881428Y-135126463D01*
X134911232Y-135066854D01*
X134935901Y-135042185D01*
X134995512Y-135012380D01*
X135193770Y-135012380D01*
X135334874Y-135059415D01*
X135378585Y-135060996D01*
X135429104Y-135031053D01*
X135455413Y-134978552D01*
X135449163Y-134920160D01*
X135412336Y-134874417D01*
X135253517Y-134821477D01*
X135239362Y-134812380D01*
X135211807Y-134812380D01*
X135184270Y-134811384D01*
X135182590Y-134812380D01*
X134977288Y-134812380D01*
X134953445Y-134809806D01*
X134935167Y-134818944D01*
X134915557Y-134824703D01*
X134909369Y-134831844D01*
X134843156Y-134864950D01*
X134826718Y-134868527D01*
X134807246Y-134887998D01*
X134787057Y-134906779D01*
X134786572Y-134908672D01*
X134767202Y-134928042D01*
X134752736Y-134936635D01*
X134740418Y-134961269D01*
X134727207Y-134985465D01*
X134727346Y-134987414D01*
X134694395Y-135053315D01*
X134681428Y-135073494D01*
X134681428Y-135093930D01*
X134677808Y-135114045D01*
X133959279Y-135114045D01*
X134025921Y-135047403D01*
X134130990Y-135012380D01*
X134193770Y-135012380D01*
X134298837Y-135047402D01*
X134339932Y-135088497D01*
X134378321Y-135109459D01*
X134436897Y-135105269D01*
X134483908Y-135070077D01*
X134504431Y-135015054D01*
X134491948Y-134957671D01*
X134427379Y-134893102D01*
X134412336Y-134874417D01*
X134392945Y-134867953D01*
X134375010Y-134858160D01*
X134365586Y-134858833D01*
X134253517Y-134821477D01*
X134239362Y-134812380D01*
X134211807Y-134812380D01*
X134184270Y-134811384D01*
X134182590Y-134812380D01*
X134127301Y-134812380D01*
X134110994Y-134808226D01*
X134084856Y-134816938D01*
X134058414Y-134824703D01*
X134057134Y-134826179D01*
X133945395Y-134863427D01*
X133921956Y-134868526D01*
X133907504Y-134882977D01*
X133890722Y-134894641D01*
X133887110Y-134903371D01*
X133814820Y-134975662D01*
X133800355Y-134984254D01*
X133788037Y-135008888D01*
X133774826Y-135033084D01*
X133774965Y-135035033D01*
X133747571Y-135089821D01*
X133739154Y-135097736D01*
X133734694Y-135115576D01*
X133733174Y-135118616D01*
X133731221Y-135129467D01*
X133688404Y-135300732D01*
X133681428Y-135311589D01*
X133681428Y-135328640D01*
X133680926Y-135330648D01*
X133681428Y-135342994D01*
X133681428Y-135467350D01*
X133677292Y-135479576D01*
X131150476Y-135479576D01*
X131150476Y-134187143D01*
X144269525Y-134187143D01*
X144269525Y-138192857D01*
G37*
D12*
X146057142Y-101757380D02*
X145723809Y-101281190D01*
X145485714Y-101757380D02*
X145485714Y-100757380D01*
X145485714Y-100757380D02*
X145866666Y-100757380D01*
X145866666Y-100757380D02*
X145961904Y-100805000D01*
X145961904Y-100805000D02*
X146009523Y-100852619D01*
X146009523Y-100852619D02*
X146057142Y-100947857D01*
X146057142Y-100947857D02*
X146057142Y-101090714D01*
X146057142Y-101090714D02*
X146009523Y-101185952D01*
X146009523Y-101185952D02*
X145961904Y-101233571D01*
X145961904Y-101233571D02*
X145866666Y-101281190D01*
X145866666Y-101281190D02*
X145485714Y-101281190D01*
X147009523Y-101757380D02*
X146438095Y-101757380D01*
X146723809Y-101757380D02*
X146723809Y-100757380D01*
X146723809Y-100757380D02*
X146628571Y-100900238D01*
X146628571Y-100900238D02*
X146533333Y-100995476D01*
X146533333Y-100995476D02*
X146438095Y-101043095D01*
X147914285Y-100757380D02*
X147438095Y-100757380D01*
X147438095Y-100757380D02*
X147390476Y-101233571D01*
X147390476Y-101233571D02*
X147438095Y-101185952D01*
X147438095Y-101185952D02*
X147533333Y-101138333D01*
X147533333Y-101138333D02*
X147771428Y-101138333D01*
X147771428Y-101138333D02*
X147866666Y-101185952D01*
X147866666Y-101185952D02*
X147914285Y-101233571D01*
X147914285Y-101233571D02*
X147961904Y-101328809D01*
X147961904Y-101328809D02*
X147961904Y-101566904D01*
X147961904Y-101566904D02*
X147914285Y-101662142D01*
X147914285Y-101662142D02*
X147866666Y-101709761D01*
X147866666Y-101709761D02*
X147771428Y-101757380D01*
X147771428Y-101757380D02*
X147533333Y-101757380D01*
X147533333Y-101757380D02*
X147438095Y-101709761D01*
X147438095Y-101709761D02*
X147390476Y-101662142D01*
X131733333Y-101747380D02*
X131400000Y-101271190D01*
X131161905Y-101747380D02*
X131161905Y-100747380D01*
X131161905Y-100747380D02*
X131542857Y-100747380D01*
X131542857Y-100747380D02*
X131638095Y-100795000D01*
X131638095Y-100795000D02*
X131685714Y-100842619D01*
X131685714Y-100842619D02*
X131733333Y-100937857D01*
X131733333Y-100937857D02*
X131733333Y-101080714D01*
X131733333Y-101080714D02*
X131685714Y-101175952D01*
X131685714Y-101175952D02*
X131638095Y-101223571D01*
X131638095Y-101223571D02*
X131542857Y-101271190D01*
X131542857Y-101271190D02*
X131161905Y-101271190D01*
X132066667Y-100747380D02*
X132685714Y-100747380D01*
X132685714Y-100747380D02*
X132352381Y-101128333D01*
X132352381Y-101128333D02*
X132495238Y-101128333D01*
X132495238Y-101128333D02*
X132590476Y-101175952D01*
X132590476Y-101175952D02*
X132638095Y-101223571D01*
X132638095Y-101223571D02*
X132685714Y-101318809D01*
X132685714Y-101318809D02*
X132685714Y-101556904D01*
X132685714Y-101556904D02*
X132638095Y-101652142D01*
X132638095Y-101652142D02*
X132590476Y-101699761D01*
X132590476Y-101699761D02*
X132495238Y-101747380D01*
X132495238Y-101747380D02*
X132209524Y-101747380D01*
X132209524Y-101747380D02*
X132114286Y-101699761D01*
X132114286Y-101699761D02*
X132066667Y-101652142D01*
X137723333Y-131327380D02*
X137390000Y-130851190D01*
X137151905Y-131327380D02*
X137151905Y-130327380D01*
X137151905Y-130327380D02*
X137532857Y-130327380D01*
X137532857Y-130327380D02*
X137628095Y-130375000D01*
X137628095Y-130375000D02*
X137675714Y-130422619D01*
X137675714Y-130422619D02*
X137723333Y-130517857D01*
X137723333Y-130517857D02*
X137723333Y-130660714D01*
X137723333Y-130660714D02*
X137675714Y-130755952D01*
X137675714Y-130755952D02*
X137628095Y-130803571D01*
X137628095Y-130803571D02*
X137532857Y-130851190D01*
X137532857Y-130851190D02*
X137151905Y-130851190D01*
X138294762Y-130755952D02*
X138199524Y-130708333D01*
X138199524Y-130708333D02*
X138151905Y-130660714D01*
X138151905Y-130660714D02*
X138104286Y-130565476D01*
X138104286Y-130565476D02*
X138104286Y-130517857D01*
X138104286Y-130517857D02*
X138151905Y-130422619D01*
X138151905Y-130422619D02*
X138199524Y-130375000D01*
X138199524Y-130375000D02*
X138294762Y-130327380D01*
X138294762Y-130327380D02*
X138485238Y-130327380D01*
X138485238Y-130327380D02*
X138580476Y-130375000D01*
X138580476Y-130375000D02*
X138628095Y-130422619D01*
X138628095Y-130422619D02*
X138675714Y-130517857D01*
X138675714Y-130517857D02*
X138675714Y-130565476D01*
X138675714Y-130565476D02*
X138628095Y-130660714D01*
X138628095Y-130660714D02*
X138580476Y-130708333D01*
X138580476Y-130708333D02*
X138485238Y-130755952D01*
X138485238Y-130755952D02*
X138294762Y-130755952D01*
X138294762Y-130755952D02*
X138199524Y-130803571D01*
X138199524Y-130803571D02*
X138151905Y-130851190D01*
X138151905Y-130851190D02*
X138104286Y-130946428D01*
X138104286Y-130946428D02*
X138104286Y-131136904D01*
X138104286Y-131136904D02*
X138151905Y-131232142D01*
X138151905Y-131232142D02*
X138199524Y-131279761D01*
X138199524Y-131279761D02*
X138294762Y-131327380D01*
X138294762Y-131327380D02*
X138485238Y-131327380D01*
X138485238Y-131327380D02*
X138580476Y-131279761D01*
X138580476Y-131279761D02*
X138628095Y-131232142D01*
X138628095Y-131232142D02*
X138675714Y-131136904D01*
X138675714Y-131136904D02*
X138675714Y-130946428D01*
X138675714Y-130946428D02*
X138628095Y-130851190D01*
X138628095Y-130851190D02*
X138580476Y-130803571D01*
X138580476Y-130803571D02*
X138485238Y-130755952D01*
X129153333Y-88577380D02*
X128820000Y-88101190D01*
X128581905Y-88577380D02*
X128581905Y-87577380D01*
X128581905Y-87577380D02*
X128962857Y-87577380D01*
X128962857Y-87577380D02*
X129058095Y-87625000D01*
X129058095Y-87625000D02*
X129105714Y-87672619D01*
X129105714Y-87672619D02*
X129153333Y-87767857D01*
X129153333Y-87767857D02*
X129153333Y-87910714D01*
X129153333Y-87910714D02*
X129105714Y-88005952D01*
X129105714Y-88005952D02*
X129058095Y-88053571D01*
X129058095Y-88053571D02*
X128962857Y-88101190D01*
X128962857Y-88101190D02*
X128581905Y-88101190D01*
X130105714Y-88577380D02*
X129534286Y-88577380D01*
X129820000Y-88577380D02*
X129820000Y-87577380D01*
X129820000Y-87577380D02*
X129724762Y-87720238D01*
X129724762Y-87720238D02*
X129629524Y-87815476D01*
X129629524Y-87815476D02*
X129534286Y-87863095D01*
X137149524Y-96143904D02*
X137149524Y-95343904D01*
X137149524Y-95343904D02*
X137340000Y-95343904D01*
X137340000Y-95343904D02*
X137454286Y-95382000D01*
X137454286Y-95382000D02*
X137530476Y-95458190D01*
X137530476Y-95458190D02*
X137568571Y-95534380D01*
X137568571Y-95534380D02*
X137606667Y-95686761D01*
X137606667Y-95686761D02*
X137606667Y-95801047D01*
X137606667Y-95801047D02*
X137568571Y-95953428D01*
X137568571Y-95953428D02*
X137530476Y-96029619D01*
X137530476Y-96029619D02*
X137454286Y-96105809D01*
X137454286Y-96105809D02*
X137340000Y-96143904D01*
X137340000Y-96143904D02*
X137149524Y-96143904D01*
X137911428Y-95420095D02*
X137949524Y-95382000D01*
X137949524Y-95382000D02*
X138025714Y-95343904D01*
X138025714Y-95343904D02*
X138216190Y-95343904D01*
X138216190Y-95343904D02*
X138292381Y-95382000D01*
X138292381Y-95382000D02*
X138330476Y-95420095D01*
X138330476Y-95420095D02*
X138368571Y-95496285D01*
X138368571Y-95496285D02*
X138368571Y-95572476D01*
X138368571Y-95572476D02*
X138330476Y-95686761D01*
X138330476Y-95686761D02*
X137873333Y-96143904D01*
X137873333Y-96143904D02*
X138368571Y-96143904D01*
X135448095Y-91116428D02*
X136210000Y-91116428D01*
X135829047Y-91497380D02*
X135829047Y-90735476D01*
X136590952Y-90497380D02*
X137209999Y-90497380D01*
X137209999Y-90497380D02*
X136876666Y-90878333D01*
X136876666Y-90878333D02*
X137019523Y-90878333D01*
X137019523Y-90878333D02*
X137114761Y-90925952D01*
X137114761Y-90925952D02*
X137162380Y-90973571D01*
X137162380Y-90973571D02*
X137209999Y-91068809D01*
X137209999Y-91068809D02*
X137209999Y-91306904D01*
X137209999Y-91306904D02*
X137162380Y-91402142D01*
X137162380Y-91402142D02*
X137114761Y-91449761D01*
X137114761Y-91449761D02*
X137019523Y-91497380D01*
X137019523Y-91497380D02*
X136733809Y-91497380D01*
X136733809Y-91497380D02*
X136638571Y-91449761D01*
X136638571Y-91449761D02*
X136590952Y-91402142D01*
X137495714Y-90497380D02*
X137829047Y-91497380D01*
X137829047Y-91497380D02*
X138162380Y-90497380D01*
X138400476Y-90497380D02*
X139019523Y-90497380D01*
X139019523Y-90497380D02*
X138686190Y-90878333D01*
X138686190Y-90878333D02*
X138829047Y-90878333D01*
X138829047Y-90878333D02*
X138924285Y-90925952D01*
X138924285Y-90925952D02*
X138971904Y-90973571D01*
X138971904Y-90973571D02*
X139019523Y-91068809D01*
X139019523Y-91068809D02*
X139019523Y-91306904D01*
X139019523Y-91306904D02*
X138971904Y-91402142D01*
X138971904Y-91402142D02*
X138924285Y-91449761D01*
X138924285Y-91449761D02*
X138829047Y-91497380D01*
X138829047Y-91497380D02*
X138543333Y-91497380D01*
X138543333Y-91497380D02*
X138448095Y-91449761D01*
X138448095Y-91449761D02*
X138400476Y-91402142D01*
X141669524Y-96183904D02*
X141669524Y-95383904D01*
X141669524Y-95383904D02*
X141860000Y-95383904D01*
X141860000Y-95383904D02*
X141974286Y-95422000D01*
X141974286Y-95422000D02*
X142050476Y-95498190D01*
X142050476Y-95498190D02*
X142088571Y-95574380D01*
X142088571Y-95574380D02*
X142126667Y-95726761D01*
X142126667Y-95726761D02*
X142126667Y-95841047D01*
X142126667Y-95841047D02*
X142088571Y-95993428D01*
X142088571Y-95993428D02*
X142050476Y-96069619D01*
X142050476Y-96069619D02*
X141974286Y-96145809D01*
X141974286Y-96145809D02*
X141860000Y-96183904D01*
X141860000Y-96183904D02*
X141669524Y-96183904D01*
X142393333Y-95383904D02*
X142888571Y-95383904D01*
X142888571Y-95383904D02*
X142621905Y-95688666D01*
X142621905Y-95688666D02*
X142736190Y-95688666D01*
X142736190Y-95688666D02*
X142812381Y-95726761D01*
X142812381Y-95726761D02*
X142850476Y-95764857D01*
X142850476Y-95764857D02*
X142888571Y-95841047D01*
X142888571Y-95841047D02*
X142888571Y-96031523D01*
X142888571Y-96031523D02*
X142850476Y-96107714D01*
X142850476Y-96107714D02*
X142812381Y-96145809D01*
X142812381Y-96145809D02*
X142736190Y-96183904D01*
X142736190Y-96183904D02*
X142507619Y-96183904D01*
X142507619Y-96183904D02*
X142431428Y-96145809D01*
X142431428Y-96145809D02*
X142393333Y-96107714D01*
X140824286Y-91036428D02*
X141586191Y-91036428D01*
X141205238Y-91417380D02*
X141205238Y-90655476D01*
X142538571Y-90417380D02*
X142062381Y-90417380D01*
X142062381Y-90417380D02*
X142014762Y-90893571D01*
X142014762Y-90893571D02*
X142062381Y-90845952D01*
X142062381Y-90845952D02*
X142157619Y-90798333D01*
X142157619Y-90798333D02*
X142395714Y-90798333D01*
X142395714Y-90798333D02*
X142490952Y-90845952D01*
X142490952Y-90845952D02*
X142538571Y-90893571D01*
X142538571Y-90893571D02*
X142586190Y-90988809D01*
X142586190Y-90988809D02*
X142586190Y-91226904D01*
X142586190Y-91226904D02*
X142538571Y-91322142D01*
X142538571Y-91322142D02*
X142490952Y-91369761D01*
X142490952Y-91369761D02*
X142395714Y-91417380D01*
X142395714Y-91417380D02*
X142157619Y-91417380D01*
X142157619Y-91417380D02*
X142062381Y-91369761D01*
X142062381Y-91369761D02*
X142014762Y-91322142D01*
X142871905Y-90417380D02*
X143205238Y-91417380D01*
X143205238Y-91417380D02*
X143538571Y-90417380D01*
X134663333Y-101757380D02*
X134330000Y-101281190D01*
X134091905Y-101757380D02*
X134091905Y-100757380D01*
X134091905Y-100757380D02*
X134472857Y-100757380D01*
X134472857Y-100757380D02*
X134568095Y-100805000D01*
X134568095Y-100805000D02*
X134615714Y-100852619D01*
X134615714Y-100852619D02*
X134663333Y-100947857D01*
X134663333Y-100947857D02*
X134663333Y-101090714D01*
X134663333Y-101090714D02*
X134615714Y-101185952D01*
X134615714Y-101185952D02*
X134568095Y-101233571D01*
X134568095Y-101233571D02*
X134472857Y-101281190D01*
X134472857Y-101281190D02*
X134091905Y-101281190D01*
X135520476Y-101090714D02*
X135520476Y-101757380D01*
X135282381Y-100709761D02*
X135044286Y-101424047D01*
X135044286Y-101424047D02*
X135663333Y-101424047D01*
X128803333Y-101717380D02*
X128470000Y-101241190D01*
X128231905Y-101717380D02*
X128231905Y-100717380D01*
X128231905Y-100717380D02*
X128612857Y-100717380D01*
X128612857Y-100717380D02*
X128708095Y-100765000D01*
X128708095Y-100765000D02*
X128755714Y-100812619D01*
X128755714Y-100812619D02*
X128803333Y-100907857D01*
X128803333Y-100907857D02*
X128803333Y-101050714D01*
X128803333Y-101050714D02*
X128755714Y-101145952D01*
X128755714Y-101145952D02*
X128708095Y-101193571D01*
X128708095Y-101193571D02*
X128612857Y-101241190D01*
X128612857Y-101241190D02*
X128231905Y-101241190D01*
X129184286Y-100812619D02*
X129231905Y-100765000D01*
X129231905Y-100765000D02*
X129327143Y-100717380D01*
X129327143Y-100717380D02*
X129565238Y-100717380D01*
X129565238Y-100717380D02*
X129660476Y-100765000D01*
X129660476Y-100765000D02*
X129708095Y-100812619D01*
X129708095Y-100812619D02*
X129755714Y-100907857D01*
X129755714Y-100907857D02*
X129755714Y-101003095D01*
X129755714Y-101003095D02*
X129708095Y-101145952D01*
X129708095Y-101145952D02*
X129136667Y-101717380D01*
X129136667Y-101717380D02*
X129755714Y-101717380D01*
X128823333Y-131357380D02*
X128490000Y-130881190D01*
X128251905Y-131357380D02*
X128251905Y-130357380D01*
X128251905Y-130357380D02*
X128632857Y-130357380D01*
X128632857Y-130357380D02*
X128728095Y-130405000D01*
X128728095Y-130405000D02*
X128775714Y-130452619D01*
X128775714Y-130452619D02*
X128823333Y-130547857D01*
X128823333Y-130547857D02*
X128823333Y-130690714D01*
X128823333Y-130690714D02*
X128775714Y-130785952D01*
X128775714Y-130785952D02*
X128728095Y-130833571D01*
X128728095Y-130833571D02*
X128632857Y-130881190D01*
X128632857Y-130881190D02*
X128251905Y-130881190D01*
X129728095Y-130357380D02*
X129251905Y-130357380D01*
X129251905Y-130357380D02*
X129204286Y-130833571D01*
X129204286Y-130833571D02*
X129251905Y-130785952D01*
X129251905Y-130785952D02*
X129347143Y-130738333D01*
X129347143Y-130738333D02*
X129585238Y-130738333D01*
X129585238Y-130738333D02*
X129680476Y-130785952D01*
X129680476Y-130785952D02*
X129728095Y-130833571D01*
X129728095Y-130833571D02*
X129775714Y-130928809D01*
X129775714Y-130928809D02*
X129775714Y-131166904D01*
X129775714Y-131166904D02*
X129728095Y-131262142D01*
X129728095Y-131262142D02*
X129680476Y-131309761D01*
X129680476Y-131309761D02*
X129585238Y-131357380D01*
X129585238Y-131357380D02*
X129347143Y-131357380D01*
X129347143Y-131357380D02*
X129251905Y-131309761D01*
X129251905Y-131309761D02*
X129204286Y-131262142D01*
X132599524Y-96093904D02*
X132599524Y-95293904D01*
X132599524Y-95293904D02*
X132790000Y-95293904D01*
X132790000Y-95293904D02*
X132904286Y-95332000D01*
X132904286Y-95332000D02*
X132980476Y-95408190D01*
X132980476Y-95408190D02*
X133018571Y-95484380D01*
X133018571Y-95484380D02*
X133056667Y-95636761D01*
X133056667Y-95636761D02*
X133056667Y-95751047D01*
X133056667Y-95751047D02*
X133018571Y-95903428D01*
X133018571Y-95903428D02*
X132980476Y-95979619D01*
X132980476Y-95979619D02*
X132904286Y-96055809D01*
X132904286Y-96055809D02*
X132790000Y-96093904D01*
X132790000Y-96093904D02*
X132599524Y-96093904D01*
X133818571Y-96093904D02*
X133361428Y-96093904D01*
X133590000Y-96093904D02*
X133590000Y-95293904D01*
X133590000Y-95293904D02*
X133513809Y-95408190D01*
X133513809Y-95408190D02*
X133437619Y-95484380D01*
X133437619Y-95484380D02*
X133361428Y-95522476D01*
X131593809Y-91357380D02*
X131593809Y-90357380D01*
X131593809Y-90357380D02*
X131974761Y-90357380D01*
X131974761Y-90357380D02*
X132069999Y-90405000D01*
X132069999Y-90405000D02*
X132117618Y-90452619D01*
X132117618Y-90452619D02*
X132165237Y-90547857D01*
X132165237Y-90547857D02*
X132165237Y-90690714D01*
X132165237Y-90690714D02*
X132117618Y-90785952D01*
X132117618Y-90785952D02*
X132069999Y-90833571D01*
X132069999Y-90833571D02*
X131974761Y-90881190D01*
X131974761Y-90881190D02*
X131593809Y-90881190D01*
X132593809Y-91357380D02*
X132593809Y-90690714D01*
X132593809Y-90881190D02*
X132641428Y-90785952D01*
X132641428Y-90785952D02*
X132689047Y-90738333D01*
X132689047Y-90738333D02*
X132784285Y-90690714D01*
X132784285Y-90690714D02*
X132879523Y-90690714D01*
X133355714Y-91357380D02*
X133260476Y-91309761D01*
X133260476Y-91309761D02*
X133212857Y-91262142D01*
X133212857Y-91262142D02*
X133165238Y-91166904D01*
X133165238Y-91166904D02*
X133165238Y-90881190D01*
X133165238Y-90881190D02*
X133212857Y-90785952D01*
X133212857Y-90785952D02*
X133260476Y-90738333D01*
X133260476Y-90738333D02*
X133355714Y-90690714D01*
X133355714Y-90690714D02*
X133498571Y-90690714D01*
X133498571Y-90690714D02*
X133593809Y-90738333D01*
X133593809Y-90738333D02*
X133641428Y-90785952D01*
X133641428Y-90785952D02*
X133689047Y-90881190D01*
X133689047Y-90881190D02*
X133689047Y-91166904D01*
X133689047Y-91166904D02*
X133641428Y-91262142D01*
X133641428Y-91262142D02*
X133593809Y-91309761D01*
X133593809Y-91309761D02*
X133498571Y-91357380D01*
X133498571Y-91357380D02*
X133355714Y-91357380D01*
X134546190Y-90690714D02*
X134546190Y-91500238D01*
X134546190Y-91500238D02*
X134498571Y-91595476D01*
X134498571Y-91595476D02*
X134450952Y-91643095D01*
X134450952Y-91643095D02*
X134355714Y-91690714D01*
X134355714Y-91690714D02*
X134212857Y-91690714D01*
X134212857Y-91690714D02*
X134117619Y-91643095D01*
X134546190Y-91309761D02*
X134450952Y-91357380D01*
X134450952Y-91357380D02*
X134260476Y-91357380D01*
X134260476Y-91357380D02*
X134165238Y-91309761D01*
X134165238Y-91309761D02*
X134117619Y-91262142D01*
X134117619Y-91262142D02*
X134070000Y-91166904D01*
X134070000Y-91166904D02*
X134070000Y-90881190D01*
X134070000Y-90881190D02*
X134117619Y-90785952D01*
X134117619Y-90785952D02*
X134165238Y-90738333D01*
X134165238Y-90738333D02*
X134260476Y-90690714D01*
X134260476Y-90690714D02*
X134450952Y-90690714D01*
X134450952Y-90690714D02*
X134546190Y-90738333D01*
X143007142Y-131297380D02*
X142673809Y-130821190D01*
X142435714Y-131297380D02*
X142435714Y-130297380D01*
X142435714Y-130297380D02*
X142816666Y-130297380D01*
X142816666Y-130297380D02*
X142911904Y-130345000D01*
X142911904Y-130345000D02*
X142959523Y-130392619D01*
X142959523Y-130392619D02*
X143007142Y-130487857D01*
X143007142Y-130487857D02*
X143007142Y-130630714D01*
X143007142Y-130630714D02*
X142959523Y-130725952D01*
X142959523Y-130725952D02*
X142911904Y-130773571D01*
X142911904Y-130773571D02*
X142816666Y-130821190D01*
X142816666Y-130821190D02*
X142435714Y-130821190D01*
X143959523Y-131297380D02*
X143388095Y-131297380D01*
X143673809Y-131297380D02*
X143673809Y-130297380D01*
X143673809Y-130297380D02*
X143578571Y-130440238D01*
X143578571Y-130440238D02*
X143483333Y-130535476D01*
X143483333Y-130535476D02*
X143388095Y-130583095D01*
X144578571Y-130297380D02*
X144673809Y-130297380D01*
X144673809Y-130297380D02*
X144769047Y-130345000D01*
X144769047Y-130345000D02*
X144816666Y-130392619D01*
X144816666Y-130392619D02*
X144864285Y-130487857D01*
X144864285Y-130487857D02*
X144911904Y-130678333D01*
X144911904Y-130678333D02*
X144911904Y-130916428D01*
X144911904Y-130916428D02*
X144864285Y-131106904D01*
X144864285Y-131106904D02*
X144816666Y-131202142D01*
X144816666Y-131202142D02*
X144769047Y-131249761D01*
X144769047Y-131249761D02*
X144673809Y-131297380D01*
X144673809Y-131297380D02*
X144578571Y-131297380D01*
X144578571Y-131297380D02*
X144483333Y-131249761D01*
X144483333Y-131249761D02*
X144435714Y-131202142D01*
X144435714Y-131202142D02*
X144388095Y-131106904D01*
X144388095Y-131106904D02*
X144340476Y-130916428D01*
X144340476Y-130916428D02*
X144340476Y-130678333D01*
X144340476Y-130678333D02*
X144388095Y-130487857D01*
X144388095Y-130487857D02*
X144435714Y-130392619D01*
X144435714Y-130392619D02*
X144483333Y-130345000D01*
X144483333Y-130345000D02*
X144578571Y-130297380D01*
X140057142Y-101717380D02*
X139723809Y-101241190D01*
X139485714Y-101717380D02*
X139485714Y-100717380D01*
X139485714Y-100717380D02*
X139866666Y-100717380D01*
X139866666Y-100717380D02*
X139961904Y-100765000D01*
X139961904Y-100765000D02*
X140009523Y-100812619D01*
X140009523Y-100812619D02*
X140057142Y-100907857D01*
X140057142Y-100907857D02*
X140057142Y-101050714D01*
X140057142Y-101050714D02*
X140009523Y-101145952D01*
X140009523Y-101145952D02*
X139961904Y-101193571D01*
X139961904Y-101193571D02*
X139866666Y-101241190D01*
X139866666Y-101241190D02*
X139485714Y-101241190D01*
X141009523Y-101717380D02*
X140438095Y-101717380D01*
X140723809Y-101717380D02*
X140723809Y-100717380D01*
X140723809Y-100717380D02*
X140628571Y-100860238D01*
X140628571Y-100860238D02*
X140533333Y-100955476D01*
X140533333Y-100955476D02*
X140438095Y-101003095D01*
X141342857Y-100717380D02*
X141961904Y-100717380D01*
X141961904Y-100717380D02*
X141628571Y-101098333D01*
X141628571Y-101098333D02*
X141771428Y-101098333D01*
X141771428Y-101098333D02*
X141866666Y-101145952D01*
X141866666Y-101145952D02*
X141914285Y-101193571D01*
X141914285Y-101193571D02*
X141961904Y-101288809D01*
X141961904Y-101288809D02*
X141961904Y-101526904D01*
X141961904Y-101526904D02*
X141914285Y-101622142D01*
X141914285Y-101622142D02*
X141866666Y-101669761D01*
X141866666Y-101669761D02*
X141771428Y-101717380D01*
X141771428Y-101717380D02*
X141485714Y-101717380D01*
X141485714Y-101717380D02*
X141390476Y-101669761D01*
X141390476Y-101669761D02*
X141342857Y-101622142D01*
X143117142Y-101717380D02*
X142783809Y-101241190D01*
X142545714Y-101717380D02*
X142545714Y-100717380D01*
X142545714Y-100717380D02*
X142926666Y-100717380D01*
X142926666Y-100717380D02*
X143021904Y-100765000D01*
X143021904Y-100765000D02*
X143069523Y-100812619D01*
X143069523Y-100812619D02*
X143117142Y-100907857D01*
X143117142Y-100907857D02*
X143117142Y-101050714D01*
X143117142Y-101050714D02*
X143069523Y-101145952D01*
X143069523Y-101145952D02*
X143021904Y-101193571D01*
X143021904Y-101193571D02*
X142926666Y-101241190D01*
X142926666Y-101241190D02*
X142545714Y-101241190D01*
X144069523Y-101717380D02*
X143498095Y-101717380D01*
X143783809Y-101717380D02*
X143783809Y-100717380D01*
X143783809Y-100717380D02*
X143688571Y-100860238D01*
X143688571Y-100860238D02*
X143593333Y-100955476D01*
X143593333Y-100955476D02*
X143498095Y-101003095D01*
X144926666Y-101050714D02*
X144926666Y-101717380D01*
X144688571Y-100669761D02*
X144450476Y-101384047D01*
X144450476Y-101384047D02*
X145069523Y-101384047D01*
X134683333Y-131337380D02*
X134350000Y-130861190D01*
X134111905Y-131337380D02*
X134111905Y-130337380D01*
X134111905Y-130337380D02*
X134492857Y-130337380D01*
X134492857Y-130337380D02*
X134588095Y-130385000D01*
X134588095Y-130385000D02*
X134635714Y-130432619D01*
X134635714Y-130432619D02*
X134683333Y-130527857D01*
X134683333Y-130527857D02*
X134683333Y-130670714D01*
X134683333Y-130670714D02*
X134635714Y-130765952D01*
X134635714Y-130765952D02*
X134588095Y-130813571D01*
X134588095Y-130813571D02*
X134492857Y-130861190D01*
X134492857Y-130861190D02*
X134111905Y-130861190D01*
X135016667Y-130337380D02*
X135683333Y-130337380D01*
X135683333Y-130337380D02*
X135254762Y-131337380D01*
X127178095Y-103047380D02*
X127178095Y-103856904D01*
X127178095Y-103856904D02*
X127225714Y-103952142D01*
X127225714Y-103952142D02*
X127273333Y-103999761D01*
X127273333Y-103999761D02*
X127368571Y-104047380D01*
X127368571Y-104047380D02*
X127559047Y-104047380D01*
X127559047Y-104047380D02*
X127654285Y-103999761D01*
X127654285Y-103999761D02*
X127701904Y-103952142D01*
X127701904Y-103952142D02*
X127749523Y-103856904D01*
X127749523Y-103856904D02*
X127749523Y-103047380D01*
X128749523Y-104047380D02*
X128178095Y-104047380D01*
X128463809Y-104047380D02*
X128463809Y-103047380D01*
X128463809Y-103047380D02*
X128368571Y-103190238D01*
X128368571Y-103190238D02*
X128273333Y-103285476D01*
X128273333Y-103285476D02*
X128178095Y-103333095D01*
X134975237Y-123575000D02*
X134879999Y-123527380D01*
X134879999Y-123527380D02*
X134737142Y-123527380D01*
X134737142Y-123527380D02*
X134594285Y-123575000D01*
X134594285Y-123575000D02*
X134499047Y-123670238D01*
X134499047Y-123670238D02*
X134451428Y-123765476D01*
X134451428Y-123765476D02*
X134403809Y-123955952D01*
X134403809Y-123955952D02*
X134403809Y-124098809D01*
X134403809Y-124098809D02*
X134451428Y-124289285D01*
X134451428Y-124289285D02*
X134499047Y-124384523D01*
X134499047Y-124384523D02*
X134594285Y-124479761D01*
X134594285Y-124479761D02*
X134737142Y-124527380D01*
X134737142Y-124527380D02*
X134832380Y-124527380D01*
X134832380Y-124527380D02*
X134975237Y-124479761D01*
X134975237Y-124479761D02*
X135022856Y-124432142D01*
X135022856Y-124432142D02*
X135022856Y-124098809D01*
X135022856Y-124098809D02*
X134832380Y-124098809D01*
X135403809Y-124241666D02*
X135879999Y-124241666D01*
X135308571Y-124527380D02*
X135641904Y-123527380D01*
X135641904Y-123527380D02*
X135975237Y-124527380D01*
X136784761Y-124527380D02*
X136308571Y-124527380D01*
X136308571Y-124527380D02*
X136308571Y-123527380D01*
X137070476Y-123622619D02*
X137118095Y-123575000D01*
X137118095Y-123575000D02*
X137213333Y-123527380D01*
X137213333Y-123527380D02*
X137451428Y-123527380D01*
X137451428Y-123527380D02*
X137546666Y-123575000D01*
X137546666Y-123575000D02*
X137594285Y-123622619D01*
X137594285Y-123622619D02*
X137641904Y-123717857D01*
X137641904Y-123717857D02*
X137641904Y-123813095D01*
X137641904Y-123813095D02*
X137594285Y-123955952D01*
X137594285Y-123955952D02*
X137022857Y-124527380D01*
X137022857Y-124527380D02*
X137641904Y-124527380D01*
X138499047Y-123527380D02*
X138308571Y-123527380D01*
X138308571Y-123527380D02*
X138213333Y-123575000D01*
X138213333Y-123575000D02*
X138165714Y-123622619D01*
X138165714Y-123622619D02*
X138070476Y-123765476D01*
X138070476Y-123765476D02*
X138022857Y-123955952D01*
X138022857Y-123955952D02*
X138022857Y-124336904D01*
X138022857Y-124336904D02*
X138070476Y-124432142D01*
X138070476Y-124432142D02*
X138118095Y-124479761D01*
X138118095Y-124479761D02*
X138213333Y-124527380D01*
X138213333Y-124527380D02*
X138403809Y-124527380D01*
X138403809Y-124527380D02*
X138499047Y-124479761D01*
X138499047Y-124479761D02*
X138546666Y-124432142D01*
X138546666Y-124432142D02*
X138594285Y-124336904D01*
X138594285Y-124336904D02*
X138594285Y-124098809D01*
X138594285Y-124098809D02*
X138546666Y-124003571D01*
X138546666Y-124003571D02*
X138499047Y-123955952D01*
X138499047Y-123955952D02*
X138403809Y-123908333D01*
X138403809Y-123908333D02*
X138213333Y-123908333D01*
X138213333Y-123908333D02*
X138118095Y-123955952D01*
X138118095Y-123955952D02*
X138070476Y-124003571D01*
X138070476Y-124003571D02*
X138022857Y-124098809D01*
X138880000Y-123527380D02*
X139213333Y-124527380D01*
X139213333Y-124527380D02*
X139546666Y-123527380D01*
X140403809Y-124527380D02*
X139832381Y-124527380D01*
X140118095Y-124527380D02*
X140118095Y-123527380D01*
X140118095Y-123527380D02*
X140022857Y-123670238D01*
X140022857Y-123670238D02*
X139927619Y-123765476D01*
X139927619Y-123765476D02*
X139832381Y-123813095D01*
X140784762Y-123622619D02*
X140832381Y-123575000D01*
X140832381Y-123575000D02*
X140927619Y-123527380D01*
X140927619Y-123527380D02*
X141165714Y-123527380D01*
X141165714Y-123527380D02*
X141260952Y-123575000D01*
X141260952Y-123575000D02*
X141308571Y-123622619D01*
X141308571Y-123622619D02*
X141356190Y-123717857D01*
X141356190Y-123717857D02*
X141356190Y-123813095D01*
X141356190Y-123813095D02*
X141308571Y-123955952D01*
X141308571Y-123955952D02*
X140737143Y-124527380D01*
X140737143Y-124527380D02*
X141356190Y-124527380D01*
X137147142Y-101717380D02*
X136813809Y-101241190D01*
X136575714Y-101717380D02*
X136575714Y-100717380D01*
X136575714Y-100717380D02*
X136956666Y-100717380D01*
X136956666Y-100717380D02*
X137051904Y-100765000D01*
X137051904Y-100765000D02*
X137099523Y-100812619D01*
X137099523Y-100812619D02*
X137147142Y-100907857D01*
X137147142Y-100907857D02*
X137147142Y-101050714D01*
X137147142Y-101050714D02*
X137099523Y-101145952D01*
X137099523Y-101145952D02*
X137051904Y-101193571D01*
X137051904Y-101193571D02*
X136956666Y-101241190D01*
X136956666Y-101241190D02*
X136575714Y-101241190D01*
X138099523Y-101717380D02*
X137528095Y-101717380D01*
X137813809Y-101717380D02*
X137813809Y-100717380D01*
X137813809Y-100717380D02*
X137718571Y-100860238D01*
X137718571Y-100860238D02*
X137623333Y-100955476D01*
X137623333Y-100955476D02*
X137528095Y-101003095D01*
X139051904Y-101717380D02*
X138480476Y-101717380D01*
X138766190Y-101717380D02*
X138766190Y-100717380D01*
X138766190Y-100717380D02*
X138670952Y-100860238D01*
X138670952Y-100860238D02*
X138575714Y-100955476D01*
X138575714Y-100955476D02*
X138480476Y-101003095D01*
X145987142Y-131287380D02*
X145653809Y-130811190D01*
X145415714Y-131287380D02*
X145415714Y-130287380D01*
X145415714Y-130287380D02*
X145796666Y-130287380D01*
X145796666Y-130287380D02*
X145891904Y-130335000D01*
X145891904Y-130335000D02*
X145939523Y-130382619D01*
X145939523Y-130382619D02*
X145987142Y-130477857D01*
X145987142Y-130477857D02*
X145987142Y-130620714D01*
X145987142Y-130620714D02*
X145939523Y-130715952D01*
X145939523Y-130715952D02*
X145891904Y-130763571D01*
X145891904Y-130763571D02*
X145796666Y-130811190D01*
X145796666Y-130811190D02*
X145415714Y-130811190D01*
X146939523Y-131287380D02*
X146368095Y-131287380D01*
X146653809Y-131287380D02*
X146653809Y-130287380D01*
X146653809Y-130287380D02*
X146558571Y-130430238D01*
X146558571Y-130430238D02*
X146463333Y-130525476D01*
X146463333Y-130525476D02*
X146368095Y-130573095D01*
X147320476Y-130382619D02*
X147368095Y-130335000D01*
X147368095Y-130335000D02*
X147463333Y-130287380D01*
X147463333Y-130287380D02*
X147701428Y-130287380D01*
X147701428Y-130287380D02*
X147796666Y-130335000D01*
X147796666Y-130335000D02*
X147844285Y-130382619D01*
X147844285Y-130382619D02*
X147891904Y-130477857D01*
X147891904Y-130477857D02*
X147891904Y-130573095D01*
X147891904Y-130573095D02*
X147844285Y-130715952D01*
X147844285Y-130715952D02*
X147272857Y-131287380D01*
X147272857Y-131287380D02*
X147891904Y-131287380D01*
X140573333Y-131327380D02*
X140240000Y-130851190D01*
X140001905Y-131327380D02*
X140001905Y-130327380D01*
X140001905Y-130327380D02*
X140382857Y-130327380D01*
X140382857Y-130327380D02*
X140478095Y-130375000D01*
X140478095Y-130375000D02*
X140525714Y-130422619D01*
X140525714Y-130422619D02*
X140573333Y-130517857D01*
X140573333Y-130517857D02*
X140573333Y-130660714D01*
X140573333Y-130660714D02*
X140525714Y-130755952D01*
X140525714Y-130755952D02*
X140478095Y-130803571D01*
X140478095Y-130803571D02*
X140382857Y-130851190D01*
X140382857Y-130851190D02*
X140001905Y-130851190D01*
X141049524Y-131327380D02*
X141240000Y-131327380D01*
X141240000Y-131327380D02*
X141335238Y-131279761D01*
X141335238Y-131279761D02*
X141382857Y-131232142D01*
X141382857Y-131232142D02*
X141478095Y-131089285D01*
X141478095Y-131089285D02*
X141525714Y-130898809D01*
X141525714Y-130898809D02*
X141525714Y-130517857D01*
X141525714Y-130517857D02*
X141478095Y-130422619D01*
X141478095Y-130422619D02*
X141430476Y-130375000D01*
X141430476Y-130375000D02*
X141335238Y-130327380D01*
X141335238Y-130327380D02*
X141144762Y-130327380D01*
X141144762Y-130327380D02*
X141049524Y-130375000D01*
X141049524Y-130375000D02*
X141001905Y-130422619D01*
X141001905Y-130422619D02*
X140954286Y-130517857D01*
X140954286Y-130517857D02*
X140954286Y-130755952D01*
X140954286Y-130755952D02*
X141001905Y-130851190D01*
X141001905Y-130851190D02*
X141049524Y-130898809D01*
X141049524Y-130898809D02*
X141144762Y-130946428D01*
X141144762Y-130946428D02*
X141335238Y-130946428D01*
X141335238Y-130946428D02*
X141430476Y-130898809D01*
X141430476Y-130898809D02*
X141478095Y-130851190D01*
X141478095Y-130851190D02*
X141525714Y-130755952D01*
X146863333Y-88572142D02*
X146815714Y-88619761D01*
X146815714Y-88619761D02*
X146672857Y-88667380D01*
X146672857Y-88667380D02*
X146577619Y-88667380D01*
X146577619Y-88667380D02*
X146434762Y-88619761D01*
X146434762Y-88619761D02*
X146339524Y-88524523D01*
X146339524Y-88524523D02*
X146291905Y-88429285D01*
X146291905Y-88429285D02*
X146244286Y-88238809D01*
X146244286Y-88238809D02*
X146244286Y-88095952D01*
X146244286Y-88095952D02*
X146291905Y-87905476D01*
X146291905Y-87905476D02*
X146339524Y-87810238D01*
X146339524Y-87810238D02*
X146434762Y-87715000D01*
X146434762Y-87715000D02*
X146577619Y-87667380D01*
X146577619Y-87667380D02*
X146672857Y-87667380D01*
X146672857Y-87667380D02*
X146815714Y-87715000D01*
X146815714Y-87715000D02*
X146863333Y-87762619D01*
X147815714Y-88667380D02*
X147244286Y-88667380D01*
X147530000Y-88667380D02*
X147530000Y-87667380D01*
X147530000Y-87667380D02*
X147434762Y-87810238D01*
X147434762Y-87810238D02*
X147339524Y-87905476D01*
X147339524Y-87905476D02*
X147244286Y-87953095D01*
X131743333Y-131367380D02*
X131410000Y-130891190D01*
X131171905Y-131367380D02*
X131171905Y-130367380D01*
X131171905Y-130367380D02*
X131552857Y-130367380D01*
X131552857Y-130367380D02*
X131648095Y-130415000D01*
X131648095Y-130415000D02*
X131695714Y-130462619D01*
X131695714Y-130462619D02*
X131743333Y-130557857D01*
X131743333Y-130557857D02*
X131743333Y-130700714D01*
X131743333Y-130700714D02*
X131695714Y-130795952D01*
X131695714Y-130795952D02*
X131648095Y-130843571D01*
X131648095Y-130843571D02*
X131552857Y-130891190D01*
X131552857Y-130891190D02*
X131171905Y-130891190D01*
X132600476Y-130367380D02*
X132410000Y-130367380D01*
X132410000Y-130367380D02*
X132314762Y-130415000D01*
X132314762Y-130415000D02*
X132267143Y-130462619D01*
X132267143Y-130462619D02*
X132171905Y-130605476D01*
X132171905Y-130605476D02*
X132124286Y-130795952D01*
X132124286Y-130795952D02*
X132124286Y-131176904D01*
X132124286Y-131176904D02*
X132171905Y-131272142D01*
X132171905Y-131272142D02*
X132219524Y-131319761D01*
X132219524Y-131319761D02*
X132314762Y-131367380D01*
X132314762Y-131367380D02*
X132505238Y-131367380D01*
X132505238Y-131367380D02*
X132600476Y-131319761D01*
X132600476Y-131319761D02*
X132648095Y-131272142D01*
X132648095Y-131272142D02*
X132695714Y-131176904D01*
X132695714Y-131176904D02*
X132695714Y-130938809D01*
X132695714Y-130938809D02*
X132648095Y-130843571D01*
X132648095Y-130843571D02*
X132600476Y-130795952D01*
X132600476Y-130795952D02*
X132505238Y-130748333D01*
X132505238Y-130748333D02*
X132314762Y-130748333D01*
X132314762Y-130748333D02*
X132219524Y-130795952D01*
X132219524Y-130795952D02*
X132171905Y-130843571D01*
X132171905Y-130843571D02*
X132124286Y-130938809D01*
X127446666Y-85107380D02*
X127446666Y-85821666D01*
X127446666Y-85821666D02*
X127399047Y-85964523D01*
X127399047Y-85964523D02*
X127303809Y-86059761D01*
X127303809Y-86059761D02*
X127160952Y-86107380D01*
X127160952Y-86107380D02*
X127065714Y-86107380D01*
X128446666Y-86107380D02*
X127875238Y-86107380D01*
X128160952Y-86107380D02*
X128160952Y-85107380D01*
X128160952Y-85107380D02*
X128065714Y-85250238D01*
X128065714Y-85250238D02*
X127970476Y-85345476D01*
X127970476Y-85345476D02*
X127875238Y-85393095D01*
X136635714Y-86072142D02*
X136588095Y-86119761D01*
X136588095Y-86119761D02*
X136445238Y-86167380D01*
X136445238Y-86167380D02*
X136350000Y-86167380D01*
X136350000Y-86167380D02*
X136207143Y-86119761D01*
X136207143Y-86119761D02*
X136111905Y-86024523D01*
X136111905Y-86024523D02*
X136064286Y-85929285D01*
X136064286Y-85929285D02*
X136016667Y-85738809D01*
X136016667Y-85738809D02*
X136016667Y-85595952D01*
X136016667Y-85595952D02*
X136064286Y-85405476D01*
X136064286Y-85405476D02*
X136111905Y-85310238D01*
X136111905Y-85310238D02*
X136207143Y-85215000D01*
X136207143Y-85215000D02*
X136350000Y-85167380D01*
X136350000Y-85167380D02*
X136445238Y-85167380D01*
X136445238Y-85167380D02*
X136588095Y-85215000D01*
X136588095Y-85215000D02*
X136635714Y-85262619D01*
X137254762Y-85167380D02*
X137445238Y-85167380D01*
X137445238Y-85167380D02*
X137540476Y-85215000D01*
X137540476Y-85215000D02*
X137635714Y-85310238D01*
X137635714Y-85310238D02*
X137683333Y-85500714D01*
X137683333Y-85500714D02*
X137683333Y-85834047D01*
X137683333Y-85834047D02*
X137635714Y-86024523D01*
X137635714Y-86024523D02*
X137540476Y-86119761D01*
X137540476Y-86119761D02*
X137445238Y-86167380D01*
X137445238Y-86167380D02*
X137254762Y-86167380D01*
X137254762Y-86167380D02*
X137159524Y-86119761D01*
X137159524Y-86119761D02*
X137064286Y-86024523D01*
X137064286Y-86024523D02*
X137016667Y-85834047D01*
X137016667Y-85834047D02*
X137016667Y-85500714D01*
X137016667Y-85500714D02*
X137064286Y-85310238D01*
X137064286Y-85310238D02*
X137159524Y-85215000D01*
X137159524Y-85215000D02*
X137254762Y-85167380D01*
X138111905Y-86167380D02*
X138111905Y-85167380D01*
X138111905Y-85167380D02*
X138683333Y-86167380D01*
X138683333Y-86167380D02*
X138683333Y-85167380D01*
X139111905Y-85262619D02*
X139159524Y-85215000D01*
X139159524Y-85215000D02*
X139254762Y-85167380D01*
X139254762Y-85167380D02*
X139492857Y-85167380D01*
X139492857Y-85167380D02*
X139588095Y-85215000D01*
X139588095Y-85215000D02*
X139635714Y-85262619D01*
X139635714Y-85262619D02*
X139683333Y-85357857D01*
X139683333Y-85357857D02*
X139683333Y-85453095D01*
X139683333Y-85453095D02*
X139635714Y-85595952D01*
X139635714Y-85595952D02*
X139064286Y-86167380D01*
X139064286Y-86167380D02*
X139683333Y-86167380D01*
X127476666Y-140287380D02*
X127476666Y-141001666D01*
X127476666Y-141001666D02*
X127429047Y-141144523D01*
X127429047Y-141144523D02*
X127333809Y-141239761D01*
X127333809Y-141239761D02*
X127190952Y-141287380D01*
X127190952Y-141287380D02*
X127095714Y-141287380D01*
X127905238Y-140382619D02*
X127952857Y-140335000D01*
X127952857Y-140335000D02*
X128048095Y-140287380D01*
X128048095Y-140287380D02*
X128286190Y-140287380D01*
X128286190Y-140287380D02*
X128381428Y-140335000D01*
X128381428Y-140335000D02*
X128429047Y-140382619D01*
X128429047Y-140382619D02*
X128476666Y-140477857D01*
X128476666Y-140477857D02*
X128476666Y-140573095D01*
X128476666Y-140573095D02*
X128429047Y-140715952D01*
X128429047Y-140715952D02*
X127857619Y-141287380D01*
X127857619Y-141287380D02*
X128476666Y-141287380D01*
X136645714Y-141102142D02*
X136598095Y-141149761D01*
X136598095Y-141149761D02*
X136455238Y-141197380D01*
X136455238Y-141197380D02*
X136360000Y-141197380D01*
X136360000Y-141197380D02*
X136217143Y-141149761D01*
X136217143Y-141149761D02*
X136121905Y-141054523D01*
X136121905Y-141054523D02*
X136074286Y-140959285D01*
X136074286Y-140959285D02*
X136026667Y-140768809D01*
X136026667Y-140768809D02*
X136026667Y-140625952D01*
X136026667Y-140625952D02*
X136074286Y-140435476D01*
X136074286Y-140435476D02*
X136121905Y-140340238D01*
X136121905Y-140340238D02*
X136217143Y-140245000D01*
X136217143Y-140245000D02*
X136360000Y-140197380D01*
X136360000Y-140197380D02*
X136455238Y-140197380D01*
X136455238Y-140197380D02*
X136598095Y-140245000D01*
X136598095Y-140245000D02*
X136645714Y-140292619D01*
X137264762Y-140197380D02*
X137455238Y-140197380D01*
X137455238Y-140197380D02*
X137550476Y-140245000D01*
X137550476Y-140245000D02*
X137645714Y-140340238D01*
X137645714Y-140340238D02*
X137693333Y-140530714D01*
X137693333Y-140530714D02*
X137693333Y-140864047D01*
X137693333Y-140864047D02*
X137645714Y-141054523D01*
X137645714Y-141054523D02*
X137550476Y-141149761D01*
X137550476Y-141149761D02*
X137455238Y-141197380D01*
X137455238Y-141197380D02*
X137264762Y-141197380D01*
X137264762Y-141197380D02*
X137169524Y-141149761D01*
X137169524Y-141149761D02*
X137074286Y-141054523D01*
X137074286Y-141054523D02*
X137026667Y-140864047D01*
X137026667Y-140864047D02*
X137026667Y-140530714D01*
X137026667Y-140530714D02*
X137074286Y-140340238D01*
X137074286Y-140340238D02*
X137169524Y-140245000D01*
X137169524Y-140245000D02*
X137264762Y-140197380D01*
X138121905Y-141197380D02*
X138121905Y-140197380D01*
X138121905Y-140197380D02*
X138693333Y-141197380D01*
X138693333Y-141197380D02*
X138693333Y-140197380D01*
X139074286Y-140197380D02*
X139693333Y-140197380D01*
X139693333Y-140197380D02*
X139360000Y-140578333D01*
X139360000Y-140578333D02*
X139502857Y-140578333D01*
X139502857Y-140578333D02*
X139598095Y-140625952D01*
X139598095Y-140625952D02*
X139645714Y-140673571D01*
X139645714Y-140673571D02*
X139693333Y-140768809D01*
X139693333Y-140768809D02*
X139693333Y-141006904D01*
X139693333Y-141006904D02*
X139645714Y-141102142D01*
X139645714Y-141102142D02*
X139598095Y-141149761D01*
X139598095Y-141149761D02*
X139502857Y-141197380D01*
X139502857Y-141197380D02*
X139217143Y-141197380D01*
X139217143Y-141197380D02*
X139121905Y-141149761D01*
X139121905Y-141149761D02*
X139074286Y-141102142D01*
D10*
X145885000Y-98884564D02*
X145885000Y-98430436D01*
X147355000Y-98884564D02*
X147355000Y-98430436D01*
X132605000Y-98430436D02*
X132605000Y-98884564D01*
X131135000Y-98430436D02*
X131135000Y-98884564D01*
X138535000Y-128032936D02*
X138535000Y-128487064D01*
X137065000Y-128032936D02*
X137065000Y-128487064D01*
X130635000Y-88444564D02*
X130635000Y-87990436D01*
X132105000Y-88444564D02*
X132105000Y-87990436D01*
X138415000Y-91997500D02*
X136945000Y-91997500D01*
X136945000Y-91997500D02*
X136945000Y-94282500D01*
X138415000Y-94282500D02*
X138415000Y-91997500D01*
X141535000Y-94927500D02*
X143005000Y-94927500D01*
X143005000Y-94927500D02*
X143005000Y-92642500D01*
X141535000Y-92642500D02*
X141535000Y-94927500D01*
X135555000Y-98430436D02*
X135555000Y-98884564D01*
X134085000Y-98430436D02*
X134085000Y-98884564D01*
X129655000Y-98430436D02*
X129655000Y-98884564D01*
X128185000Y-98430436D02*
X128185000Y-98884564D01*
X129685000Y-128032936D02*
X129685000Y-128487064D01*
X128215000Y-128032936D02*
X128215000Y-128487064D01*
X132355000Y-94927500D02*
X133825000Y-94927500D01*
X133825000Y-94927500D02*
X133825000Y-92642500D01*
X132355000Y-92642500D02*
X132355000Y-94927500D01*
X144435000Y-128032936D02*
X144435000Y-128487064D01*
X142965000Y-128032936D02*
X142965000Y-128487064D01*
X139985000Y-98884564D02*
X139985000Y-98430436D01*
X141455000Y-98884564D02*
X141455000Y-98430436D01*
X142935000Y-98884564D02*
X142935000Y-98430436D01*
X144405000Y-98884564D02*
X144405000Y-98430436D01*
X135585000Y-128032936D02*
X135585000Y-128487064D01*
X134115000Y-128032936D02*
X134115000Y-128487064D01*
X128695000Y-105515000D02*
X128695000Y-122765000D01*
X128695000Y-122765000D02*
X146945000Y-122765000D01*
X129695000Y-104515000D02*
X128695000Y-105515000D01*
X136820000Y-104515000D02*
X129695000Y-104515000D01*
X146945000Y-104515000D02*
X138820000Y-104515000D01*
X146945000Y-122765000D02*
X146945000Y-104515000D01*
X137035000Y-98884564D02*
X137035000Y-98430436D01*
X138505000Y-98884564D02*
X138505000Y-98430436D01*
X147385000Y-128032936D02*
X147385000Y-128487064D01*
X145915000Y-128032936D02*
X145915000Y-128487064D01*
X141485000Y-128032936D02*
X141485000Y-128487064D01*
X140015000Y-128032936D02*
X140015000Y-128487064D01*
X143858748Y-87485000D02*
X144381252Y-87485000D01*
X143858748Y-88955000D02*
X144381252Y-88955000D01*
X132635000Y-128032936D02*
X132635000Y-128487064D01*
X131165000Y-128032936D02*
X131165000Y-128487064D01*
M02*
