G04 #@! TF.GenerationSoftware,KiCad,Pcbnew,(7.0.0-0)*
G04 #@! TF.CreationDate,2023-04-18T09:29:12+01:00*
G04 #@! TF.ProjectId,GAL26Adapter,47414c32-3641-4646-9170-7465722e6b69,rev?*
G04 #@! TF.SameCoordinates,Original*
G04 #@! TF.FileFunction,Legend,Bot*
G04 #@! TF.FilePolarity,Positive*
%FSLAX46Y46*%
G04 Gerber Fmt 4.6, Leading zero omitted, Abs format (unit mm)*
G04 Created by KiCad (PCBNEW (7.0.0-0)) date 2023-04-18 09:29:12*
%MOMM*%
%LPD*%
G01*
G04 APERTURE LIST*
%ADD10C,0.100000*%
%ADD11C,0.120000*%
G04 APERTURE END LIST*
D10*
X143701428Y-140937809D02*
X143777619Y-140975904D01*
X143777619Y-140975904D02*
X143930000Y-140975904D01*
X143930000Y-140975904D02*
X144006190Y-140937809D01*
X144006190Y-140937809D02*
X144044286Y-140861619D01*
X144044286Y-140861619D02*
X144044286Y-140556857D01*
X144044286Y-140556857D02*
X144006190Y-140480666D01*
X144006190Y-140480666D02*
X143930000Y-140442571D01*
X143930000Y-140442571D02*
X143777619Y-140442571D01*
X143777619Y-140442571D02*
X143701428Y-140480666D01*
X143701428Y-140480666D02*
X143663333Y-140556857D01*
X143663333Y-140556857D02*
X143663333Y-140633047D01*
X143663333Y-140633047D02*
X144044286Y-140709238D01*
X143320476Y-140442571D02*
X143320476Y-140975904D01*
X143320476Y-140518761D02*
X143282381Y-140480666D01*
X143282381Y-140480666D02*
X143206191Y-140442571D01*
X143206191Y-140442571D02*
X143091905Y-140442571D01*
X143091905Y-140442571D02*
X143015714Y-140480666D01*
X143015714Y-140480666D02*
X142977619Y-140556857D01*
X142977619Y-140556857D02*
X142977619Y-140975904D01*
X142253809Y-140442571D02*
X142253809Y-141090190D01*
X142253809Y-141090190D02*
X142291904Y-141166380D01*
X142291904Y-141166380D02*
X142330000Y-141204476D01*
X142330000Y-141204476D02*
X142406190Y-141242571D01*
X142406190Y-141242571D02*
X142520476Y-141242571D01*
X142520476Y-141242571D02*
X142596666Y-141204476D01*
X142253809Y-140937809D02*
X142330000Y-140975904D01*
X142330000Y-140975904D02*
X142482381Y-140975904D01*
X142482381Y-140975904D02*
X142558571Y-140937809D01*
X142558571Y-140937809D02*
X142596666Y-140899714D01*
X142596666Y-140899714D02*
X142634762Y-140823523D01*
X142634762Y-140823523D02*
X142634762Y-140594952D01*
X142634762Y-140594952D02*
X142596666Y-140518761D01*
X142596666Y-140518761D02*
X142558571Y-140480666D01*
X142558571Y-140480666D02*
X142482381Y-140442571D01*
X142482381Y-140442571D02*
X142330000Y-140442571D01*
X142330000Y-140442571D02*
X142253809Y-140480666D01*
X141872856Y-140975904D02*
X141872856Y-140442571D01*
X141872856Y-140175904D02*
X141910952Y-140214000D01*
X141910952Y-140214000D02*
X141872856Y-140252095D01*
X141872856Y-140252095D02*
X141834761Y-140214000D01*
X141834761Y-140214000D02*
X141872856Y-140175904D01*
X141872856Y-140175904D02*
X141872856Y-140252095D01*
X141491904Y-140442571D02*
X141491904Y-140975904D01*
X141491904Y-140518761D02*
X141453809Y-140480666D01*
X141453809Y-140480666D02*
X141377619Y-140442571D01*
X141377619Y-140442571D02*
X141263333Y-140442571D01*
X141263333Y-140442571D02*
X141187142Y-140480666D01*
X141187142Y-140480666D02*
X141149047Y-140556857D01*
X141149047Y-140556857D02*
X141149047Y-140975904D01*
X140463332Y-140937809D02*
X140539523Y-140975904D01*
X140539523Y-140975904D02*
X140691904Y-140975904D01*
X140691904Y-140975904D02*
X140768094Y-140937809D01*
X140768094Y-140937809D02*
X140806190Y-140861619D01*
X140806190Y-140861619D02*
X140806190Y-140556857D01*
X140806190Y-140556857D02*
X140768094Y-140480666D01*
X140768094Y-140480666D02*
X140691904Y-140442571D01*
X140691904Y-140442571D02*
X140539523Y-140442571D01*
X140539523Y-140442571D02*
X140463332Y-140480666D01*
X140463332Y-140480666D02*
X140425237Y-140556857D01*
X140425237Y-140556857D02*
X140425237Y-140633047D01*
X140425237Y-140633047D02*
X140806190Y-140709238D01*
X139777618Y-140937809D02*
X139853809Y-140975904D01*
X139853809Y-140975904D02*
X140006190Y-140975904D01*
X140006190Y-140975904D02*
X140082380Y-140937809D01*
X140082380Y-140937809D02*
X140120476Y-140861619D01*
X140120476Y-140861619D02*
X140120476Y-140556857D01*
X140120476Y-140556857D02*
X140082380Y-140480666D01*
X140082380Y-140480666D02*
X140006190Y-140442571D01*
X140006190Y-140442571D02*
X139853809Y-140442571D01*
X139853809Y-140442571D02*
X139777618Y-140480666D01*
X139777618Y-140480666D02*
X139739523Y-140556857D01*
X139739523Y-140556857D02*
X139739523Y-140633047D01*
X139739523Y-140633047D02*
X140120476Y-140709238D01*
X139396666Y-140975904D02*
X139396666Y-140442571D01*
X139396666Y-140594952D02*
X139358571Y-140518761D01*
X139358571Y-140518761D02*
X139320476Y-140480666D01*
X139320476Y-140480666D02*
X139244285Y-140442571D01*
X139244285Y-140442571D02*
X139168095Y-140442571D01*
X138939524Y-140937809D02*
X138863333Y-140975904D01*
X138863333Y-140975904D02*
X138710952Y-140975904D01*
X138710952Y-140975904D02*
X138634762Y-140937809D01*
X138634762Y-140937809D02*
X138596666Y-140861619D01*
X138596666Y-140861619D02*
X138596666Y-140823523D01*
X138596666Y-140823523D02*
X138634762Y-140747333D01*
X138634762Y-140747333D02*
X138710952Y-140709238D01*
X138710952Y-140709238D02*
X138825238Y-140709238D01*
X138825238Y-140709238D02*
X138901428Y-140671142D01*
X138901428Y-140671142D02*
X138939524Y-140594952D01*
X138939524Y-140594952D02*
X138939524Y-140556857D01*
X138939524Y-140556857D02*
X138901428Y-140480666D01*
X138901428Y-140480666D02*
X138825238Y-140442571D01*
X138825238Y-140442571D02*
X138710952Y-140442571D01*
X138710952Y-140442571D02*
X138634762Y-140480666D01*
X137758571Y-140594952D02*
X137796666Y-140556857D01*
X137796666Y-140556857D02*
X137872857Y-140518761D01*
X137872857Y-140518761D02*
X137949047Y-140518761D01*
X137949047Y-140518761D02*
X138025238Y-140556857D01*
X138025238Y-140556857D02*
X138063333Y-140594952D01*
X138063333Y-140594952D02*
X138101428Y-140671142D01*
X138101428Y-140671142D02*
X138101428Y-140747333D01*
X138101428Y-140747333D02*
X138063333Y-140823523D01*
X138063333Y-140823523D02*
X138025238Y-140861619D01*
X138025238Y-140861619D02*
X137949047Y-140899714D01*
X137949047Y-140899714D02*
X137872857Y-140899714D01*
X137872857Y-140899714D02*
X137796666Y-140861619D01*
X137796666Y-140861619D02*
X137758571Y-140823523D01*
X137758571Y-140518761D02*
X137758571Y-140823523D01*
X137758571Y-140823523D02*
X137720476Y-140861619D01*
X137720476Y-140861619D02*
X137682381Y-140861619D01*
X137682381Y-140861619D02*
X137606190Y-140823523D01*
X137606190Y-140823523D02*
X137568095Y-140747333D01*
X137568095Y-140747333D02*
X137568095Y-140556857D01*
X137568095Y-140556857D02*
X137644286Y-140442571D01*
X137644286Y-140442571D02*
X137758571Y-140366380D01*
X137758571Y-140366380D02*
X137910952Y-140328285D01*
X137910952Y-140328285D02*
X138063333Y-140366380D01*
X138063333Y-140366380D02*
X138177619Y-140442571D01*
X138177619Y-140442571D02*
X138253809Y-140556857D01*
X138253809Y-140556857D02*
X138291905Y-140709238D01*
X138291905Y-140709238D02*
X138253809Y-140861619D01*
X138253809Y-140861619D02*
X138177619Y-140975904D01*
X138177619Y-140975904D02*
X138063333Y-141052095D01*
X138063333Y-141052095D02*
X137910952Y-141090190D01*
X137910952Y-141090190D02*
X137758571Y-141052095D01*
X137758571Y-141052095D02*
X137644286Y-140975904D01*
X137301429Y-140442571D02*
X137149048Y-140975904D01*
X137149048Y-140975904D02*
X136996667Y-140594952D01*
X136996667Y-140594952D02*
X136844286Y-140975904D01*
X136844286Y-140975904D02*
X136691905Y-140442571D01*
X136272858Y-140975904D02*
X136349048Y-140937809D01*
X136349048Y-140937809D02*
X136387143Y-140899714D01*
X136387143Y-140899714D02*
X136425239Y-140823523D01*
X136425239Y-140823523D02*
X136425239Y-140594952D01*
X136425239Y-140594952D02*
X136387143Y-140518761D01*
X136387143Y-140518761D02*
X136349048Y-140480666D01*
X136349048Y-140480666D02*
X136272858Y-140442571D01*
X136272858Y-140442571D02*
X136158572Y-140442571D01*
X136158572Y-140442571D02*
X136082381Y-140480666D01*
X136082381Y-140480666D02*
X136044286Y-140518761D01*
X136044286Y-140518761D02*
X136006191Y-140594952D01*
X136006191Y-140594952D02*
X136006191Y-140823523D01*
X136006191Y-140823523D02*
X136044286Y-140899714D01*
X136044286Y-140899714D02*
X136082381Y-140937809D01*
X136082381Y-140937809D02*
X136158572Y-140975904D01*
X136158572Y-140975904D02*
X136272858Y-140975904D01*
X135663333Y-140975904D02*
X135663333Y-140442571D01*
X135663333Y-140594952D02*
X135625238Y-140518761D01*
X135625238Y-140518761D02*
X135587143Y-140480666D01*
X135587143Y-140480666D02*
X135510952Y-140442571D01*
X135510952Y-140442571D02*
X135434762Y-140442571D01*
X135168095Y-140975904D02*
X135168095Y-140175904D01*
X135091905Y-140671142D02*
X134863333Y-140975904D01*
X134863333Y-140442571D02*
X135168095Y-140747333D01*
X134078572Y-140252095D02*
X134040476Y-140214000D01*
X134040476Y-140214000D02*
X133964286Y-140175904D01*
X133964286Y-140175904D02*
X133773810Y-140175904D01*
X133773810Y-140175904D02*
X133697619Y-140214000D01*
X133697619Y-140214000D02*
X133659524Y-140252095D01*
X133659524Y-140252095D02*
X133621429Y-140328285D01*
X133621429Y-140328285D02*
X133621429Y-140404476D01*
X133621429Y-140404476D02*
X133659524Y-140518761D01*
X133659524Y-140518761D02*
X134116667Y-140975904D01*
X134116667Y-140975904D02*
X133621429Y-140975904D01*
X133126190Y-140175904D02*
X133050000Y-140175904D01*
X133050000Y-140175904D02*
X132973809Y-140214000D01*
X132973809Y-140214000D02*
X132935714Y-140252095D01*
X132935714Y-140252095D02*
X132897619Y-140328285D01*
X132897619Y-140328285D02*
X132859524Y-140480666D01*
X132859524Y-140480666D02*
X132859524Y-140671142D01*
X132859524Y-140671142D02*
X132897619Y-140823523D01*
X132897619Y-140823523D02*
X132935714Y-140899714D01*
X132935714Y-140899714D02*
X132973809Y-140937809D01*
X132973809Y-140937809D02*
X133050000Y-140975904D01*
X133050000Y-140975904D02*
X133126190Y-140975904D01*
X133126190Y-140975904D02*
X133202381Y-140937809D01*
X133202381Y-140937809D02*
X133240476Y-140899714D01*
X133240476Y-140899714D02*
X133278571Y-140823523D01*
X133278571Y-140823523D02*
X133316667Y-140671142D01*
X133316667Y-140671142D02*
X133316667Y-140480666D01*
X133316667Y-140480666D02*
X133278571Y-140328285D01*
X133278571Y-140328285D02*
X133240476Y-140252095D01*
X133240476Y-140252095D02*
X133202381Y-140214000D01*
X133202381Y-140214000D02*
X133126190Y-140175904D01*
X132554762Y-140252095D02*
X132516666Y-140214000D01*
X132516666Y-140214000D02*
X132440476Y-140175904D01*
X132440476Y-140175904D02*
X132250000Y-140175904D01*
X132250000Y-140175904D02*
X132173809Y-140214000D01*
X132173809Y-140214000D02*
X132135714Y-140252095D01*
X132135714Y-140252095D02*
X132097619Y-140328285D01*
X132097619Y-140328285D02*
X132097619Y-140404476D01*
X132097619Y-140404476D02*
X132135714Y-140518761D01*
X132135714Y-140518761D02*
X132592857Y-140975904D01*
X132592857Y-140975904D02*
X132097619Y-140975904D01*
X131830952Y-140175904D02*
X131335714Y-140175904D01*
X131335714Y-140175904D02*
X131602380Y-140480666D01*
X131602380Y-140480666D02*
X131488095Y-140480666D01*
X131488095Y-140480666D02*
X131411904Y-140518761D01*
X131411904Y-140518761D02*
X131373809Y-140556857D01*
X131373809Y-140556857D02*
X131335714Y-140633047D01*
X131335714Y-140633047D02*
X131335714Y-140823523D01*
X131335714Y-140823523D02*
X131373809Y-140899714D01*
X131373809Y-140899714D02*
X131411904Y-140937809D01*
X131411904Y-140937809D02*
X131488095Y-140975904D01*
X131488095Y-140975904D02*
X131716666Y-140975904D01*
X131716666Y-140975904D02*
X131792857Y-140937809D01*
X131792857Y-140937809D02*
X131830952Y-140899714D01*
D11*
X148020000Y-78900000D02*
X148020000Y-84100000D01*
X130180000Y-78900000D02*
X148020000Y-78900000D01*
X130180000Y-78900000D02*
X130180000Y-81500000D01*
X128910000Y-78900000D02*
X127580000Y-78900000D01*
X127580000Y-78900000D02*
X127580000Y-80230000D01*
X130180000Y-81500000D02*
X127580000Y-81500000D01*
X127580000Y-81500000D02*
X127580000Y-84100000D01*
X127580000Y-84100000D02*
X148020000Y-84100000D01*
X148020000Y-142400000D02*
X148020000Y-147600000D01*
X130180000Y-142400000D02*
X148020000Y-142400000D01*
X130180000Y-142400000D02*
X130180000Y-145000000D01*
X128910000Y-142400000D02*
X127580000Y-142400000D01*
X127580000Y-142400000D02*
X127580000Y-143730000D01*
X130180000Y-145000000D02*
X127580000Y-145000000D01*
X127580000Y-145000000D02*
X127580000Y-147600000D01*
X127580000Y-147600000D02*
X148020000Y-147600000D01*
M02*
