G04 #@! TF.GenerationSoftware,KiCad,Pcbnew,(7.0.0-0)*
G04 #@! TF.CreationDate,2023-04-18T09:29:12+01:00*
G04 #@! TF.ProjectId,GAL26Adapter,47414c32-3641-4646-9170-7465722e6b69,rev?*
G04 #@! TF.SameCoordinates,Original*
G04 #@! TF.FileFunction,Copper,L2,Bot*
G04 #@! TF.FilePolarity,Positive*
%FSLAX46Y46*%
G04 Gerber Fmt 4.6, Leading zero omitted, Abs format (unit mm)*
G04 Created by KiCad (PCBNEW (7.0.0-0)) date 2023-04-18 09:29:12*
%MOMM*%
%LPD*%
G01*
G04 APERTURE LIST*
G04 #@! TA.AperFunction,ComponentPad*
%ADD10R,1.422400X1.422400*%
G04 #@! TD*
G04 #@! TA.AperFunction,ComponentPad*
%ADD11C,1.422400*%
G04 #@! TD*
G04 #@! TA.AperFunction,ComponentPad*
%ADD12R,1.700000X1.700000*%
G04 #@! TD*
G04 #@! TA.AperFunction,ComponentPad*
%ADD13O,1.700000X1.700000*%
G04 #@! TD*
G04 #@! TA.AperFunction,ViaPad*
%ADD14C,0.800000*%
G04 #@! TD*
G04 #@! TA.AperFunction,Conductor*
%ADD15C,0.250000*%
G04 #@! TD*
G04 APERTURE END LIST*
D10*
X139089999Y-109829999D03*
D11*
X136550000Y-107290000D03*
X136550000Y-109830000D03*
X134010000Y-107290000D03*
X131470000Y-109830000D03*
X134010000Y-109830000D03*
X131470000Y-112370000D03*
X134010000Y-112370000D03*
X131470000Y-114910000D03*
X134010000Y-114910000D03*
X131470000Y-117450000D03*
X134010000Y-119990000D03*
X134010000Y-117450000D03*
X136550000Y-119990000D03*
X136550000Y-117450000D03*
X139090000Y-119990000D03*
X139090000Y-117450000D03*
X141630000Y-119990000D03*
X144170000Y-117450000D03*
X141630000Y-117450000D03*
X144170000Y-114910000D03*
X141630000Y-114910000D03*
X144170000Y-112370000D03*
X141630000Y-112370000D03*
X144170000Y-109830000D03*
X141630000Y-107290000D03*
X141630000Y-109830000D03*
X139090000Y-107290000D03*
D12*
X128909999Y-80229999D03*
D13*
X128909999Y-82769999D03*
X131449999Y-80229999D03*
X131449999Y-82769999D03*
X133989999Y-80229999D03*
X133989999Y-82769999D03*
X136529999Y-80229999D03*
X136529999Y-82769999D03*
X139069999Y-80229999D03*
X139069999Y-82769999D03*
X141609999Y-80229999D03*
X141609999Y-82769999D03*
X144149999Y-80229999D03*
X144149999Y-82769999D03*
X146689999Y-80229999D03*
X146689999Y-82769999D03*
D12*
X128909999Y-143729999D03*
D13*
X128909999Y-146269999D03*
X131449999Y-143729999D03*
X131449999Y-146269999D03*
X133989999Y-143729999D03*
X133989999Y-146269999D03*
X136529999Y-143729999D03*
X136529999Y-146269999D03*
X139069999Y-143729999D03*
X139069999Y-146269999D03*
X141609999Y-143729999D03*
X141609999Y-146269999D03*
X144149999Y-143729999D03*
X144149999Y-146269999D03*
X146689999Y-143729999D03*
X146689999Y-146269999D03*
D14*
X139575200Y-130669300D03*
X133481100Y-124004200D03*
X140434700Y-132591200D03*
X129900000Y-121620000D03*
X134370000Y-132030000D03*
X139620000Y-113370000D03*
X136210000Y-113290000D03*
X142420000Y-126770000D03*
X137630000Y-103820000D03*
X134630000Y-139310000D03*
X129250000Y-117280000D03*
X130360000Y-106110000D03*
D15*
X131450000Y-82770000D02*
X131450000Y-83945300D01*
X131450000Y-83945300D02*
X136550000Y-89045300D01*
X136550000Y-89045300D02*
X136550000Y-107290000D01*
X132305400Y-139338800D02*
X132305400Y-119154600D01*
X132690000Y-144420000D02*
X132690000Y-139723400D01*
X132204700Y-144905300D02*
X132690000Y-144420000D01*
X130085300Y-144905300D02*
X132204700Y-144905300D01*
X132305400Y-119154600D02*
X134010000Y-117450000D01*
X128910000Y-143730000D02*
X130085300Y-144905300D01*
X132690000Y-139723400D02*
X132305400Y-139338800D01*
X130870600Y-116020600D02*
X131860600Y-116020600D01*
X130970000Y-111100000D02*
X130240000Y-111830000D01*
X130240000Y-115390000D02*
X130870600Y-116020600D01*
X132670000Y-110510000D02*
X132080000Y-111100000D01*
X132506600Y-116666600D02*
X132506600Y-118105800D01*
X131450000Y-119162400D02*
X131450000Y-143730000D01*
X132670000Y-108630000D02*
X132670000Y-110510000D01*
X134010000Y-107290000D02*
X132670000Y-108630000D01*
X132506600Y-118105800D02*
X131450000Y-119162400D01*
X132080000Y-111100000D02*
X130970000Y-111100000D01*
X131860600Y-116020600D02*
X132506600Y-116666600D01*
X130240000Y-111830000D02*
X130240000Y-115390000D01*
X132770000Y-115234500D02*
X133645100Y-116109600D01*
X134429600Y-116109600D02*
X135046600Y-116726600D01*
X134480000Y-118720000D02*
X133803100Y-118720000D01*
X132755800Y-119767300D02*
X132755800Y-138780500D01*
X136530000Y-142554700D02*
X136530000Y-143730000D01*
X135046600Y-118153400D02*
X134480000Y-118720000D01*
X133645100Y-116109600D02*
X134429600Y-116109600D01*
X134010000Y-109830000D02*
X132770000Y-111070000D01*
X132755800Y-138780500D02*
X136530000Y-142554700D01*
X133803100Y-118720000D02*
X132755800Y-119767300D01*
X135046600Y-116726600D02*
X135046600Y-118153400D01*
X132770000Y-111070000D02*
X132770000Y-115234500D01*
X138040800Y-111320800D02*
X138040800Y-129134900D01*
X138040800Y-129134900D02*
X139575200Y-130669300D01*
X136550000Y-109830000D02*
X138040800Y-111320800D01*
X133481100Y-136965800D02*
X139070000Y-142554700D01*
X133481100Y-124004200D02*
X133481100Y-136965800D01*
X139070000Y-143730000D02*
X139070000Y-142554700D01*
X147873000Y-144477000D02*
X147873000Y-141933000D01*
X143195300Y-142554700D02*
X144954700Y-142554700D01*
X147444600Y-144905400D02*
X147873000Y-144477000D01*
X145420000Y-143020000D02*
X145420000Y-144161000D01*
X135513300Y-129573300D02*
X135513300Y-116413300D01*
X135513300Y-116413300D02*
X134010000Y-114910000D01*
X147873000Y-141933000D02*
X135513300Y-129573300D01*
X144954700Y-142554700D02*
X145420000Y-143020000D01*
X146164400Y-144905400D02*
X147444600Y-144905400D01*
X141610000Y-143730000D02*
X142020000Y-143730000D01*
X142020000Y-143730000D02*
X143195300Y-142554700D01*
X145420000Y-144161000D02*
X146164400Y-144905400D01*
X136550000Y-117450000D02*
X137586500Y-118486500D01*
X137586500Y-118486500D02*
X137586500Y-129743000D01*
X137586500Y-129743000D02*
X140434700Y-132591200D01*
X130180000Y-146722000D02*
X130917200Y-147459200D01*
X127734600Y-144761100D02*
X127973500Y-145000000D01*
X127734600Y-121185400D02*
X127734600Y-144761100D01*
X131470000Y-117450000D02*
X127734600Y-121185400D01*
X127973500Y-145000000D02*
X129388300Y-145000000D01*
X142860000Y-145827900D02*
X144150000Y-144537900D01*
X144150000Y-144537900D02*
X144150000Y-143730000D01*
X142860000Y-146850000D02*
X142860000Y-145827900D01*
X142250800Y-147459200D02*
X142860000Y-146850000D01*
X130917200Y-147459200D02*
X142250800Y-147459200D01*
X129388300Y-145000000D02*
X130180000Y-145791700D01*
X130180000Y-145791700D02*
X130180000Y-146722000D01*
X146690000Y-142554700D02*
X134206400Y-130071100D01*
X134206400Y-120186400D02*
X134010000Y-119990000D01*
X146690000Y-143730000D02*
X146690000Y-142554700D01*
X134206400Y-130071100D02*
X134206400Y-120186400D01*
G04 #@! TA.AperFunction,Conductor*
G36*
X133968918Y-130313057D02*
G01*
X134018281Y-130343307D01*
X146261463Y-142586490D01*
X146291523Y-142635274D01*
X146296440Y-142692365D01*
X146275163Y-142745570D01*
X146232236Y-142783529D01*
X146108920Y-142849444D01*
X146108915Y-142849447D01*
X146103550Y-142852315D01*
X146098846Y-142856174D01*
X146098842Y-142856178D01*
X145948299Y-142979724D01*
X145948290Y-142979732D01*
X145943590Y-142983590D01*
X145941615Y-142985996D01*
X145884349Y-143018227D01*
X145817588Y-143016038D01*
X145761649Y-142979533D01*
X145736755Y-142927625D01*
X145736182Y-142927834D01*
X145734062Y-142922009D01*
X145732765Y-142919306D01*
X145730588Y-142906955D01*
X145725160Y-142897555D01*
X145723910Y-142894119D01*
X145722363Y-142890801D01*
X145719554Y-142880316D01*
X145699948Y-142852315D01*
X145697892Y-142849379D01*
X145692080Y-142840257D01*
X145673194Y-142807545D01*
X145664881Y-142800570D01*
X145664880Y-142800568D01*
X145644255Y-142783262D01*
X145636280Y-142775954D01*
X145198743Y-142338417D01*
X145191434Y-142330441D01*
X145174126Y-142309814D01*
X145167155Y-142301506D01*
X145157762Y-142296083D01*
X145157760Y-142296081D01*
X145134435Y-142282614D01*
X145125327Y-142276812D01*
X145094384Y-142255146D01*
X145083906Y-142252338D01*
X145080573Y-142250784D01*
X145077132Y-142249531D01*
X145067745Y-142244112D01*
X145057066Y-142242228D01*
X145057061Y-142242227D01*
X145030552Y-142237552D01*
X145019997Y-142235213D01*
X144993983Y-142228243D01*
X144983507Y-142225436D01*
X144972703Y-142226381D01*
X144972700Y-142226381D01*
X144945881Y-142228728D01*
X144935073Y-142229200D01*
X143214919Y-142229200D01*
X143204112Y-142228728D01*
X143177300Y-142226382D01*
X143177297Y-142226382D01*
X143166493Y-142225437D01*
X143156017Y-142228243D01*
X143156015Y-142228244D01*
X143130010Y-142235212D01*
X143119455Y-142237552D01*
X143092936Y-142242228D01*
X143092933Y-142242229D01*
X143082255Y-142244112D01*
X143072866Y-142249531D01*
X143069418Y-142250787D01*
X143066089Y-142252339D01*
X143055616Y-142255146D01*
X143046730Y-142261367D01*
X143046725Y-142261370D01*
X143024676Y-142276808D01*
X143015563Y-142282614D01*
X142992240Y-142296080D01*
X142992233Y-142296085D01*
X142982845Y-142301506D01*
X142975874Y-142309813D01*
X142975872Y-142309815D01*
X142958562Y-142330443D01*
X142951256Y-142338415D01*
X142408237Y-142881434D01*
X142356552Y-142912414D01*
X142296365Y-142915370D01*
X142241892Y-142889607D01*
X142201164Y-142856182D01*
X142201153Y-142856174D01*
X142196450Y-142852315D01*
X142173891Y-142840257D01*
X142019328Y-142757640D01*
X142019321Y-142757637D01*
X142013954Y-142754768D01*
X141935502Y-142730970D01*
X141821764Y-142696468D01*
X141821759Y-142696467D01*
X141815934Y-142694700D01*
X141809875Y-142694103D01*
X141809869Y-142694102D01*
X141616061Y-142675014D01*
X141610000Y-142674417D01*
X141603939Y-142675014D01*
X141410130Y-142694102D01*
X141410122Y-142694103D01*
X141404066Y-142694700D01*
X141398242Y-142696466D01*
X141398235Y-142696468D01*
X141211877Y-142752999D01*
X141211875Y-142752999D01*
X141206046Y-142754768D01*
X141200679Y-142757636D01*
X141200671Y-142757640D01*
X141028920Y-142849444D01*
X141028915Y-142849447D01*
X141023550Y-142852315D01*
X141018846Y-142856174D01*
X141018842Y-142856178D01*
X140868296Y-142979727D01*
X140868290Y-142979732D01*
X140863590Y-142983590D01*
X140859732Y-142988290D01*
X140859727Y-142988296D01*
X140736178Y-143138842D01*
X140736174Y-143138846D01*
X140732315Y-143143550D01*
X140729447Y-143148915D01*
X140729444Y-143148920D01*
X140637640Y-143320671D01*
X140637636Y-143320679D01*
X140634768Y-143326046D01*
X140632999Y-143331875D01*
X140632999Y-143331877D01*
X140576468Y-143518235D01*
X140576466Y-143518242D01*
X140574700Y-143524066D01*
X140574103Y-143530122D01*
X140574102Y-143530130D01*
X140565279Y-143619718D01*
X140554417Y-143730000D01*
X140555014Y-143736061D01*
X140574102Y-143929869D01*
X140574103Y-143929875D01*
X140574700Y-143935934D01*
X140634768Y-144133954D01*
X140732315Y-144316450D01*
X140863590Y-144476410D01*
X141023550Y-144607685D01*
X141206046Y-144705232D01*
X141404066Y-144765300D01*
X141610000Y-144785583D01*
X141815934Y-144765300D01*
X142013954Y-144705232D01*
X142196450Y-144607685D01*
X142356410Y-144476410D01*
X142487685Y-144316450D01*
X142585232Y-144133954D01*
X142645300Y-143935934D01*
X142665583Y-143730000D01*
X142654720Y-143619714D01*
X142661371Y-143565789D01*
X142690440Y-143519885D01*
X142951215Y-143259110D01*
X143007585Y-143226811D01*
X143072552Y-143227448D01*
X143128280Y-143260850D01*
X143159468Y-143317845D01*
X143157555Y-143382787D01*
X143116469Y-143518232D01*
X143116467Y-143518238D01*
X143114700Y-143524066D01*
X143114103Y-143530122D01*
X143114102Y-143530130D01*
X143105279Y-143619718D01*
X143094417Y-143730000D01*
X143095014Y-143736061D01*
X143114102Y-143929869D01*
X143114103Y-143929875D01*
X143114700Y-143935934D01*
X143174768Y-144133954D01*
X143272315Y-144316450D01*
X143403590Y-144476410D01*
X143408296Y-144480272D01*
X143408297Y-144480273D01*
X143488735Y-144546287D01*
X143527489Y-144602282D01*
X143530831Y-144670297D01*
X143497751Y-144729821D01*
X142643714Y-145583858D01*
X142635742Y-145591164D01*
X142606807Y-145615443D01*
X142606389Y-145614945D01*
X142572697Y-145640724D01*
X142519924Y-145652196D01*
X142467279Y-145640147D01*
X142424749Y-145606862D01*
X142402084Y-145579245D01*
X142356410Y-145523590D01*
X142196450Y-145392315D01*
X142095688Y-145338456D01*
X142019328Y-145297640D01*
X142019323Y-145297638D01*
X142013954Y-145294768D01*
X141935881Y-145271085D01*
X141821764Y-145236468D01*
X141821759Y-145236467D01*
X141815934Y-145234700D01*
X141809875Y-145234103D01*
X141809869Y-145234102D01*
X141616061Y-145215014D01*
X141610000Y-145214417D01*
X141603939Y-145215014D01*
X141410130Y-145234102D01*
X141410122Y-145234103D01*
X141404066Y-145234700D01*
X141398242Y-145236466D01*
X141398235Y-145236468D01*
X141211877Y-145292999D01*
X141211875Y-145292999D01*
X141206046Y-145294768D01*
X141200679Y-145297636D01*
X141200671Y-145297640D01*
X141028920Y-145389444D01*
X141028915Y-145389447D01*
X141023550Y-145392315D01*
X141018846Y-145396174D01*
X141018842Y-145396178D01*
X140868296Y-145519727D01*
X140868290Y-145519732D01*
X140863590Y-145523590D01*
X140859732Y-145528290D01*
X140859727Y-145528296D01*
X140736178Y-145678842D01*
X140736174Y-145678846D01*
X140732315Y-145683550D01*
X140729447Y-145688915D01*
X140729444Y-145688920D01*
X140637640Y-145860671D01*
X140637636Y-145860679D01*
X140634768Y-145866046D01*
X140633001Y-145871870D01*
X140632996Y-145871883D01*
X140614593Y-145932551D01*
X140581289Y-145986502D01*
X140525668Y-146016937D01*
X140462274Y-146015899D01*
X140407680Y-145983660D01*
X140376158Y-145928648D01*
X140344832Y-145811738D01*
X140341143Y-145801602D01*
X140245889Y-145597332D01*
X140240491Y-145587982D01*
X140111215Y-145403357D01*
X140104280Y-145395092D01*
X139944909Y-145235721D01*
X139936643Y-145228784D01*
X139752008Y-145099501D01*
X139742676Y-145094113D01*
X139538397Y-144998856D01*
X139528263Y-144995168D01*
X139411350Y-144963841D01*
X139356338Y-144932319D01*
X139324099Y-144877724D01*
X139323062Y-144814329D01*
X139353499Y-144758709D01*
X139407448Y-144725406D01*
X139473954Y-144705232D01*
X139656450Y-144607685D01*
X139816410Y-144476410D01*
X139947685Y-144316450D01*
X140045232Y-144133954D01*
X140105300Y-143935934D01*
X140125583Y-143730000D01*
X140105300Y-143524066D01*
X140045232Y-143326046D01*
X139947685Y-143143550D01*
X139816410Y-142983590D01*
X139656450Y-142852315D01*
X139642662Y-142844945D01*
X139479323Y-142757637D01*
X139479316Y-142757634D01*
X139473954Y-142754768D01*
X139470855Y-142753828D01*
X139431817Y-142727743D01*
X139404939Y-142687515D01*
X139395500Y-142640063D01*
X139395500Y-142574319D01*
X139395972Y-142563512D01*
X139396673Y-142555500D01*
X139399263Y-142525893D01*
X139396455Y-142515413D01*
X139389486Y-142489404D01*
X139387148Y-142478863D01*
X139380588Y-142441655D01*
X139375162Y-142432257D01*
X139373912Y-142428823D01*
X139372362Y-142425500D01*
X139369554Y-142415016D01*
X139347889Y-142384076D01*
X139342080Y-142374957D01*
X139323194Y-142342245D01*
X139314881Y-142335270D01*
X139314880Y-142335268D01*
X139294261Y-142317967D01*
X139286286Y-142310659D01*
X136573389Y-139597762D01*
X133842918Y-136867292D01*
X133816039Y-136827065D01*
X133806600Y-136779612D01*
X133806600Y-130430988D01*
X133820115Y-130374693D01*
X133857715Y-130330670D01*
X133911202Y-130308515D01*
X133968918Y-130313057D01*
G37*
G04 #@! TD.AperFunction*
G04 #@! TA.AperFunction,Conductor*
G36*
X133243618Y-137207757D02*
G01*
X133292981Y-137238007D01*
X138641463Y-142586490D01*
X138671523Y-142635274D01*
X138676440Y-142692365D01*
X138655163Y-142745570D01*
X138612236Y-142783529D01*
X138488920Y-142849444D01*
X138488915Y-142849447D01*
X138483550Y-142852315D01*
X138478846Y-142856174D01*
X138478842Y-142856178D01*
X138328296Y-142979727D01*
X138328290Y-142979732D01*
X138323590Y-142983590D01*
X138319732Y-142988290D01*
X138319727Y-142988296D01*
X138196178Y-143138842D01*
X138196174Y-143138846D01*
X138192315Y-143143550D01*
X138189447Y-143148915D01*
X138189444Y-143148920D01*
X138097640Y-143320671D01*
X138097636Y-143320679D01*
X138094768Y-143326046D01*
X138092999Y-143331875D01*
X138092999Y-143331877D01*
X138036468Y-143518235D01*
X138036466Y-143518242D01*
X138034700Y-143524066D01*
X138034103Y-143530122D01*
X138034102Y-143530130D01*
X138025279Y-143619718D01*
X138014417Y-143730000D01*
X138015014Y-143736061D01*
X138034102Y-143929869D01*
X138034103Y-143929875D01*
X138034700Y-143935934D01*
X138094768Y-144133954D01*
X138192315Y-144316450D01*
X138323590Y-144476410D01*
X138483550Y-144607685D01*
X138666046Y-144705232D01*
X138732549Y-144725405D01*
X138786501Y-144758709D01*
X138816937Y-144814329D01*
X138815900Y-144877724D01*
X138783661Y-144932319D01*
X138728649Y-144963841D01*
X138611736Y-144995168D01*
X138601602Y-144998856D01*
X138397332Y-145094110D01*
X138387982Y-145099508D01*
X138203357Y-145228784D01*
X138195092Y-145235719D01*
X138035719Y-145395092D01*
X138028784Y-145403357D01*
X137899508Y-145587982D01*
X137894110Y-145597332D01*
X137798856Y-145801602D01*
X137795168Y-145811736D01*
X137763841Y-145928649D01*
X137732319Y-145983661D01*
X137677724Y-146015900D01*
X137614329Y-146016937D01*
X137558709Y-145986501D01*
X137525405Y-145932549D01*
X137523578Y-145926526D01*
X137505232Y-145866046D01*
X137407685Y-145683550D01*
X137276410Y-145523590D01*
X137116450Y-145392315D01*
X137015688Y-145338456D01*
X136939328Y-145297640D01*
X136939323Y-145297638D01*
X136933954Y-145294768D01*
X136855881Y-145271085D01*
X136741764Y-145236468D01*
X136741759Y-145236467D01*
X136735934Y-145234700D01*
X136729875Y-145234103D01*
X136729869Y-145234102D01*
X136536061Y-145215014D01*
X136530000Y-145214417D01*
X136523939Y-145215014D01*
X136330130Y-145234102D01*
X136330122Y-145234103D01*
X136324066Y-145234700D01*
X136318242Y-145236466D01*
X136318235Y-145236468D01*
X136131877Y-145292999D01*
X136131875Y-145292999D01*
X136126046Y-145294768D01*
X136120679Y-145297636D01*
X136120671Y-145297640D01*
X135948920Y-145389444D01*
X135948915Y-145389447D01*
X135943550Y-145392315D01*
X135938846Y-145396174D01*
X135938842Y-145396178D01*
X135788296Y-145519727D01*
X135788290Y-145519732D01*
X135783590Y-145523590D01*
X135779732Y-145528290D01*
X135779727Y-145528296D01*
X135656178Y-145678842D01*
X135656174Y-145678846D01*
X135652315Y-145683550D01*
X135649447Y-145688915D01*
X135649444Y-145688920D01*
X135557640Y-145860671D01*
X135557636Y-145860679D01*
X135554768Y-145866046D01*
X135553001Y-145871870D01*
X135552996Y-145871883D01*
X135534593Y-145932551D01*
X135501289Y-145986502D01*
X135445668Y-146016937D01*
X135382274Y-146015899D01*
X135327680Y-145983660D01*
X135296158Y-145928648D01*
X135264832Y-145811738D01*
X135261143Y-145801602D01*
X135165889Y-145597332D01*
X135160491Y-145587982D01*
X135031215Y-145403357D01*
X135024280Y-145395092D01*
X134864909Y-145235721D01*
X134856643Y-145228784D01*
X134672008Y-145099501D01*
X134662676Y-145094113D01*
X134458397Y-144998856D01*
X134448263Y-144995168D01*
X134331350Y-144963841D01*
X134276338Y-144932319D01*
X134244099Y-144877724D01*
X134243062Y-144814329D01*
X134273499Y-144758709D01*
X134327448Y-144725406D01*
X134393954Y-144705232D01*
X134576450Y-144607685D01*
X134736410Y-144476410D01*
X134867685Y-144316450D01*
X134965232Y-144133954D01*
X135025300Y-143935934D01*
X135045583Y-143730000D01*
X135025300Y-143524066D01*
X134965232Y-143326046D01*
X134867685Y-143143550D01*
X134736410Y-142983590D01*
X134576450Y-142852315D01*
X134562662Y-142844945D01*
X134399328Y-142757640D01*
X134399321Y-142757637D01*
X134393954Y-142754768D01*
X134315502Y-142730970D01*
X134201764Y-142696468D01*
X134201759Y-142696467D01*
X134195934Y-142694700D01*
X134189875Y-142694103D01*
X134189869Y-142694102D01*
X133996061Y-142675014D01*
X133990000Y-142674417D01*
X133983939Y-142675014D01*
X133790130Y-142694102D01*
X133790122Y-142694103D01*
X133784066Y-142694700D01*
X133778242Y-142696466D01*
X133778235Y-142696468D01*
X133591877Y-142752999D01*
X133591875Y-142752999D01*
X133586046Y-142754768D01*
X133580679Y-142757636D01*
X133580671Y-142757640D01*
X133408920Y-142849444D01*
X133408915Y-142849447D01*
X133403550Y-142852315D01*
X133398846Y-142856174D01*
X133398842Y-142856178D01*
X133248296Y-142979727D01*
X133248290Y-142979732D01*
X133243590Y-142983590D01*
X133239732Y-142988290D01*
X133239729Y-142988294D01*
X133235355Y-142993625D01*
X133186955Y-143029522D01*
X133127347Y-143038365D01*
X133070610Y-143018065D01*
X133030142Y-142973416D01*
X133015500Y-142914962D01*
X133015500Y-139799888D01*
X133029015Y-139743593D01*
X133066615Y-139699570D01*
X133120102Y-139677415D01*
X133177818Y-139681957D01*
X133227181Y-139712207D01*
X136101464Y-142586490D01*
X136131524Y-142635274D01*
X136136441Y-142692365D01*
X136115164Y-142745571D01*
X136072237Y-142783529D01*
X135948920Y-142849444D01*
X135948915Y-142849447D01*
X135943550Y-142852315D01*
X135938846Y-142856174D01*
X135938842Y-142856178D01*
X135788296Y-142979727D01*
X135788290Y-142979732D01*
X135783590Y-142983590D01*
X135779732Y-142988290D01*
X135779727Y-142988296D01*
X135656178Y-143138842D01*
X135656174Y-143138846D01*
X135652315Y-143143550D01*
X135649447Y-143148915D01*
X135649444Y-143148920D01*
X135557640Y-143320671D01*
X135557636Y-143320679D01*
X135554768Y-143326046D01*
X135552999Y-143331875D01*
X135552999Y-143331877D01*
X135496468Y-143518235D01*
X135496466Y-143518242D01*
X135494700Y-143524066D01*
X135494103Y-143530122D01*
X135494102Y-143530130D01*
X135485279Y-143619718D01*
X135474417Y-143730000D01*
X135475014Y-143736061D01*
X135494102Y-143929869D01*
X135494103Y-143929875D01*
X135494700Y-143935934D01*
X135554768Y-144133954D01*
X135652315Y-144316450D01*
X135783590Y-144476410D01*
X135943550Y-144607685D01*
X136126046Y-144705232D01*
X136324066Y-144765300D01*
X136530000Y-144785583D01*
X136735934Y-144765300D01*
X136933954Y-144705232D01*
X137116450Y-144607685D01*
X137276410Y-144476410D01*
X137407685Y-144316450D01*
X137505232Y-144133954D01*
X137565300Y-143935934D01*
X137585583Y-143730000D01*
X137565300Y-143524066D01*
X137505232Y-143326046D01*
X137407685Y-143143550D01*
X137276410Y-142983590D01*
X137116450Y-142852315D01*
X137102662Y-142844945D01*
X136939323Y-142757637D01*
X136939316Y-142757634D01*
X136933954Y-142754768D01*
X136930855Y-142753828D01*
X136891817Y-142727743D01*
X136864939Y-142687515D01*
X136855500Y-142640063D01*
X136855500Y-142574327D01*
X136855972Y-142563519D01*
X136855973Y-142563507D01*
X136859264Y-142525893D01*
X136849481Y-142489385D01*
X136847145Y-142478843D01*
X136842472Y-142452341D01*
X136842471Y-142452337D01*
X136840588Y-142441655D01*
X136835160Y-142432255D01*
X136833910Y-142428819D01*
X136832363Y-142425501D01*
X136829554Y-142415016D01*
X136807891Y-142384078D01*
X136802080Y-142374957D01*
X136802078Y-142374953D01*
X136783194Y-142342245D01*
X136774881Y-142335270D01*
X136774880Y-142335268D01*
X136754255Y-142317962D01*
X136746280Y-142310654D01*
X133117619Y-138681993D01*
X133090739Y-138641765D01*
X133081300Y-138594312D01*
X133081300Y-137325688D01*
X133094815Y-137269393D01*
X133132415Y-137225370D01*
X133185902Y-137203215D01*
X133243618Y-137207757D01*
G37*
G04 #@! TD.AperFunction*
G04 #@! TA.AperFunction,Conductor*
G36*
X131175839Y-118317011D02*
G01*
X131186717Y-118321854D01*
X131193075Y-118323205D01*
X131193077Y-118323206D01*
X131229260Y-118330897D01*
X131374176Y-118361700D01*
X131380679Y-118361700D01*
X131491011Y-118361700D01*
X131547306Y-118375215D01*
X131591329Y-118412815D01*
X131613484Y-118466302D01*
X131608942Y-118524018D01*
X131578692Y-118573381D01*
X131233714Y-118918358D01*
X131225742Y-118925664D01*
X131205114Y-118942973D01*
X131205112Y-118942974D01*
X131196806Y-118949945D01*
X131191384Y-118959334D01*
X131191380Y-118959340D01*
X131177914Y-118982664D01*
X131172112Y-118991771D01*
X131150446Y-119022716D01*
X131147639Y-119033188D01*
X131146087Y-119036518D01*
X131144831Y-119039966D01*
X131139412Y-119049355D01*
X131137529Y-119060031D01*
X131137528Y-119060035D01*
X131132853Y-119086549D01*
X131130514Y-119097097D01*
X131120736Y-119133593D01*
X131121681Y-119144396D01*
X131121681Y-119144399D01*
X131124028Y-119171219D01*
X131124500Y-119182027D01*
X131124500Y-142640063D01*
X131115061Y-142687515D01*
X131088183Y-142727743D01*
X131049144Y-142753828D01*
X131046046Y-142754768D01*
X131040687Y-142757632D01*
X131040676Y-142757637D01*
X130868920Y-142849444D01*
X130868915Y-142849447D01*
X130863550Y-142852315D01*
X130858846Y-142856174D01*
X130858842Y-142856178D01*
X130708296Y-142979727D01*
X130708290Y-142979732D01*
X130703590Y-142983590D01*
X130699732Y-142988290D01*
X130699727Y-142988296D01*
X130576178Y-143138842D01*
X130576174Y-143138846D01*
X130572315Y-143143550D01*
X130569447Y-143148915D01*
X130569444Y-143148920D01*
X130477640Y-143320671D01*
X130477636Y-143320679D01*
X130474768Y-143326046D01*
X130472999Y-143331875D01*
X130472999Y-143331877D01*
X130416468Y-143518235D01*
X130416466Y-143518242D01*
X130414700Y-143524066D01*
X130414103Y-143530122D01*
X130414102Y-143530130D01*
X130405279Y-143619718D01*
X130394417Y-143730000D01*
X130395014Y-143736061D01*
X130414102Y-143929869D01*
X130414103Y-143929875D01*
X130414700Y-143935934D01*
X130474768Y-144133954D01*
X130572315Y-144316450D01*
X130576178Y-144321157D01*
X130622118Y-144377136D01*
X130649332Y-144440622D01*
X130638358Y-144508817D01*
X130592604Y-144560562D01*
X130526264Y-144579800D01*
X130271489Y-144579800D01*
X130224036Y-144570361D01*
X130183808Y-144543481D01*
X129996819Y-144356492D01*
X129969939Y-144316264D01*
X129960500Y-144268811D01*
X129960500Y-142866348D01*
X129960500Y-142860252D01*
X129948867Y-142801769D01*
X129904552Y-142735448D01*
X129838231Y-142691133D01*
X129826253Y-142688750D01*
X129826252Y-142688750D01*
X129785728Y-142680689D01*
X129785723Y-142680688D01*
X129779748Y-142679500D01*
X129773652Y-142679500D01*
X128184100Y-142679500D01*
X128122100Y-142662887D01*
X128076713Y-142617500D01*
X128060100Y-142555500D01*
X128060100Y-121371588D01*
X128069539Y-121324135D01*
X128096419Y-121283907D01*
X129501906Y-119878420D01*
X131037720Y-118342605D01*
X131078949Y-118315317D01*
X131127567Y-118306307D01*
X131175839Y-118317011D01*
G37*
G04 #@! TD.AperFunction*
G04 #@! TA.AperFunction,Conductor*
G36*
X149088000Y-77786613D02*
G01*
X149133387Y-77832000D01*
X149150000Y-77894000D01*
X149150000Y-148606000D01*
X149133387Y-148668000D01*
X149088000Y-148713387D01*
X149026000Y-148730000D01*
X126694017Y-148730000D01*
X126632012Y-148713384D01*
X126586624Y-148667990D01*
X126570017Y-148605983D01*
X126570133Y-147787518D01*
X126570311Y-146522551D01*
X127582688Y-146522551D01*
X127583056Y-146533780D01*
X127635168Y-146728263D01*
X127638856Y-146738397D01*
X127734113Y-146942676D01*
X127739501Y-146952008D01*
X127868784Y-147136643D01*
X127875721Y-147144909D01*
X128035090Y-147304278D01*
X128043356Y-147311215D01*
X128227991Y-147440498D01*
X128237323Y-147445886D01*
X128441602Y-147541143D01*
X128451736Y-147544831D01*
X128646219Y-147596943D01*
X128657448Y-147597311D01*
X128660000Y-147586369D01*
X128660000Y-146536326D01*
X128656549Y-146523450D01*
X128643674Y-146520000D01*
X127593631Y-146520000D01*
X127582688Y-146522551D01*
X126570311Y-146522551D01*
X126570555Y-144789907D01*
X127405336Y-144789907D01*
X127408143Y-144800383D01*
X127415113Y-144826397D01*
X127417452Y-144836952D01*
X127422127Y-144863461D01*
X127422128Y-144863466D01*
X127424012Y-144874145D01*
X127429431Y-144883532D01*
X127430684Y-144886973D01*
X127432238Y-144890306D01*
X127435046Y-144900784D01*
X127456712Y-144931727D01*
X127462514Y-144940835D01*
X127475981Y-144964160D01*
X127475983Y-144964162D01*
X127481406Y-144973555D01*
X127510357Y-144997847D01*
X127518318Y-145005144D01*
X127729450Y-145216276D01*
X127736759Y-145224251D01*
X127745496Y-145234664D01*
X127761045Y-145253194D01*
X127793763Y-145272083D01*
X127802863Y-145277880D01*
X127804468Y-145279004D01*
X127845732Y-145328173D01*
X127856882Y-145391388D01*
X127834928Y-145451708D01*
X127739508Y-145587982D01*
X127734110Y-145597332D01*
X127638856Y-145801602D01*
X127635168Y-145811736D01*
X127583056Y-146006219D01*
X127582688Y-146017448D01*
X127593631Y-146020000D01*
X129036000Y-146020000D01*
X129098000Y-146036613D01*
X129143387Y-146082000D01*
X129160000Y-146144000D01*
X129160000Y-147586369D01*
X129162551Y-147597311D01*
X129173780Y-147596943D01*
X129368263Y-147544831D01*
X129378397Y-147541143D01*
X129582676Y-147445886D01*
X129592008Y-147440498D01*
X129776643Y-147311215D01*
X129784909Y-147304278D01*
X129944275Y-147144912D01*
X129947766Y-147140752D01*
X130003753Y-147102746D01*
X130071355Y-147099792D01*
X130130442Y-147132768D01*
X130438171Y-147440498D01*
X130673155Y-147675482D01*
X130680462Y-147683455D01*
X130704745Y-147712394D01*
X130737466Y-147731285D01*
X130746576Y-147737089D01*
X130777516Y-147758754D01*
X130788000Y-147761562D01*
X130791323Y-147763112D01*
X130794757Y-147764362D01*
X130804155Y-147769788D01*
X130841363Y-147776348D01*
X130851904Y-147778686D01*
X130877913Y-147785655D01*
X130877914Y-147785655D01*
X130888393Y-147788463D01*
X130926010Y-147785172D01*
X130936818Y-147784700D01*
X142231173Y-147784700D01*
X142241980Y-147785171D01*
X142279607Y-147788464D01*
X142316124Y-147778678D01*
X142326630Y-147776349D01*
X142363845Y-147769788D01*
X142373251Y-147764356D01*
X142376700Y-147763101D01*
X142379999Y-147761562D01*
X142390484Y-147758754D01*
X142421435Y-147737080D01*
X142430533Y-147731285D01*
X142463255Y-147712394D01*
X142487548Y-147683441D01*
X142494836Y-147675488D01*
X143076290Y-147094034D01*
X143084242Y-147086747D01*
X143113194Y-147062455D01*
X143132085Y-147029733D01*
X143137880Y-147020635D01*
X143159554Y-146989684D01*
X143159807Y-146988739D01*
X143194773Y-146946247D01*
X143252308Y-146923418D01*
X143313711Y-146931245D01*
X143363680Y-146967779D01*
X143398086Y-147009704D01*
X143403590Y-147016410D01*
X143563550Y-147147685D01*
X143746046Y-147245232D01*
X143944066Y-147305300D01*
X144150000Y-147325583D01*
X144355934Y-147305300D01*
X144553954Y-147245232D01*
X144736450Y-147147685D01*
X144896410Y-147016410D01*
X145027685Y-146856450D01*
X145125232Y-146673954D01*
X145145406Y-146607448D01*
X145178709Y-146553499D01*
X145234329Y-146523062D01*
X145297724Y-146524099D01*
X145352319Y-146556338D01*
X145383841Y-146611350D01*
X145415168Y-146728263D01*
X145418856Y-146738397D01*
X145514113Y-146942676D01*
X145519501Y-146952008D01*
X145648784Y-147136643D01*
X145655721Y-147144909D01*
X145815090Y-147304278D01*
X145823356Y-147311215D01*
X146007991Y-147440498D01*
X146017323Y-147445886D01*
X146221602Y-147541143D01*
X146231736Y-147544831D01*
X146426219Y-147596943D01*
X146437448Y-147597311D01*
X146440000Y-147586369D01*
X146940000Y-147586369D01*
X146942551Y-147597311D01*
X146953780Y-147596943D01*
X147148263Y-147544831D01*
X147158397Y-147541143D01*
X147362676Y-147445886D01*
X147372008Y-147440498D01*
X147556643Y-147311215D01*
X147564909Y-147304278D01*
X147724278Y-147144909D01*
X147731215Y-147136643D01*
X147860498Y-146952008D01*
X147865886Y-146942676D01*
X147961143Y-146738397D01*
X147964831Y-146728263D01*
X148016943Y-146533780D01*
X148017311Y-146522551D01*
X148006369Y-146520000D01*
X146956326Y-146520000D01*
X146943450Y-146523450D01*
X146940000Y-146536326D01*
X146940000Y-147586369D01*
X146440000Y-147586369D01*
X146440000Y-146144000D01*
X146456613Y-146082000D01*
X146502000Y-146036613D01*
X146564000Y-146020000D01*
X148006369Y-146020000D01*
X148017311Y-146017448D01*
X148016943Y-146006219D01*
X147964831Y-145811736D01*
X147961143Y-145801602D01*
X147865889Y-145597332D01*
X147860491Y-145587982D01*
X147731215Y-145403357D01*
X147724280Y-145395092D01*
X147659363Y-145330175D01*
X147626385Y-145271085D01*
X147629342Y-145203480D01*
X147658812Y-145160070D01*
X147657054Y-145158595D01*
X147657139Y-145158494D01*
X147681348Y-145129641D01*
X147688636Y-145121688D01*
X148089290Y-144721034D01*
X148097242Y-144713747D01*
X148126194Y-144689455D01*
X148145085Y-144656733D01*
X148150880Y-144647635D01*
X148172554Y-144616684D01*
X148175362Y-144606199D01*
X148176901Y-144602900D01*
X148178156Y-144599451D01*
X148183588Y-144590045D01*
X148190149Y-144552830D01*
X148192478Y-144542324D01*
X148202264Y-144505807D01*
X148198971Y-144468180D01*
X148198500Y-144457373D01*
X148198500Y-141952616D01*
X148198972Y-141941808D01*
X148202263Y-141904193D01*
X148192486Y-141867704D01*
X148190148Y-141857163D01*
X148183588Y-141819955D01*
X148178162Y-141810557D01*
X148176912Y-141807123D01*
X148175362Y-141803800D01*
X148172554Y-141793316D01*
X148150889Y-141762376D01*
X148145085Y-141753266D01*
X148126194Y-141720545D01*
X148117881Y-141713570D01*
X148117880Y-141713568D01*
X148097261Y-141696267D01*
X148089286Y-141688959D01*
X135875119Y-129474793D01*
X135848239Y-129434565D01*
X135838800Y-129387112D01*
X135838800Y-120843571D01*
X135857073Y-120778781D01*
X135906505Y-120733086D01*
X135972529Y-120719953D01*
X136035685Y-120743253D01*
X136086379Y-120780084D01*
X136086383Y-120780086D01*
X136091639Y-120783905D01*
X136266717Y-120861854D01*
X136273075Y-120863205D01*
X136273077Y-120863206D01*
X136309260Y-120870897D01*
X136454176Y-120901700D01*
X136639321Y-120901700D01*
X136645824Y-120901700D01*
X136833283Y-120861854D01*
X137008361Y-120783905D01*
X137027914Y-120769699D01*
X137064115Y-120743398D01*
X137127271Y-120720098D01*
X137193295Y-120733231D01*
X137242727Y-120778926D01*
X137261000Y-120843716D01*
X137261000Y-129723373D01*
X137260528Y-129734181D01*
X137258181Y-129761000D01*
X137258181Y-129761003D01*
X137257236Y-129771807D01*
X137260043Y-129782283D01*
X137267013Y-129808297D01*
X137269352Y-129818852D01*
X137274027Y-129845361D01*
X137274028Y-129845366D01*
X137275912Y-129856045D01*
X137281331Y-129865432D01*
X137282584Y-129868873D01*
X137284138Y-129872206D01*
X137286946Y-129882684D01*
X137308612Y-129913627D01*
X137314414Y-129922735D01*
X137327881Y-129946060D01*
X137327883Y-129946062D01*
X137333306Y-129955455D01*
X137362257Y-129979747D01*
X137370218Y-129987044D01*
X139802688Y-132419514D01*
X139832426Y-132467336D01*
X139837946Y-132523379D01*
X139830079Y-132583139D01*
X139829018Y-132591200D01*
X139830079Y-132599259D01*
X139848594Y-132739902D01*
X139848595Y-132739908D01*
X139849656Y-132747962D01*
X139910164Y-132894041D01*
X140006418Y-133019482D01*
X140131859Y-133115736D01*
X140277938Y-133176244D01*
X140434700Y-133196882D01*
X140591462Y-133176244D01*
X140737541Y-133115736D01*
X140862982Y-133019482D01*
X140959236Y-132894041D01*
X141019744Y-132747962D01*
X141040382Y-132591200D01*
X141019744Y-132434438D01*
X140959236Y-132288359D01*
X140862982Y-132162918D01*
X140737541Y-132066664D01*
X140730033Y-132063554D01*
X140598971Y-132009266D01*
X140598968Y-132009265D01*
X140591462Y-132006156D01*
X140583408Y-132005095D01*
X140583402Y-132005094D01*
X140442759Y-131986579D01*
X140434700Y-131985518D01*
X140426641Y-131986579D01*
X140426639Y-131986579D01*
X140366879Y-131994446D01*
X140310836Y-131988926D01*
X140263014Y-131959188D01*
X139740296Y-131436470D01*
X139709316Y-131384784D01*
X139706360Y-131324597D01*
X139732124Y-131270124D01*
X139780523Y-131234229D01*
X139878041Y-131193836D01*
X140003482Y-131097582D01*
X140099736Y-130972141D01*
X140160244Y-130826062D01*
X140180882Y-130669300D01*
X140160244Y-130512538D01*
X140099736Y-130366459D01*
X140003482Y-130241018D01*
X139878041Y-130144764D01*
X139769747Y-130099907D01*
X139739471Y-130087366D01*
X139739468Y-130087365D01*
X139731962Y-130084256D01*
X139723908Y-130083195D01*
X139723902Y-130083194D01*
X139583259Y-130064679D01*
X139575200Y-130063618D01*
X139567141Y-130064679D01*
X139567139Y-130064679D01*
X139507379Y-130072546D01*
X139451336Y-130067026D01*
X139403514Y-130037288D01*
X138402619Y-129036393D01*
X138375739Y-128996165D01*
X138366300Y-128948712D01*
X138366300Y-120834489D01*
X138384573Y-120769699D01*
X138434005Y-120724004D01*
X138500029Y-120710871D01*
X138563185Y-120734171D01*
X138626379Y-120780084D01*
X138626383Y-120780086D01*
X138631639Y-120783905D01*
X138806717Y-120861854D01*
X138813075Y-120863205D01*
X138813077Y-120863206D01*
X138849260Y-120870897D01*
X138994176Y-120901700D01*
X139179321Y-120901700D01*
X139185824Y-120901700D01*
X139373283Y-120861854D01*
X139548361Y-120783905D01*
X139703407Y-120671257D01*
X139831644Y-120528836D01*
X139927467Y-120362864D01*
X139986689Y-120180597D01*
X140006722Y-119990000D01*
X140713278Y-119990000D01*
X140713957Y-119996460D01*
X140732631Y-120174135D01*
X140732632Y-120174142D01*
X140733311Y-120180597D01*
X140792533Y-120362864D01*
X140795780Y-120368488D01*
X140795781Y-120368490D01*
X140883888Y-120521098D01*
X140888356Y-120528836D01*
X140892700Y-120533661D01*
X140892702Y-120533663D01*
X140940431Y-120586671D01*
X141016593Y-120671257D01*
X141021843Y-120675071D01*
X141021846Y-120675074D01*
X141152086Y-120769699D01*
X141171639Y-120783905D01*
X141346717Y-120861854D01*
X141353075Y-120863205D01*
X141353077Y-120863206D01*
X141389260Y-120870897D01*
X141534176Y-120901700D01*
X141719321Y-120901700D01*
X141725824Y-120901700D01*
X141913283Y-120861854D01*
X142088361Y-120783905D01*
X142243407Y-120671257D01*
X142371644Y-120528836D01*
X142467467Y-120362864D01*
X142526689Y-120180597D01*
X142546722Y-119990000D01*
X142526689Y-119799403D01*
X142467467Y-119617136D01*
X142371644Y-119451164D01*
X142243407Y-119308743D01*
X142238157Y-119304928D01*
X142238153Y-119304925D01*
X142093615Y-119199912D01*
X142093613Y-119199910D01*
X142088361Y-119196095D01*
X141913283Y-119118146D01*
X141906930Y-119116795D01*
X141906922Y-119116793D01*
X141732186Y-119079652D01*
X141732183Y-119079651D01*
X141725824Y-119078300D01*
X141534176Y-119078300D01*
X141527817Y-119079651D01*
X141527813Y-119079652D01*
X141353077Y-119116793D01*
X141353066Y-119116796D01*
X141346717Y-119118146D01*
X141340779Y-119120789D01*
X141340778Y-119120790D01*
X141177572Y-119193453D01*
X141177568Y-119193455D01*
X141171639Y-119196095D01*
X141166390Y-119199908D01*
X141166384Y-119199912D01*
X141021846Y-119304925D01*
X141021837Y-119304932D01*
X141016593Y-119308743D01*
X141012249Y-119313566D01*
X141012246Y-119313570D01*
X140892702Y-119446336D01*
X140892697Y-119446342D01*
X140888356Y-119451164D01*
X140885111Y-119456784D01*
X140885107Y-119456790D01*
X140795781Y-119611509D01*
X140795778Y-119611514D01*
X140792533Y-119617136D01*
X140790527Y-119623308D01*
X140790525Y-119623314D01*
X140735319Y-119793222D01*
X140733311Y-119799403D01*
X140732632Y-119805855D01*
X140732631Y-119805864D01*
X140722514Y-119902126D01*
X140713278Y-119990000D01*
X140006722Y-119990000D01*
X139986689Y-119799403D01*
X139927467Y-119617136D01*
X139831644Y-119451164D01*
X139703407Y-119308743D01*
X139698157Y-119304928D01*
X139698153Y-119304925D01*
X139553615Y-119199912D01*
X139553613Y-119199910D01*
X139548361Y-119196095D01*
X139373283Y-119118146D01*
X139366930Y-119116795D01*
X139366922Y-119116793D01*
X139192186Y-119079652D01*
X139192183Y-119079651D01*
X139185824Y-119078300D01*
X138994176Y-119078300D01*
X138987817Y-119079651D01*
X138987813Y-119079652D01*
X138813077Y-119116793D01*
X138813066Y-119116796D01*
X138806717Y-119118146D01*
X138800779Y-119120789D01*
X138800778Y-119120790D01*
X138637572Y-119193453D01*
X138637568Y-119193455D01*
X138631639Y-119196095D01*
X138626389Y-119199908D01*
X138626379Y-119199915D01*
X138563185Y-119245829D01*
X138500029Y-119269129D01*
X138434005Y-119255996D01*
X138384573Y-119210301D01*
X138366300Y-119145511D01*
X138366300Y-118294489D01*
X138384573Y-118229699D01*
X138434005Y-118184004D01*
X138500029Y-118170871D01*
X138563185Y-118194171D01*
X138626379Y-118240084D01*
X138626383Y-118240086D01*
X138631639Y-118243905D01*
X138806717Y-118321854D01*
X138813075Y-118323205D01*
X138813077Y-118323206D01*
X138849260Y-118330897D01*
X138994176Y-118361700D01*
X139179321Y-118361700D01*
X139185824Y-118361700D01*
X139373283Y-118321854D01*
X139548361Y-118243905D01*
X139703407Y-118131257D01*
X139831644Y-117988836D01*
X139927467Y-117822864D01*
X139986689Y-117640597D01*
X140006722Y-117450000D01*
X140713278Y-117450000D01*
X140713957Y-117456460D01*
X140732631Y-117634135D01*
X140732632Y-117634142D01*
X140733311Y-117640597D01*
X140735319Y-117646777D01*
X140770100Y-117753824D01*
X140792533Y-117822864D01*
X140795780Y-117828488D01*
X140795781Y-117828490D01*
X140879526Y-117973543D01*
X140888356Y-117988836D01*
X141016593Y-118131257D01*
X141021843Y-118135071D01*
X141021846Y-118135074D01*
X141152086Y-118229699D01*
X141171639Y-118243905D01*
X141346717Y-118321854D01*
X141353075Y-118323205D01*
X141353077Y-118323206D01*
X141389260Y-118330897D01*
X141534176Y-118361700D01*
X141719321Y-118361700D01*
X141725824Y-118361700D01*
X141913283Y-118321854D01*
X142088361Y-118243905D01*
X142243407Y-118131257D01*
X142371644Y-117988836D01*
X142467467Y-117822864D01*
X142526689Y-117640597D01*
X142546722Y-117450000D01*
X143253278Y-117450000D01*
X143253957Y-117456460D01*
X143272631Y-117634135D01*
X143272632Y-117634142D01*
X143273311Y-117640597D01*
X143275319Y-117646777D01*
X143310100Y-117753824D01*
X143332533Y-117822864D01*
X143335780Y-117828488D01*
X143335781Y-117828490D01*
X143419526Y-117973543D01*
X143428356Y-117988836D01*
X143556593Y-118131257D01*
X143561843Y-118135071D01*
X143561846Y-118135074D01*
X143692086Y-118229699D01*
X143711639Y-118243905D01*
X143886717Y-118321854D01*
X143893075Y-118323205D01*
X143893077Y-118323206D01*
X143929260Y-118330897D01*
X144074176Y-118361700D01*
X144259321Y-118361700D01*
X144265824Y-118361700D01*
X144453283Y-118321854D01*
X144628361Y-118243905D01*
X144783407Y-118131257D01*
X144911644Y-117988836D01*
X145007467Y-117822864D01*
X145066689Y-117640597D01*
X145086722Y-117450000D01*
X145066689Y-117259403D01*
X145007467Y-117077136D01*
X144911644Y-116911164D01*
X144783407Y-116768743D01*
X144778157Y-116764928D01*
X144778153Y-116764925D01*
X144633615Y-116659912D01*
X144633613Y-116659910D01*
X144628361Y-116656095D01*
X144453283Y-116578146D01*
X144446930Y-116576795D01*
X144446922Y-116576793D01*
X144272186Y-116539652D01*
X144272183Y-116539651D01*
X144265824Y-116538300D01*
X144074176Y-116538300D01*
X144067817Y-116539651D01*
X144067813Y-116539652D01*
X143893077Y-116576793D01*
X143893066Y-116576796D01*
X143886717Y-116578146D01*
X143880779Y-116580789D01*
X143880778Y-116580790D01*
X143717572Y-116653453D01*
X143717568Y-116653455D01*
X143711639Y-116656095D01*
X143706390Y-116659908D01*
X143706384Y-116659912D01*
X143561846Y-116764925D01*
X143561837Y-116764932D01*
X143556593Y-116768743D01*
X143552249Y-116773566D01*
X143552246Y-116773570D01*
X143432702Y-116906336D01*
X143432697Y-116906342D01*
X143428356Y-116911164D01*
X143425111Y-116916784D01*
X143425107Y-116916790D01*
X143335781Y-117071509D01*
X143335778Y-117071514D01*
X143332533Y-117077136D01*
X143330527Y-117083308D01*
X143330525Y-117083314D01*
X143275319Y-117253222D01*
X143273311Y-117259403D01*
X143272632Y-117265855D01*
X143272631Y-117265864D01*
X143254190Y-117441322D01*
X143253278Y-117450000D01*
X142546722Y-117450000D01*
X142526689Y-117259403D01*
X142467467Y-117077136D01*
X142371644Y-116911164D01*
X142243407Y-116768743D01*
X142238157Y-116764928D01*
X142238153Y-116764925D01*
X142093615Y-116659912D01*
X142093613Y-116659910D01*
X142088361Y-116656095D01*
X141913283Y-116578146D01*
X141906930Y-116576795D01*
X141906922Y-116576793D01*
X141732186Y-116539652D01*
X141732183Y-116539651D01*
X141725824Y-116538300D01*
X141534176Y-116538300D01*
X141527817Y-116539651D01*
X141527813Y-116539652D01*
X141353077Y-116576793D01*
X141353066Y-116576796D01*
X141346717Y-116578146D01*
X141340779Y-116580789D01*
X141340778Y-116580790D01*
X141177572Y-116653453D01*
X141177568Y-116653455D01*
X141171639Y-116656095D01*
X141166390Y-116659908D01*
X141166384Y-116659912D01*
X141021846Y-116764925D01*
X141021837Y-116764932D01*
X141016593Y-116768743D01*
X141012249Y-116773566D01*
X141012246Y-116773570D01*
X140892702Y-116906336D01*
X140892697Y-116906342D01*
X140888356Y-116911164D01*
X140885111Y-116916784D01*
X140885107Y-116916790D01*
X140795781Y-117071509D01*
X140795778Y-117071514D01*
X140792533Y-117077136D01*
X140790527Y-117083308D01*
X140790525Y-117083314D01*
X140735319Y-117253222D01*
X140733311Y-117259403D01*
X140732632Y-117265855D01*
X140732631Y-117265864D01*
X140714190Y-117441322D01*
X140713278Y-117450000D01*
X140006722Y-117450000D01*
X139986689Y-117259403D01*
X139927467Y-117077136D01*
X139831644Y-116911164D01*
X139703407Y-116768743D01*
X139698157Y-116764928D01*
X139698153Y-116764925D01*
X139553615Y-116659912D01*
X139553613Y-116659910D01*
X139548361Y-116656095D01*
X139373283Y-116578146D01*
X139366930Y-116576795D01*
X139366922Y-116576793D01*
X139192186Y-116539652D01*
X139192183Y-116539651D01*
X139185824Y-116538300D01*
X138994176Y-116538300D01*
X138987817Y-116539651D01*
X138987813Y-116539652D01*
X138813077Y-116576793D01*
X138813066Y-116576796D01*
X138806717Y-116578146D01*
X138800779Y-116580789D01*
X138800778Y-116580790D01*
X138637572Y-116653453D01*
X138637568Y-116653455D01*
X138631639Y-116656095D01*
X138626389Y-116659908D01*
X138626379Y-116659915D01*
X138563185Y-116705829D01*
X138500029Y-116729129D01*
X138434005Y-116715996D01*
X138384573Y-116670301D01*
X138366300Y-116605511D01*
X138366300Y-115924943D01*
X143511978Y-115924943D01*
X143519411Y-115933055D01*
X143557648Y-115959829D01*
X143566993Y-115965225D01*
X143749253Y-116050214D01*
X143759395Y-116053906D01*
X143953649Y-116105956D01*
X143964264Y-116107827D01*
X144164605Y-116125355D01*
X144175395Y-116125355D01*
X144375735Y-116107827D01*
X144386350Y-116105956D01*
X144580604Y-116053906D01*
X144590746Y-116050214D01*
X144773008Y-115965224D01*
X144782346Y-115959833D01*
X144820589Y-115933054D01*
X144828021Y-115924944D01*
X144822107Y-115915661D01*
X144181542Y-115275095D01*
X144170000Y-115268431D01*
X144158457Y-115275095D01*
X143517891Y-115915661D01*
X143511978Y-115924943D01*
X138366300Y-115924943D01*
X138366300Y-114910000D01*
X140713278Y-114910000D01*
X140713957Y-114916460D01*
X140732631Y-115094135D01*
X140732632Y-115094142D01*
X140733311Y-115100597D01*
X140735319Y-115106777D01*
X140790008Y-115275095D01*
X140792533Y-115282864D01*
X140795780Y-115288488D01*
X140795781Y-115288490D01*
X140864779Y-115408000D01*
X140888356Y-115448836D01*
X140892700Y-115453661D01*
X140892702Y-115453663D01*
X140915105Y-115478544D01*
X141016593Y-115591257D01*
X141021843Y-115595071D01*
X141021846Y-115595074D01*
X141165594Y-115699513D01*
X141171639Y-115703905D01*
X141346717Y-115781854D01*
X141353075Y-115783205D01*
X141353077Y-115783206D01*
X141389260Y-115790897D01*
X141534176Y-115821700D01*
X141719321Y-115821700D01*
X141725824Y-115821700D01*
X141913283Y-115781854D01*
X142088361Y-115703905D01*
X142243407Y-115591257D01*
X142371644Y-115448836D01*
X142467467Y-115282864D01*
X142526689Y-115100597D01*
X142546155Y-114915395D01*
X142954645Y-114915395D01*
X142972172Y-115115735D01*
X142974043Y-115126350D01*
X143026093Y-115320604D01*
X143029785Y-115330746D01*
X143114776Y-115513011D01*
X143120164Y-115522343D01*
X143146945Y-115560590D01*
X143155054Y-115568021D01*
X143164337Y-115562107D01*
X143804903Y-114921542D01*
X143811567Y-114910000D01*
X144528431Y-114910000D01*
X144535095Y-114921542D01*
X145175661Y-115562107D01*
X145184944Y-115568021D01*
X145193054Y-115560589D01*
X145219833Y-115522346D01*
X145225224Y-115513008D01*
X145310214Y-115330746D01*
X145313906Y-115320604D01*
X145365956Y-115126350D01*
X145367827Y-115115735D01*
X145385355Y-114915395D01*
X145385355Y-114904605D01*
X145367827Y-114704264D01*
X145365956Y-114693649D01*
X145313906Y-114499395D01*
X145310214Y-114489253D01*
X145225226Y-114306997D01*
X145219828Y-114297647D01*
X145193054Y-114259410D01*
X145184943Y-114251977D01*
X145175664Y-114257888D01*
X144535095Y-114898457D01*
X144528431Y-114910000D01*
X143811567Y-114910000D01*
X143804903Y-114898457D01*
X143164334Y-114257888D01*
X143155055Y-114251977D01*
X143146944Y-114259410D01*
X143120169Y-114297650D01*
X143114774Y-114306995D01*
X143029785Y-114489253D01*
X143026093Y-114499395D01*
X142974043Y-114693649D01*
X142972172Y-114704264D01*
X142954645Y-114904605D01*
X142954645Y-114915395D01*
X142546155Y-114915395D01*
X142546722Y-114910000D01*
X142526689Y-114719403D01*
X142467467Y-114537136D01*
X142371644Y-114371164D01*
X142243407Y-114228743D01*
X142238157Y-114224928D01*
X142238153Y-114224925D01*
X142093615Y-114119912D01*
X142093613Y-114119910D01*
X142088361Y-114116095D01*
X141913283Y-114038146D01*
X141906930Y-114036795D01*
X141906922Y-114036793D01*
X141732186Y-113999652D01*
X141732183Y-113999651D01*
X141725824Y-113998300D01*
X141534176Y-113998300D01*
X141527817Y-113999651D01*
X141527813Y-113999652D01*
X141353077Y-114036793D01*
X141353066Y-114036796D01*
X141346717Y-114038146D01*
X141340779Y-114040789D01*
X141340778Y-114040790D01*
X141177572Y-114113453D01*
X141177568Y-114113455D01*
X141171639Y-114116095D01*
X141166390Y-114119908D01*
X141166384Y-114119912D01*
X141021846Y-114224925D01*
X141021837Y-114224932D01*
X141016593Y-114228743D01*
X141012249Y-114233566D01*
X141012246Y-114233570D01*
X140892702Y-114366336D01*
X140892697Y-114366342D01*
X140888356Y-114371164D01*
X140885111Y-114376784D01*
X140885107Y-114376790D01*
X140795781Y-114531509D01*
X140795778Y-114531514D01*
X140792533Y-114537136D01*
X140790527Y-114543308D01*
X140790525Y-114543314D01*
X140741679Y-114693649D01*
X140733311Y-114719403D01*
X140732632Y-114725855D01*
X140732631Y-114725864D01*
X140715500Y-114888860D01*
X140713278Y-114910000D01*
X138366300Y-114910000D01*
X138366300Y-113895055D01*
X143511977Y-113895055D01*
X143517888Y-113904334D01*
X144158457Y-114544903D01*
X144170000Y-114551567D01*
X144181542Y-114544903D01*
X144822107Y-113904337D01*
X144828021Y-113895054D01*
X144820590Y-113886945D01*
X144782343Y-113860164D01*
X144773011Y-113854776D01*
X144590746Y-113769785D01*
X144580604Y-113766093D01*
X144386350Y-113714043D01*
X144375735Y-113712172D01*
X144175395Y-113694645D01*
X144164605Y-113694645D01*
X143964264Y-113712172D01*
X143953649Y-113714043D01*
X143759395Y-113766093D01*
X143749253Y-113769785D01*
X143566995Y-113854774D01*
X143557650Y-113860169D01*
X143519410Y-113886944D01*
X143511977Y-113895055D01*
X138366300Y-113895055D01*
X138366300Y-112370000D01*
X140713278Y-112370000D01*
X140713957Y-112376460D01*
X140732631Y-112554135D01*
X140732632Y-112554142D01*
X140733311Y-112560597D01*
X140792533Y-112742864D01*
X140795780Y-112748488D01*
X140795781Y-112748490D01*
X140882736Y-112899103D01*
X140888356Y-112908836D01*
X140892700Y-112913661D01*
X140892702Y-112913663D01*
X140931649Y-112956918D01*
X141016593Y-113051257D01*
X141021843Y-113055071D01*
X141021846Y-113055074D01*
X141165594Y-113159513D01*
X141171639Y-113163905D01*
X141346717Y-113241854D01*
X141353075Y-113243205D01*
X141353077Y-113243206D01*
X141389260Y-113250897D01*
X141534176Y-113281700D01*
X141719321Y-113281700D01*
X141725824Y-113281700D01*
X141913283Y-113241854D01*
X142088361Y-113163905D01*
X142243407Y-113051257D01*
X142371644Y-112908836D01*
X142467467Y-112742864D01*
X142526689Y-112560597D01*
X142546722Y-112370000D01*
X143253278Y-112370000D01*
X143253957Y-112376460D01*
X143272631Y-112554135D01*
X143272632Y-112554142D01*
X143273311Y-112560597D01*
X143332533Y-112742864D01*
X143335780Y-112748488D01*
X143335781Y-112748490D01*
X143422736Y-112899103D01*
X143428356Y-112908836D01*
X143432700Y-112913661D01*
X143432702Y-112913663D01*
X143471649Y-112956918D01*
X143556593Y-113051257D01*
X143561843Y-113055071D01*
X143561846Y-113055074D01*
X143705594Y-113159513D01*
X143711639Y-113163905D01*
X143886717Y-113241854D01*
X143893075Y-113243205D01*
X143893077Y-113243206D01*
X143929260Y-113250897D01*
X144074176Y-113281700D01*
X144259321Y-113281700D01*
X144265824Y-113281700D01*
X144453283Y-113241854D01*
X144628361Y-113163905D01*
X144783407Y-113051257D01*
X144911644Y-112908836D01*
X145007467Y-112742864D01*
X145066689Y-112560597D01*
X145086722Y-112370000D01*
X145066689Y-112179403D01*
X145007467Y-111997136D01*
X144911644Y-111831164D01*
X144783407Y-111688743D01*
X144778157Y-111684928D01*
X144778153Y-111684925D01*
X144633615Y-111579912D01*
X144633613Y-111579910D01*
X144628361Y-111576095D01*
X144453283Y-111498146D01*
X144446930Y-111496795D01*
X144446922Y-111496793D01*
X144272186Y-111459652D01*
X144272183Y-111459651D01*
X144265824Y-111458300D01*
X144074176Y-111458300D01*
X144067817Y-111459651D01*
X144067813Y-111459652D01*
X143893077Y-111496793D01*
X143893066Y-111496796D01*
X143886717Y-111498146D01*
X143880779Y-111500789D01*
X143880778Y-111500790D01*
X143717572Y-111573453D01*
X143717568Y-111573455D01*
X143711639Y-111576095D01*
X143706390Y-111579908D01*
X143706384Y-111579912D01*
X143561846Y-111684925D01*
X143561837Y-111684932D01*
X143556593Y-111688743D01*
X143552249Y-111693566D01*
X143552246Y-111693570D01*
X143432702Y-111826336D01*
X143432697Y-111826342D01*
X143428356Y-111831164D01*
X143425111Y-111836784D01*
X143425107Y-111836790D01*
X143335781Y-111991509D01*
X143335778Y-111991514D01*
X143332533Y-111997136D01*
X143330527Y-112003308D01*
X143330525Y-112003314D01*
X143275319Y-112173222D01*
X143273311Y-112179403D01*
X143272632Y-112185855D01*
X143272631Y-112185864D01*
X143255500Y-112348860D01*
X143253278Y-112370000D01*
X142546722Y-112370000D01*
X142526689Y-112179403D01*
X142467467Y-111997136D01*
X142371644Y-111831164D01*
X142243407Y-111688743D01*
X142238157Y-111684928D01*
X142238153Y-111684925D01*
X142093615Y-111579912D01*
X142093613Y-111579910D01*
X142088361Y-111576095D01*
X141913283Y-111498146D01*
X141906930Y-111496795D01*
X141906922Y-111496793D01*
X141732186Y-111459652D01*
X141732183Y-111459651D01*
X141725824Y-111458300D01*
X141534176Y-111458300D01*
X141527817Y-111459651D01*
X141527813Y-111459652D01*
X141353077Y-111496793D01*
X141353066Y-111496796D01*
X141346717Y-111498146D01*
X141340779Y-111500789D01*
X141340778Y-111500790D01*
X141177572Y-111573453D01*
X141177568Y-111573455D01*
X141171639Y-111576095D01*
X141166390Y-111579908D01*
X141166384Y-111579912D01*
X141021846Y-111684925D01*
X141021837Y-111684932D01*
X141016593Y-111688743D01*
X141012249Y-111693566D01*
X141012246Y-111693570D01*
X140892702Y-111826336D01*
X140892697Y-111826342D01*
X140888356Y-111831164D01*
X140885111Y-111836784D01*
X140885107Y-111836790D01*
X140795781Y-111991509D01*
X140795778Y-111991514D01*
X140792533Y-111997136D01*
X140790527Y-112003308D01*
X140790525Y-112003314D01*
X140735319Y-112173222D01*
X140733311Y-112179403D01*
X140732632Y-112185855D01*
X140732631Y-112185864D01*
X140715500Y-112348860D01*
X140713278Y-112370000D01*
X138366300Y-112370000D01*
X138366300Y-111340427D01*
X138366772Y-111329619D01*
X138369118Y-111302801D01*
X138370064Y-111291993D01*
X138360281Y-111255485D01*
X138357945Y-111244943D01*
X138353272Y-111218441D01*
X138351388Y-111207755D01*
X138345960Y-111198355D01*
X138344710Y-111194919D01*
X138343163Y-111191601D01*
X138340354Y-111181116D01*
X138318692Y-111150179D01*
X138312880Y-111141057D01*
X138293994Y-111108345D01*
X138285681Y-111101370D01*
X138285680Y-111101368D01*
X138265055Y-111084062D01*
X138257080Y-111076754D01*
X137741274Y-110560948D01*
X138178300Y-110560948D01*
X138189933Y-110619431D01*
X138234248Y-110685752D01*
X138300569Y-110730067D01*
X138359052Y-110741700D01*
X139814852Y-110741700D01*
X139820948Y-110741700D01*
X139879431Y-110730067D01*
X139945752Y-110685752D01*
X139990067Y-110619431D01*
X140001700Y-110560948D01*
X140001700Y-109830000D01*
X140713278Y-109830000D01*
X140713957Y-109836460D01*
X140732631Y-110014135D01*
X140732632Y-110014142D01*
X140733311Y-110020597D01*
X140735319Y-110026777D01*
X140770100Y-110133824D01*
X140792533Y-110202864D01*
X140888356Y-110368836D01*
X141016593Y-110511257D01*
X141021843Y-110515071D01*
X141021846Y-110515074D01*
X141093217Y-110566928D01*
X141171639Y-110623905D01*
X141346717Y-110701854D01*
X141353075Y-110703205D01*
X141353077Y-110703206D01*
X141389260Y-110710897D01*
X141534176Y-110741700D01*
X141719321Y-110741700D01*
X141725824Y-110741700D01*
X141913283Y-110701854D01*
X142088361Y-110623905D01*
X142243407Y-110511257D01*
X142371644Y-110368836D01*
X142467467Y-110202864D01*
X142526689Y-110020597D01*
X142546722Y-109830000D01*
X143253278Y-109830000D01*
X143253957Y-109836460D01*
X143272631Y-110014135D01*
X143272632Y-110014142D01*
X143273311Y-110020597D01*
X143275319Y-110026777D01*
X143310100Y-110133824D01*
X143332533Y-110202864D01*
X143428356Y-110368836D01*
X143556593Y-110511257D01*
X143561843Y-110515071D01*
X143561846Y-110515074D01*
X143633217Y-110566928D01*
X143711639Y-110623905D01*
X143886717Y-110701854D01*
X143893075Y-110703205D01*
X143893077Y-110703206D01*
X143929260Y-110710897D01*
X144074176Y-110741700D01*
X144259321Y-110741700D01*
X144265824Y-110741700D01*
X144453283Y-110701854D01*
X144628361Y-110623905D01*
X144783407Y-110511257D01*
X144911644Y-110368836D01*
X145007467Y-110202864D01*
X145066689Y-110020597D01*
X145086722Y-109830000D01*
X145066689Y-109639403D01*
X145007467Y-109457136D01*
X144911644Y-109291164D01*
X144783407Y-109148743D01*
X144778157Y-109144928D01*
X144778153Y-109144925D01*
X144633615Y-109039912D01*
X144633613Y-109039910D01*
X144628361Y-109036095D01*
X144453283Y-108958146D01*
X144446930Y-108956795D01*
X144446922Y-108956793D01*
X144272186Y-108919652D01*
X144272183Y-108919651D01*
X144265824Y-108918300D01*
X144074176Y-108918300D01*
X144067817Y-108919651D01*
X144067813Y-108919652D01*
X143893077Y-108956793D01*
X143893066Y-108956796D01*
X143886717Y-108958146D01*
X143880779Y-108960789D01*
X143880778Y-108960790D01*
X143717572Y-109033453D01*
X143717568Y-109033455D01*
X143711639Y-109036095D01*
X143706390Y-109039908D01*
X143706384Y-109039912D01*
X143561846Y-109144925D01*
X143561837Y-109144932D01*
X143556593Y-109148743D01*
X143552249Y-109153566D01*
X143552246Y-109153570D01*
X143432702Y-109286336D01*
X143432697Y-109286342D01*
X143428356Y-109291164D01*
X143425111Y-109296784D01*
X143425107Y-109296790D01*
X143335781Y-109451509D01*
X143335778Y-109451514D01*
X143332533Y-109457136D01*
X143330527Y-109463308D01*
X143330525Y-109463314D01*
X143295500Y-109571112D01*
X143273311Y-109639403D01*
X143272632Y-109645855D01*
X143272631Y-109645864D01*
X143254190Y-109821322D01*
X143253278Y-109830000D01*
X142546722Y-109830000D01*
X142526689Y-109639403D01*
X142467467Y-109457136D01*
X142371644Y-109291164D01*
X142243407Y-109148743D01*
X142238157Y-109144928D01*
X142238153Y-109144925D01*
X142093615Y-109039912D01*
X142093613Y-109039910D01*
X142088361Y-109036095D01*
X141913283Y-108958146D01*
X141906930Y-108956795D01*
X141906922Y-108956793D01*
X141732186Y-108919652D01*
X141732183Y-108919651D01*
X141725824Y-108918300D01*
X141534176Y-108918300D01*
X141527817Y-108919651D01*
X141527813Y-108919652D01*
X141353077Y-108956793D01*
X141353066Y-108956796D01*
X141346717Y-108958146D01*
X141340779Y-108960789D01*
X141340778Y-108960790D01*
X141177572Y-109033453D01*
X141177568Y-109033455D01*
X141171639Y-109036095D01*
X141166390Y-109039908D01*
X141166384Y-109039912D01*
X141021846Y-109144925D01*
X141021837Y-109144932D01*
X141016593Y-109148743D01*
X141012249Y-109153566D01*
X141012246Y-109153570D01*
X140892702Y-109286336D01*
X140892697Y-109286342D01*
X140888356Y-109291164D01*
X140885111Y-109296784D01*
X140885107Y-109296790D01*
X140795781Y-109451509D01*
X140795778Y-109451514D01*
X140792533Y-109457136D01*
X140790527Y-109463308D01*
X140790525Y-109463314D01*
X140755500Y-109571112D01*
X140733311Y-109639403D01*
X140732632Y-109645855D01*
X140732631Y-109645864D01*
X140714190Y-109821322D01*
X140713278Y-109830000D01*
X140001700Y-109830000D01*
X140001700Y-109099052D01*
X139990067Y-109040569D01*
X139945752Y-108974248D01*
X139879431Y-108929933D01*
X139867453Y-108927550D01*
X139867452Y-108927550D01*
X139826928Y-108919489D01*
X139826923Y-108919488D01*
X139820948Y-108918300D01*
X138359052Y-108918300D01*
X138353077Y-108919488D01*
X138353071Y-108919489D01*
X138312547Y-108927550D01*
X138312545Y-108927550D01*
X138300569Y-108929933D01*
X138290418Y-108936715D01*
X138290415Y-108936717D01*
X138244401Y-108967463D01*
X138244398Y-108967465D01*
X138234248Y-108974248D01*
X138227465Y-108984398D01*
X138227463Y-108984401D01*
X138196717Y-109030415D01*
X138196715Y-109030418D01*
X138189933Y-109040569D01*
X138187550Y-109052545D01*
X138187550Y-109052547D01*
X138179489Y-109093071D01*
X138179488Y-109093077D01*
X138178300Y-109099052D01*
X138178300Y-110560948D01*
X137741274Y-110560948D01*
X137440149Y-110259823D01*
X137407256Y-110201089D01*
X137409899Y-110133824D01*
X137446689Y-110020597D01*
X137466722Y-109830000D01*
X137446689Y-109639403D01*
X137387467Y-109457136D01*
X137291644Y-109291164D01*
X137163407Y-109148743D01*
X137158157Y-109144928D01*
X137158153Y-109144925D01*
X137013615Y-109039912D01*
X137013613Y-109039910D01*
X137008361Y-109036095D01*
X136833283Y-108958146D01*
X136826930Y-108956795D01*
X136826922Y-108956793D01*
X136652186Y-108919652D01*
X136652183Y-108919651D01*
X136645824Y-108918300D01*
X136454176Y-108918300D01*
X136447817Y-108919651D01*
X136447813Y-108919652D01*
X136273077Y-108956793D01*
X136273066Y-108956796D01*
X136266717Y-108958146D01*
X136260779Y-108960789D01*
X136260778Y-108960790D01*
X136097572Y-109033453D01*
X136097568Y-109033455D01*
X136091639Y-109036095D01*
X136086390Y-109039908D01*
X136086384Y-109039912D01*
X135941846Y-109144925D01*
X135941837Y-109144932D01*
X135936593Y-109148743D01*
X135932249Y-109153566D01*
X135932246Y-109153570D01*
X135812702Y-109286336D01*
X135812697Y-109286342D01*
X135808356Y-109291164D01*
X135805111Y-109296784D01*
X135805107Y-109296790D01*
X135715781Y-109451509D01*
X135715778Y-109451514D01*
X135712533Y-109457136D01*
X135710527Y-109463308D01*
X135710525Y-109463314D01*
X135675500Y-109571112D01*
X135653311Y-109639403D01*
X135652632Y-109645855D01*
X135652631Y-109645864D01*
X135634190Y-109821322D01*
X135633278Y-109830000D01*
X135633957Y-109836460D01*
X135652631Y-110014135D01*
X135652632Y-110014142D01*
X135653311Y-110020597D01*
X135655319Y-110026777D01*
X135690100Y-110133824D01*
X135712533Y-110202864D01*
X135808356Y-110368836D01*
X135936593Y-110511257D01*
X135941843Y-110515071D01*
X135941846Y-110515074D01*
X136013217Y-110566928D01*
X136091639Y-110623905D01*
X136266717Y-110701854D01*
X136273075Y-110703205D01*
X136273077Y-110703206D01*
X136309260Y-110710897D01*
X136454176Y-110741700D01*
X136639321Y-110741700D01*
X136645824Y-110741700D01*
X136833283Y-110701854D01*
X136844160Y-110697010D01*
X136892429Y-110686307D01*
X136941048Y-110695316D01*
X136982281Y-110722607D01*
X137678981Y-111419307D01*
X137705861Y-111459535D01*
X137715300Y-111506988D01*
X137715300Y-117855612D01*
X137701785Y-117911907D01*
X137664185Y-117955930D01*
X137610698Y-117978085D01*
X137552982Y-117973543D01*
X137503619Y-117943293D01*
X137440149Y-117879823D01*
X137407256Y-117821089D01*
X137409899Y-117753824D01*
X137446689Y-117640597D01*
X137466722Y-117450000D01*
X137446689Y-117259403D01*
X137387467Y-117077136D01*
X137291644Y-116911164D01*
X137163407Y-116768743D01*
X137158157Y-116764928D01*
X137158153Y-116764925D01*
X137013615Y-116659912D01*
X137013613Y-116659910D01*
X137008361Y-116656095D01*
X136833283Y-116578146D01*
X136826930Y-116576795D01*
X136826922Y-116576793D01*
X136652186Y-116539652D01*
X136652183Y-116539651D01*
X136645824Y-116538300D01*
X136454176Y-116538300D01*
X136447817Y-116539651D01*
X136447813Y-116539652D01*
X136273077Y-116576793D01*
X136273066Y-116576796D01*
X136266717Y-116578146D01*
X136260779Y-116580789D01*
X136260778Y-116580790D01*
X136097572Y-116653453D01*
X136097568Y-116653455D01*
X136091639Y-116656095D01*
X136086389Y-116659908D01*
X136086379Y-116659915D01*
X136035685Y-116696747D01*
X135972529Y-116720047D01*
X135906505Y-116706914D01*
X135857073Y-116661219D01*
X135838800Y-116596429D01*
X135838800Y-116432919D01*
X135839272Y-116422112D01*
X135839440Y-116420188D01*
X135842563Y-116384493D01*
X135839755Y-116374013D01*
X135832786Y-116348004D01*
X135830448Y-116337463D01*
X135823888Y-116300255D01*
X135818462Y-116290857D01*
X135817212Y-116287423D01*
X135815662Y-116284100D01*
X135812854Y-116273616D01*
X135791189Y-116242676D01*
X135785385Y-116233566D01*
X135766494Y-116200845D01*
X135758181Y-116193870D01*
X135758180Y-116193868D01*
X135737561Y-116176567D01*
X135729586Y-116169259D01*
X135325902Y-115765575D01*
X134900148Y-115339822D01*
X134867256Y-115281089D01*
X134869899Y-115213824D01*
X134906689Y-115100597D01*
X134926722Y-114910000D01*
X134906689Y-114719403D01*
X134847467Y-114537136D01*
X134751644Y-114371164D01*
X134623407Y-114228743D01*
X134618157Y-114224928D01*
X134618153Y-114224925D01*
X134473615Y-114119912D01*
X134473613Y-114119910D01*
X134468361Y-114116095D01*
X134293283Y-114038146D01*
X134286930Y-114036795D01*
X134286922Y-114036793D01*
X134112186Y-113999652D01*
X134112183Y-113999651D01*
X134105824Y-113998300D01*
X133914176Y-113998300D01*
X133907817Y-113999651D01*
X133907813Y-113999652D01*
X133733077Y-114036793D01*
X133733066Y-114036796D01*
X133726717Y-114038146D01*
X133720779Y-114040789D01*
X133720778Y-114040790D01*
X133557572Y-114113453D01*
X133557568Y-114113455D01*
X133551639Y-114116095D01*
X133546390Y-114119908D01*
X133546384Y-114119912D01*
X133401846Y-114224925D01*
X133401837Y-114224932D01*
X133396593Y-114228743D01*
X133392251Y-114233564D01*
X133392250Y-114233566D01*
X133386359Y-114240109D01*
X133311648Y-114323083D01*
X133262723Y-114356332D01*
X133203958Y-114363131D01*
X133148731Y-114341931D01*
X133109611Y-114297558D01*
X133095500Y-114240109D01*
X133095500Y-113039891D01*
X133109611Y-112982442D01*
X133148731Y-112938069D01*
X133203958Y-112916869D01*
X133262723Y-112923668D01*
X133311648Y-112956916D01*
X133396593Y-113051257D01*
X133401843Y-113055071D01*
X133401846Y-113055074D01*
X133545594Y-113159513D01*
X133551639Y-113163905D01*
X133726717Y-113241854D01*
X133733075Y-113243205D01*
X133733077Y-113243206D01*
X133769260Y-113250897D01*
X133914176Y-113281700D01*
X134099321Y-113281700D01*
X134105824Y-113281700D01*
X134293283Y-113241854D01*
X134468361Y-113163905D01*
X134623407Y-113051257D01*
X134751644Y-112908836D01*
X134847467Y-112742864D01*
X134906689Y-112560597D01*
X134926722Y-112370000D01*
X134906689Y-112179403D01*
X134847467Y-111997136D01*
X134751644Y-111831164D01*
X134623407Y-111688743D01*
X134618157Y-111684928D01*
X134618153Y-111684925D01*
X134473615Y-111579912D01*
X134473613Y-111579910D01*
X134468361Y-111576095D01*
X134293283Y-111498146D01*
X134286930Y-111496795D01*
X134286922Y-111496793D01*
X134112186Y-111459652D01*
X134112183Y-111459651D01*
X134105824Y-111458300D01*
X133914176Y-111458300D01*
X133907817Y-111459651D01*
X133907813Y-111459652D01*
X133733077Y-111496793D01*
X133733066Y-111496796D01*
X133726717Y-111498146D01*
X133720779Y-111500789D01*
X133720778Y-111500790D01*
X133557572Y-111573453D01*
X133557568Y-111573455D01*
X133551639Y-111576095D01*
X133546390Y-111579908D01*
X133546384Y-111579912D01*
X133401846Y-111684925D01*
X133401837Y-111684932D01*
X133396593Y-111688743D01*
X133392251Y-111693564D01*
X133392250Y-111693566D01*
X133371191Y-111716955D01*
X133311648Y-111783083D01*
X133262723Y-111816332D01*
X133203958Y-111823131D01*
X133148731Y-111801931D01*
X133109611Y-111757558D01*
X133095500Y-111700109D01*
X133095500Y-111256188D01*
X133104939Y-111208735D01*
X133131819Y-111168507D01*
X133458945Y-110841380D01*
X133577720Y-110722604D01*
X133618947Y-110695317D01*
X133667563Y-110686307D01*
X133715834Y-110697009D01*
X133715841Y-110697012D01*
X133726717Y-110701854D01*
X133733075Y-110703205D01*
X133733077Y-110703206D01*
X133769260Y-110710897D01*
X133914176Y-110741700D01*
X134099321Y-110741700D01*
X134105824Y-110741700D01*
X134293283Y-110701854D01*
X134468361Y-110623905D01*
X134623407Y-110511257D01*
X134751644Y-110368836D01*
X134847467Y-110202864D01*
X134906689Y-110020597D01*
X134926722Y-109830000D01*
X134906689Y-109639403D01*
X134847467Y-109457136D01*
X134751644Y-109291164D01*
X134623407Y-109148743D01*
X134618157Y-109144928D01*
X134618153Y-109144925D01*
X134473615Y-109039912D01*
X134473613Y-109039910D01*
X134468361Y-109036095D01*
X134293283Y-108958146D01*
X134286930Y-108956795D01*
X134286922Y-108956793D01*
X134112186Y-108919652D01*
X134112183Y-108919651D01*
X134105824Y-108918300D01*
X133914176Y-108918300D01*
X133907817Y-108919651D01*
X133907813Y-108919652D01*
X133733077Y-108956793D01*
X133733066Y-108956796D01*
X133726717Y-108958146D01*
X133720779Y-108960789D01*
X133720778Y-108960790D01*
X133557572Y-109033453D01*
X133557568Y-109033455D01*
X133551639Y-109036095D01*
X133546390Y-109039908D01*
X133546384Y-109039912D01*
X133401846Y-109144925D01*
X133401837Y-109144932D01*
X133396593Y-109148743D01*
X133392249Y-109153566D01*
X133392246Y-109153570D01*
X133272702Y-109286336D01*
X133272697Y-109286342D01*
X133268356Y-109291164D01*
X133265111Y-109296784D01*
X133265107Y-109296790D01*
X133226887Y-109362991D01*
X133181500Y-109408378D01*
X133119500Y-109424991D01*
X133057500Y-109408378D01*
X133012113Y-109362991D01*
X132995500Y-109300991D01*
X132995500Y-108816188D01*
X133004939Y-108768735D01*
X133031819Y-108728507D01*
X133300944Y-108459382D01*
X133577720Y-108182605D01*
X133618949Y-108155317D01*
X133667567Y-108146307D01*
X133715839Y-108157011D01*
X133726717Y-108161854D01*
X133733075Y-108163205D01*
X133733077Y-108163206D01*
X133769260Y-108170897D01*
X133914176Y-108201700D01*
X134099321Y-108201700D01*
X134105824Y-108201700D01*
X134293283Y-108161854D01*
X134468361Y-108083905D01*
X134623407Y-107971257D01*
X134751644Y-107828836D01*
X134847467Y-107662864D01*
X134906689Y-107480597D01*
X134926722Y-107290000D01*
X134906689Y-107099403D01*
X134847467Y-106917136D01*
X134751644Y-106751164D01*
X134623407Y-106608743D01*
X134618157Y-106604928D01*
X134618153Y-106604925D01*
X134473615Y-106499912D01*
X134473613Y-106499910D01*
X134468361Y-106496095D01*
X134293283Y-106418146D01*
X134286930Y-106416795D01*
X134286922Y-106416793D01*
X134112186Y-106379652D01*
X134112183Y-106379651D01*
X134105824Y-106378300D01*
X133914176Y-106378300D01*
X133907817Y-106379651D01*
X133907813Y-106379652D01*
X133733077Y-106416793D01*
X133733066Y-106416796D01*
X133726717Y-106418146D01*
X133720779Y-106420789D01*
X133720778Y-106420790D01*
X133557572Y-106493453D01*
X133557568Y-106493455D01*
X133551639Y-106496095D01*
X133546390Y-106499908D01*
X133546384Y-106499912D01*
X133401846Y-106604925D01*
X133401837Y-106604932D01*
X133396593Y-106608743D01*
X133392249Y-106613566D01*
X133392246Y-106613570D01*
X133272702Y-106746336D01*
X133272697Y-106746342D01*
X133268356Y-106751164D01*
X133265111Y-106756784D01*
X133265107Y-106756790D01*
X133175781Y-106911509D01*
X133175778Y-106911514D01*
X133172533Y-106917136D01*
X133170527Y-106923308D01*
X133170525Y-106923314D01*
X133115319Y-107093222D01*
X133113311Y-107099403D01*
X133112632Y-107105855D01*
X133112631Y-107105864D01*
X133094190Y-107281322D01*
X133093278Y-107290000D01*
X133093957Y-107296460D01*
X133112631Y-107474135D01*
X133112632Y-107474142D01*
X133113311Y-107480597D01*
X133115318Y-107486775D01*
X133115319Y-107486778D01*
X133150100Y-107593823D01*
X133152743Y-107661088D01*
X133119850Y-107719822D01*
X132453714Y-108385958D01*
X132445742Y-108393264D01*
X132425114Y-108410573D01*
X132425112Y-108410574D01*
X132416806Y-108417545D01*
X132411384Y-108426934D01*
X132411380Y-108426940D01*
X132397914Y-108450264D01*
X132392112Y-108459371D01*
X132370446Y-108490316D01*
X132367639Y-108500788D01*
X132366087Y-108504118D01*
X132364831Y-108507566D01*
X132359412Y-108516955D01*
X132357529Y-108527631D01*
X132357528Y-108527635D01*
X132352853Y-108554149D01*
X132350514Y-108564697D01*
X132340736Y-108601193D01*
X132341681Y-108611996D01*
X132341681Y-108611999D01*
X132344028Y-108638819D01*
X132344500Y-108649627D01*
X132344500Y-109115685D01*
X132330389Y-109173134D01*
X132291269Y-109217507D01*
X132236042Y-109238707D01*
X132177277Y-109231908D01*
X132128350Y-109198657D01*
X132087753Y-109153570D01*
X132083407Y-109148743D01*
X132078157Y-109144928D01*
X132078153Y-109144925D01*
X131933615Y-109039912D01*
X131933613Y-109039910D01*
X131928361Y-109036095D01*
X131753283Y-108958146D01*
X131746930Y-108956795D01*
X131746922Y-108956793D01*
X131572186Y-108919652D01*
X131572183Y-108919651D01*
X131565824Y-108918300D01*
X131374176Y-108918300D01*
X131367817Y-108919651D01*
X131367813Y-108919652D01*
X131193077Y-108956793D01*
X131193066Y-108956796D01*
X131186717Y-108958146D01*
X131180779Y-108960789D01*
X131180778Y-108960790D01*
X131017572Y-109033453D01*
X131017568Y-109033455D01*
X131011639Y-109036095D01*
X131006390Y-109039908D01*
X131006384Y-109039912D01*
X130861846Y-109144925D01*
X130861837Y-109144932D01*
X130856593Y-109148743D01*
X130852249Y-109153566D01*
X130852246Y-109153570D01*
X130732702Y-109286336D01*
X130732697Y-109286342D01*
X130728356Y-109291164D01*
X130725111Y-109296784D01*
X130725107Y-109296790D01*
X130635781Y-109451509D01*
X130635778Y-109451514D01*
X130632533Y-109457136D01*
X130630527Y-109463308D01*
X130630525Y-109463314D01*
X130595500Y-109571112D01*
X130573311Y-109639403D01*
X130572632Y-109645855D01*
X130572631Y-109645864D01*
X130554190Y-109821322D01*
X130553278Y-109830000D01*
X130553957Y-109836460D01*
X130572631Y-110014135D01*
X130572632Y-110014142D01*
X130573311Y-110020597D01*
X130575319Y-110026777D01*
X130610100Y-110133824D01*
X130632533Y-110202864D01*
X130728356Y-110368836D01*
X130856593Y-110511257D01*
X130861846Y-110515074D01*
X130861850Y-110515077D01*
X130928406Y-110563433D01*
X130965808Y-110607070D01*
X130979518Y-110662883D01*
X130966591Y-110718883D01*
X130929803Y-110763039D01*
X130877058Y-110785866D01*
X130867641Y-110787526D01*
X130867632Y-110787529D01*
X130856955Y-110789412D01*
X130847566Y-110794831D01*
X130844118Y-110796087D01*
X130840788Y-110797639D01*
X130830316Y-110800446D01*
X130799371Y-110822112D01*
X130790264Y-110827914D01*
X130766940Y-110841380D01*
X130766934Y-110841384D01*
X130757545Y-110846806D01*
X130750574Y-110855112D01*
X130750573Y-110855114D01*
X130733262Y-110875744D01*
X130725956Y-110883716D01*
X130023714Y-111585958D01*
X130015742Y-111593264D01*
X129995114Y-111610573D01*
X129995112Y-111610574D01*
X129986806Y-111617545D01*
X129981384Y-111626934D01*
X129981380Y-111626940D01*
X129967914Y-111650264D01*
X129962112Y-111659371D01*
X129940446Y-111690316D01*
X129937639Y-111700788D01*
X129936087Y-111704118D01*
X129934831Y-111707566D01*
X129929412Y-111716955D01*
X129927529Y-111727631D01*
X129927528Y-111727635D01*
X129922853Y-111754149D01*
X129920514Y-111764697D01*
X129910736Y-111801193D01*
X129911681Y-111811996D01*
X129911681Y-111811999D01*
X129914028Y-111838819D01*
X129914500Y-111849627D01*
X129914500Y-115370373D01*
X129914028Y-115381181D01*
X129911681Y-115408000D01*
X129911681Y-115408003D01*
X129910736Y-115418807D01*
X129913543Y-115429283D01*
X129920513Y-115455297D01*
X129922852Y-115465852D01*
X129927527Y-115492361D01*
X129927528Y-115492366D01*
X129929412Y-115503045D01*
X129934831Y-115512432D01*
X129936084Y-115515873D01*
X129937638Y-115519206D01*
X129940446Y-115529684D01*
X129962112Y-115560627D01*
X129967914Y-115569735D01*
X129981381Y-115593060D01*
X129981383Y-115593062D01*
X129986806Y-115602455D01*
X130015757Y-115626747D01*
X130023718Y-115634044D01*
X130626550Y-116236876D01*
X130633859Y-116244851D01*
X130658145Y-116273794D01*
X130690863Y-116292683D01*
X130699979Y-116298492D01*
X130730916Y-116320154D01*
X130741401Y-116322963D01*
X130744719Y-116324510D01*
X130748155Y-116325760D01*
X130757555Y-116331188D01*
X130794743Y-116337745D01*
X130805285Y-116340081D01*
X130841793Y-116349864D01*
X130879419Y-116346571D01*
X130890227Y-116346100D01*
X131124526Y-116346100D01*
X131188761Y-116364035D01*
X131234415Y-116412651D01*
X131248281Y-116477886D01*
X131226348Y-116540869D01*
X131174961Y-116583380D01*
X131096401Y-116618357D01*
X131011639Y-116656095D01*
X131006390Y-116659908D01*
X131006384Y-116659912D01*
X130861846Y-116764925D01*
X130861837Y-116764932D01*
X130856593Y-116768743D01*
X130852249Y-116773566D01*
X130852246Y-116773570D01*
X130732702Y-116906336D01*
X130732697Y-116906342D01*
X130728356Y-116911164D01*
X130725111Y-116916784D01*
X130725107Y-116916790D01*
X130635781Y-117071509D01*
X130635778Y-117071514D01*
X130632533Y-117077136D01*
X130630527Y-117083308D01*
X130630525Y-117083314D01*
X130575319Y-117253222D01*
X130573311Y-117259403D01*
X130572632Y-117265855D01*
X130572631Y-117265864D01*
X130554190Y-117441322D01*
X130553278Y-117450000D01*
X130553957Y-117456460D01*
X130572631Y-117634135D01*
X130572632Y-117634142D01*
X130573311Y-117640597D01*
X130575319Y-117646777D01*
X130610100Y-117753822D01*
X130612743Y-117821087D01*
X130579850Y-117879821D01*
X127518314Y-120941358D01*
X127510342Y-120948664D01*
X127489714Y-120965973D01*
X127489712Y-120965974D01*
X127481406Y-120972945D01*
X127475984Y-120982334D01*
X127475980Y-120982340D01*
X127462514Y-121005664D01*
X127456712Y-121014771D01*
X127435046Y-121045716D01*
X127432239Y-121056188D01*
X127430687Y-121059518D01*
X127429431Y-121062966D01*
X127424012Y-121072355D01*
X127422129Y-121083031D01*
X127422128Y-121083035D01*
X127417453Y-121109549D01*
X127415114Y-121120097D01*
X127405336Y-121156593D01*
X127406281Y-121167396D01*
X127406281Y-121167399D01*
X127408628Y-121194219D01*
X127409100Y-121205027D01*
X127409100Y-144741473D01*
X127408628Y-144752281D01*
X127406281Y-144779100D01*
X127406281Y-144779103D01*
X127405336Y-144789907D01*
X126570555Y-144789907D01*
X126575252Y-111459535D01*
X126579260Y-83022551D01*
X127582688Y-83022551D01*
X127583056Y-83033780D01*
X127635168Y-83228263D01*
X127638856Y-83238397D01*
X127734113Y-83442676D01*
X127739501Y-83452008D01*
X127868784Y-83636643D01*
X127875721Y-83644909D01*
X128035090Y-83804278D01*
X128043356Y-83811215D01*
X128227991Y-83940498D01*
X128237323Y-83945886D01*
X128441602Y-84041143D01*
X128451736Y-84044831D01*
X128646219Y-84096943D01*
X128657448Y-84097311D01*
X128660000Y-84086369D01*
X129160000Y-84086369D01*
X129162551Y-84097311D01*
X129173780Y-84096943D01*
X129368263Y-84044831D01*
X129378397Y-84041143D01*
X129582676Y-83945886D01*
X129592008Y-83940498D01*
X129776643Y-83811215D01*
X129784909Y-83804278D01*
X129944278Y-83644909D01*
X129951215Y-83636643D01*
X130080498Y-83452008D01*
X130085886Y-83442676D01*
X130181143Y-83238397D01*
X130184832Y-83228261D01*
X130216158Y-83111351D01*
X130247679Y-83056339D01*
X130302274Y-83024100D01*
X130365669Y-83023062D01*
X130421289Y-83053498D01*
X130454594Y-83107449D01*
X130455778Y-83111351D01*
X130474768Y-83173954D01*
X130477638Y-83179323D01*
X130477640Y-83179328D01*
X130569444Y-83351079D01*
X130572315Y-83356450D01*
X130703590Y-83516410D01*
X130863550Y-83647685D01*
X130954798Y-83696458D01*
X131040676Y-83742362D01*
X131040678Y-83742363D01*
X131046046Y-83745232D01*
X131049144Y-83746171D01*
X131088183Y-83772257D01*
X131115061Y-83812485D01*
X131124500Y-83859937D01*
X131124500Y-83925673D01*
X131124028Y-83936481D01*
X131121681Y-83963300D01*
X131121681Y-83963303D01*
X131120736Y-83974107D01*
X131123543Y-83984583D01*
X131130513Y-84010597D01*
X131132852Y-84021152D01*
X131137527Y-84047661D01*
X131137528Y-84047666D01*
X131139412Y-84058345D01*
X131144831Y-84067732D01*
X131146084Y-84071173D01*
X131147638Y-84074506D01*
X131150446Y-84084984D01*
X131172112Y-84115927D01*
X131177914Y-84125035D01*
X131191381Y-84148360D01*
X131191383Y-84148362D01*
X131196806Y-84157755D01*
X131225757Y-84182047D01*
X131233718Y-84189344D01*
X136188181Y-89143808D01*
X136215061Y-89184036D01*
X136224500Y-89231489D01*
X136224500Y-106356415D01*
X136215471Y-106402866D01*
X136189698Y-106442553D01*
X136150935Y-106469695D01*
X136097572Y-106493453D01*
X136097568Y-106493455D01*
X136091639Y-106496095D01*
X136086390Y-106499908D01*
X136086384Y-106499912D01*
X135941846Y-106604925D01*
X135941837Y-106604932D01*
X135936593Y-106608743D01*
X135932249Y-106613566D01*
X135932246Y-106613570D01*
X135812702Y-106746336D01*
X135812697Y-106746342D01*
X135808356Y-106751164D01*
X135805111Y-106756784D01*
X135805107Y-106756790D01*
X135715781Y-106911509D01*
X135715778Y-106911514D01*
X135712533Y-106917136D01*
X135710527Y-106923308D01*
X135710525Y-106923314D01*
X135655319Y-107093222D01*
X135653311Y-107099403D01*
X135652632Y-107105855D01*
X135652631Y-107105864D01*
X135634190Y-107281322D01*
X135633278Y-107290000D01*
X135633957Y-107296460D01*
X135652631Y-107474135D01*
X135652632Y-107474142D01*
X135653311Y-107480597D01*
X135712533Y-107662864D01*
X135808356Y-107828836D01*
X135936593Y-107971257D01*
X135941843Y-107975071D01*
X135941846Y-107975074D01*
X136085594Y-108079513D01*
X136091639Y-108083905D01*
X136266717Y-108161854D01*
X136273075Y-108163205D01*
X136273077Y-108163206D01*
X136309260Y-108170897D01*
X136454176Y-108201700D01*
X136639321Y-108201700D01*
X136645824Y-108201700D01*
X136833283Y-108161854D01*
X137008361Y-108083905D01*
X137163407Y-107971257D01*
X137291644Y-107828836D01*
X137387467Y-107662864D01*
X137446689Y-107480597D01*
X137466722Y-107290000D01*
X138173278Y-107290000D01*
X138173957Y-107296460D01*
X138192631Y-107474135D01*
X138192632Y-107474142D01*
X138193311Y-107480597D01*
X138252533Y-107662864D01*
X138348356Y-107828836D01*
X138476593Y-107971257D01*
X138481843Y-107975071D01*
X138481846Y-107975074D01*
X138625594Y-108079513D01*
X138631639Y-108083905D01*
X138806717Y-108161854D01*
X138813075Y-108163205D01*
X138813077Y-108163206D01*
X138849260Y-108170897D01*
X138994176Y-108201700D01*
X139179321Y-108201700D01*
X139185824Y-108201700D01*
X139373283Y-108161854D01*
X139548361Y-108083905D01*
X139703407Y-107971257D01*
X139831644Y-107828836D01*
X139927467Y-107662864D01*
X139986689Y-107480597D01*
X140006722Y-107290000D01*
X140713278Y-107290000D01*
X140713957Y-107296460D01*
X140732631Y-107474135D01*
X140732632Y-107474142D01*
X140733311Y-107480597D01*
X140792533Y-107662864D01*
X140888356Y-107828836D01*
X141016593Y-107971257D01*
X141021843Y-107975071D01*
X141021846Y-107975074D01*
X141165594Y-108079513D01*
X141171639Y-108083905D01*
X141346717Y-108161854D01*
X141353075Y-108163205D01*
X141353077Y-108163206D01*
X141389260Y-108170897D01*
X141534176Y-108201700D01*
X141719321Y-108201700D01*
X141725824Y-108201700D01*
X141913283Y-108161854D01*
X142088361Y-108083905D01*
X142243407Y-107971257D01*
X142371644Y-107828836D01*
X142467467Y-107662864D01*
X142526689Y-107480597D01*
X142546722Y-107290000D01*
X142526689Y-107099403D01*
X142467467Y-106917136D01*
X142371644Y-106751164D01*
X142243407Y-106608743D01*
X142238157Y-106604928D01*
X142238153Y-106604925D01*
X142093615Y-106499912D01*
X142093613Y-106499910D01*
X142088361Y-106496095D01*
X141913283Y-106418146D01*
X141906930Y-106416795D01*
X141906922Y-106416793D01*
X141732186Y-106379652D01*
X141732183Y-106379651D01*
X141725824Y-106378300D01*
X141534176Y-106378300D01*
X141527817Y-106379651D01*
X141527813Y-106379652D01*
X141353077Y-106416793D01*
X141353066Y-106416796D01*
X141346717Y-106418146D01*
X141340779Y-106420789D01*
X141340778Y-106420790D01*
X141177572Y-106493453D01*
X141177568Y-106493455D01*
X141171639Y-106496095D01*
X141166390Y-106499908D01*
X141166384Y-106499912D01*
X141021846Y-106604925D01*
X141021837Y-106604932D01*
X141016593Y-106608743D01*
X141012249Y-106613566D01*
X141012246Y-106613570D01*
X140892702Y-106746336D01*
X140892697Y-106746342D01*
X140888356Y-106751164D01*
X140885111Y-106756784D01*
X140885107Y-106756790D01*
X140795781Y-106911509D01*
X140795778Y-106911514D01*
X140792533Y-106917136D01*
X140790527Y-106923308D01*
X140790525Y-106923314D01*
X140735319Y-107093222D01*
X140733311Y-107099403D01*
X140732632Y-107105855D01*
X140732631Y-107105864D01*
X140714190Y-107281322D01*
X140713278Y-107290000D01*
X140006722Y-107290000D01*
X139986689Y-107099403D01*
X139927467Y-106917136D01*
X139831644Y-106751164D01*
X139703407Y-106608743D01*
X139698157Y-106604928D01*
X139698153Y-106604925D01*
X139553615Y-106499912D01*
X139553613Y-106499910D01*
X139548361Y-106496095D01*
X139373283Y-106418146D01*
X139366930Y-106416795D01*
X139366922Y-106416793D01*
X139192186Y-106379652D01*
X139192183Y-106379651D01*
X139185824Y-106378300D01*
X138994176Y-106378300D01*
X138987817Y-106379651D01*
X138987813Y-106379652D01*
X138813077Y-106416793D01*
X138813066Y-106416796D01*
X138806717Y-106418146D01*
X138800779Y-106420789D01*
X138800778Y-106420790D01*
X138637572Y-106493453D01*
X138637568Y-106493455D01*
X138631639Y-106496095D01*
X138626390Y-106499908D01*
X138626384Y-106499912D01*
X138481846Y-106604925D01*
X138481837Y-106604932D01*
X138476593Y-106608743D01*
X138472249Y-106613566D01*
X138472246Y-106613570D01*
X138352702Y-106746336D01*
X138352697Y-106746342D01*
X138348356Y-106751164D01*
X138345111Y-106756784D01*
X138345107Y-106756790D01*
X138255781Y-106911509D01*
X138255778Y-106911514D01*
X138252533Y-106917136D01*
X138250527Y-106923308D01*
X138250525Y-106923314D01*
X138195319Y-107093222D01*
X138193311Y-107099403D01*
X138192632Y-107105855D01*
X138192631Y-107105864D01*
X138174190Y-107281322D01*
X138173278Y-107290000D01*
X137466722Y-107290000D01*
X137446689Y-107099403D01*
X137387467Y-106917136D01*
X137291644Y-106751164D01*
X137163407Y-106608743D01*
X137158157Y-106604928D01*
X137158153Y-106604925D01*
X137013615Y-106499912D01*
X137013613Y-106499910D01*
X137008361Y-106496095D01*
X136949064Y-106469694D01*
X136910302Y-106442553D01*
X136884529Y-106402866D01*
X136875500Y-106356415D01*
X136875500Y-89064919D01*
X136875972Y-89054112D01*
X136876069Y-89052999D01*
X136879263Y-89016493D01*
X136869486Y-88980004D01*
X136867148Y-88969463D01*
X136860588Y-88932255D01*
X136855162Y-88922857D01*
X136853912Y-88919423D01*
X136852362Y-88916100D01*
X136849554Y-88905616D01*
X136827889Y-88874676D01*
X136822085Y-88865566D01*
X136803194Y-88832845D01*
X136794881Y-88825870D01*
X136794880Y-88825868D01*
X136774261Y-88808567D01*
X136766286Y-88801259D01*
X131878535Y-83913509D01*
X131848474Y-83864725D01*
X131843558Y-83807633D01*
X131864836Y-83754428D01*
X131907763Y-83716470D01*
X132031075Y-83650558D01*
X132031074Y-83650558D01*
X132036450Y-83647685D01*
X132196410Y-83516410D01*
X132327685Y-83356450D01*
X132425232Y-83173954D01*
X132485300Y-82975934D01*
X132505583Y-82770000D01*
X132934417Y-82770000D01*
X132935014Y-82776061D01*
X132954102Y-82969869D01*
X132954103Y-82969875D01*
X132954700Y-82975934D01*
X132956467Y-82981759D01*
X132956468Y-82981764D01*
X132995778Y-83111351D01*
X133014768Y-83173954D01*
X133017638Y-83179323D01*
X133017640Y-83179328D01*
X133109444Y-83351079D01*
X133112315Y-83356450D01*
X133243590Y-83516410D01*
X133403550Y-83647685D01*
X133586046Y-83745232D01*
X133784066Y-83805300D01*
X133990000Y-83825583D01*
X134195934Y-83805300D01*
X134393954Y-83745232D01*
X134576450Y-83647685D01*
X134736410Y-83516410D01*
X134867685Y-83356450D01*
X134965232Y-83173954D01*
X135025300Y-82975934D01*
X135045583Y-82770000D01*
X135474417Y-82770000D01*
X135475014Y-82776061D01*
X135494102Y-82969869D01*
X135494103Y-82969875D01*
X135494700Y-82975934D01*
X135496467Y-82981759D01*
X135496468Y-82981764D01*
X135535778Y-83111351D01*
X135554768Y-83173954D01*
X135557638Y-83179323D01*
X135557640Y-83179328D01*
X135649444Y-83351079D01*
X135652315Y-83356450D01*
X135783590Y-83516410D01*
X135943550Y-83647685D01*
X136126046Y-83745232D01*
X136324066Y-83805300D01*
X136530000Y-83825583D01*
X136735934Y-83805300D01*
X136933954Y-83745232D01*
X137116450Y-83647685D01*
X137276410Y-83516410D01*
X137407685Y-83356450D01*
X137505232Y-83173954D01*
X137565300Y-82975934D01*
X137585583Y-82770000D01*
X138014417Y-82770000D01*
X138015014Y-82776061D01*
X138034102Y-82969869D01*
X138034103Y-82969875D01*
X138034700Y-82975934D01*
X138036467Y-82981759D01*
X138036468Y-82981764D01*
X138075778Y-83111351D01*
X138094768Y-83173954D01*
X138097638Y-83179323D01*
X138097640Y-83179328D01*
X138189444Y-83351079D01*
X138192315Y-83356450D01*
X138323590Y-83516410D01*
X138483550Y-83647685D01*
X138666046Y-83745232D01*
X138864066Y-83805300D01*
X139070000Y-83825583D01*
X139275934Y-83805300D01*
X139473954Y-83745232D01*
X139656450Y-83647685D01*
X139816410Y-83516410D01*
X139947685Y-83356450D01*
X140045232Y-83173954D01*
X140105300Y-82975934D01*
X140125583Y-82770000D01*
X140554417Y-82770000D01*
X140555014Y-82776061D01*
X140574102Y-82969869D01*
X140574103Y-82969875D01*
X140574700Y-82975934D01*
X140576467Y-82981759D01*
X140576468Y-82981764D01*
X140615778Y-83111351D01*
X140634768Y-83173954D01*
X140637638Y-83179323D01*
X140637640Y-83179328D01*
X140729444Y-83351079D01*
X140732315Y-83356450D01*
X140863590Y-83516410D01*
X141023550Y-83647685D01*
X141206046Y-83745232D01*
X141404066Y-83805300D01*
X141610000Y-83825583D01*
X141815934Y-83805300D01*
X142013954Y-83745232D01*
X142196450Y-83647685D01*
X142356410Y-83516410D01*
X142487685Y-83356450D01*
X142585232Y-83173954D01*
X142645300Y-82975934D01*
X142665583Y-82770000D01*
X143094417Y-82770000D01*
X143095014Y-82776061D01*
X143114102Y-82969869D01*
X143114103Y-82969875D01*
X143114700Y-82975934D01*
X143116467Y-82981759D01*
X143116468Y-82981764D01*
X143155778Y-83111351D01*
X143174768Y-83173954D01*
X143177638Y-83179323D01*
X143177640Y-83179328D01*
X143269444Y-83351079D01*
X143272315Y-83356450D01*
X143403590Y-83516410D01*
X143563550Y-83647685D01*
X143746046Y-83745232D01*
X143944066Y-83805300D01*
X144150000Y-83825583D01*
X144355934Y-83805300D01*
X144553954Y-83745232D01*
X144736450Y-83647685D01*
X144896410Y-83516410D01*
X145027685Y-83356450D01*
X145125232Y-83173954D01*
X145145406Y-83107448D01*
X145178709Y-83053499D01*
X145234329Y-83023062D01*
X145297724Y-83024099D01*
X145352319Y-83056338D01*
X145383841Y-83111350D01*
X145415168Y-83228263D01*
X145418856Y-83238397D01*
X145514113Y-83442676D01*
X145519501Y-83452008D01*
X145648784Y-83636643D01*
X145655721Y-83644909D01*
X145815090Y-83804278D01*
X145823356Y-83811215D01*
X146007991Y-83940498D01*
X146017323Y-83945886D01*
X146221602Y-84041143D01*
X146231736Y-84044831D01*
X146426219Y-84096943D01*
X146437448Y-84097311D01*
X146440000Y-84086369D01*
X146940000Y-84086369D01*
X146942551Y-84097311D01*
X146953780Y-84096943D01*
X147148263Y-84044831D01*
X147158397Y-84041143D01*
X147362676Y-83945886D01*
X147372008Y-83940498D01*
X147556643Y-83811215D01*
X147564909Y-83804278D01*
X147724278Y-83644909D01*
X147731215Y-83636643D01*
X147860498Y-83452008D01*
X147865886Y-83442676D01*
X147961143Y-83238397D01*
X147964831Y-83228263D01*
X148016943Y-83033780D01*
X148017311Y-83022551D01*
X148006369Y-83020000D01*
X146956326Y-83020000D01*
X146943450Y-83023450D01*
X146940000Y-83036326D01*
X146940000Y-84086369D01*
X146440000Y-84086369D01*
X146440000Y-82503674D01*
X146940000Y-82503674D01*
X146943450Y-82516549D01*
X146956326Y-82520000D01*
X148006369Y-82520000D01*
X148017311Y-82517448D01*
X148016943Y-82506219D01*
X147964831Y-82311736D01*
X147961143Y-82301602D01*
X147865889Y-82097332D01*
X147860491Y-82087982D01*
X147731215Y-81903357D01*
X147724280Y-81895092D01*
X147564909Y-81735721D01*
X147556643Y-81728784D01*
X147374969Y-81601575D01*
X147336104Y-81557257D01*
X147322093Y-81500000D01*
X147336104Y-81442743D01*
X147374969Y-81398425D01*
X147556643Y-81271215D01*
X147564909Y-81264278D01*
X147724278Y-81104909D01*
X147731215Y-81096643D01*
X147860498Y-80912008D01*
X147865886Y-80902676D01*
X147961143Y-80698397D01*
X147964831Y-80688263D01*
X148016943Y-80493780D01*
X148017311Y-80482551D01*
X148006369Y-80480000D01*
X146956326Y-80480000D01*
X146943450Y-80483450D01*
X146940000Y-80496326D01*
X146940000Y-82503674D01*
X146440000Y-82503674D01*
X146440000Y-79963674D01*
X146940000Y-79963674D01*
X146943450Y-79976549D01*
X146956326Y-79980000D01*
X148006369Y-79980000D01*
X148017311Y-79977448D01*
X148016943Y-79966219D01*
X147964831Y-79771736D01*
X147961143Y-79761602D01*
X147865889Y-79557332D01*
X147860491Y-79547982D01*
X147731215Y-79363357D01*
X147724280Y-79355092D01*
X147564909Y-79195721D01*
X147556643Y-79188784D01*
X147372008Y-79059501D01*
X147362676Y-79054113D01*
X147158397Y-78958856D01*
X147148263Y-78955168D01*
X146953780Y-78903056D01*
X146942551Y-78902688D01*
X146940000Y-78913631D01*
X146940000Y-79963674D01*
X146440000Y-79963674D01*
X146440000Y-78913631D01*
X146437448Y-78902688D01*
X146426219Y-78903056D01*
X146231736Y-78955168D01*
X146221602Y-78958856D01*
X146017332Y-79054110D01*
X146007982Y-79059508D01*
X145823357Y-79188784D01*
X145815092Y-79195719D01*
X145655719Y-79355092D01*
X145648784Y-79363357D01*
X145519508Y-79547982D01*
X145514110Y-79557332D01*
X145418856Y-79761602D01*
X145415168Y-79771736D01*
X145383841Y-79888649D01*
X145352319Y-79943661D01*
X145297724Y-79975900D01*
X145234329Y-79976937D01*
X145178709Y-79946501D01*
X145145405Y-79892549D01*
X145144222Y-79888649D01*
X145125232Y-79826046D01*
X145027685Y-79643550D01*
X144896410Y-79483590D01*
X144736450Y-79352315D01*
X144692616Y-79328885D01*
X144559328Y-79257640D01*
X144559323Y-79257638D01*
X144553954Y-79254768D01*
X144517356Y-79243666D01*
X144361764Y-79196468D01*
X144361759Y-79196467D01*
X144355934Y-79194700D01*
X144349875Y-79194103D01*
X144349869Y-79194102D01*
X144156061Y-79175014D01*
X144150000Y-79174417D01*
X144143939Y-79175014D01*
X143950130Y-79194102D01*
X143950122Y-79194103D01*
X143944066Y-79194700D01*
X143938242Y-79196466D01*
X143938235Y-79196468D01*
X143751877Y-79252999D01*
X143751875Y-79252999D01*
X143746046Y-79254768D01*
X143740679Y-79257636D01*
X143740671Y-79257640D01*
X143568920Y-79349444D01*
X143568915Y-79349447D01*
X143563550Y-79352315D01*
X143558846Y-79356174D01*
X143558842Y-79356178D01*
X143408296Y-79479727D01*
X143408290Y-79479732D01*
X143403590Y-79483590D01*
X143399732Y-79488290D01*
X143399727Y-79488296D01*
X143276178Y-79638842D01*
X143276174Y-79638846D01*
X143272315Y-79643550D01*
X143269447Y-79648915D01*
X143269444Y-79648920D01*
X143177640Y-79820671D01*
X143177636Y-79820679D01*
X143174768Y-79826046D01*
X143172999Y-79831875D01*
X143172999Y-79831877D01*
X143116468Y-80018235D01*
X143116466Y-80018242D01*
X143114700Y-80024066D01*
X143114103Y-80030122D01*
X143114102Y-80030130D01*
X143095890Y-80215040D01*
X143094417Y-80230000D01*
X143095014Y-80236061D01*
X143114102Y-80429869D01*
X143114103Y-80429875D01*
X143114700Y-80435934D01*
X143116467Y-80441759D01*
X143116468Y-80441764D01*
X143163666Y-80597356D01*
X143174768Y-80633954D01*
X143177638Y-80639323D01*
X143177640Y-80639328D01*
X143269444Y-80811079D01*
X143272315Y-80816450D01*
X143403590Y-80976410D01*
X143563550Y-81107685D01*
X143746046Y-81205232D01*
X143944066Y-81265300D01*
X144150000Y-81285583D01*
X144355934Y-81265300D01*
X144553954Y-81205232D01*
X144736450Y-81107685D01*
X144896410Y-80976410D01*
X145027685Y-80816450D01*
X145125232Y-80633954D01*
X145145406Y-80567448D01*
X145178709Y-80513499D01*
X145234329Y-80483062D01*
X145297724Y-80484099D01*
X145352319Y-80516338D01*
X145383841Y-80571350D01*
X145415168Y-80688263D01*
X145418856Y-80698397D01*
X145514113Y-80902676D01*
X145519501Y-80912008D01*
X145648784Y-81096643D01*
X145655721Y-81104909D01*
X145815090Y-81264278D01*
X145823356Y-81271215D01*
X146005031Y-81398425D01*
X146043896Y-81442743D01*
X146057907Y-81500000D01*
X146043896Y-81557257D01*
X146005031Y-81601575D01*
X145823352Y-81728788D01*
X145815092Y-81735719D01*
X145655719Y-81895092D01*
X145648784Y-81903357D01*
X145519508Y-82087982D01*
X145514110Y-82097332D01*
X145418856Y-82301602D01*
X145415168Y-82311736D01*
X145383841Y-82428649D01*
X145352319Y-82483661D01*
X145297724Y-82515900D01*
X145234329Y-82516937D01*
X145178709Y-82486501D01*
X145145405Y-82432549D01*
X145144222Y-82428648D01*
X145125232Y-82366046D01*
X145027685Y-82183550D01*
X144896410Y-82023590D01*
X144736450Y-81892315D01*
X144731079Y-81889444D01*
X144559328Y-81797640D01*
X144559323Y-81797638D01*
X144553954Y-81794768D01*
X144493656Y-81776477D01*
X144361764Y-81736468D01*
X144361759Y-81736467D01*
X144355934Y-81734700D01*
X144349875Y-81734103D01*
X144349869Y-81734102D01*
X144156061Y-81715014D01*
X144150000Y-81714417D01*
X144143939Y-81715014D01*
X143950130Y-81734102D01*
X143950122Y-81734103D01*
X143944066Y-81734700D01*
X143938242Y-81736466D01*
X143938235Y-81736468D01*
X143751877Y-81792999D01*
X143751875Y-81792999D01*
X143746046Y-81794768D01*
X143740679Y-81797636D01*
X143740671Y-81797640D01*
X143568920Y-81889444D01*
X143568915Y-81889447D01*
X143563550Y-81892315D01*
X143558846Y-81896174D01*
X143558842Y-81896178D01*
X143408296Y-82019727D01*
X143408290Y-82019732D01*
X143403590Y-82023590D01*
X143399732Y-82028290D01*
X143399727Y-82028296D01*
X143276178Y-82178842D01*
X143276174Y-82178846D01*
X143272315Y-82183550D01*
X143269447Y-82188915D01*
X143269444Y-82188920D01*
X143177640Y-82360671D01*
X143177636Y-82360679D01*
X143174768Y-82366046D01*
X143172999Y-82371875D01*
X143172999Y-82371877D01*
X143116468Y-82558235D01*
X143116466Y-82558242D01*
X143114700Y-82564066D01*
X143114103Y-82570122D01*
X143114102Y-82570130D01*
X143095890Y-82755040D01*
X143094417Y-82770000D01*
X142665583Y-82770000D01*
X142645300Y-82564066D01*
X142585232Y-82366046D01*
X142487685Y-82183550D01*
X142356410Y-82023590D01*
X142196450Y-81892315D01*
X142191079Y-81889444D01*
X142019328Y-81797640D01*
X142019323Y-81797638D01*
X142013954Y-81794768D01*
X141953656Y-81776477D01*
X141821764Y-81736468D01*
X141821759Y-81736467D01*
X141815934Y-81734700D01*
X141809875Y-81734103D01*
X141809869Y-81734102D01*
X141616061Y-81715014D01*
X141610000Y-81714417D01*
X141603939Y-81715014D01*
X141410130Y-81734102D01*
X141410122Y-81734103D01*
X141404066Y-81734700D01*
X141398242Y-81736466D01*
X141398235Y-81736468D01*
X141211877Y-81792999D01*
X141211875Y-81792999D01*
X141206046Y-81794768D01*
X141200679Y-81797636D01*
X141200671Y-81797640D01*
X141028920Y-81889444D01*
X141028915Y-81889447D01*
X141023550Y-81892315D01*
X141018846Y-81896174D01*
X141018842Y-81896178D01*
X140868296Y-82019727D01*
X140868290Y-82019732D01*
X140863590Y-82023590D01*
X140859732Y-82028290D01*
X140859727Y-82028296D01*
X140736178Y-82178842D01*
X140736174Y-82178846D01*
X140732315Y-82183550D01*
X140729447Y-82188915D01*
X140729444Y-82188920D01*
X140637640Y-82360671D01*
X140637636Y-82360679D01*
X140634768Y-82366046D01*
X140632999Y-82371875D01*
X140632999Y-82371877D01*
X140576468Y-82558235D01*
X140576466Y-82558242D01*
X140574700Y-82564066D01*
X140574103Y-82570122D01*
X140574102Y-82570130D01*
X140555890Y-82755040D01*
X140554417Y-82770000D01*
X140125583Y-82770000D01*
X140105300Y-82564066D01*
X140045232Y-82366046D01*
X139947685Y-82183550D01*
X139816410Y-82023590D01*
X139656450Y-81892315D01*
X139651079Y-81889444D01*
X139479328Y-81797640D01*
X139479323Y-81797638D01*
X139473954Y-81794768D01*
X139413656Y-81776477D01*
X139281764Y-81736468D01*
X139281759Y-81736467D01*
X139275934Y-81734700D01*
X139269875Y-81734103D01*
X139269869Y-81734102D01*
X139076061Y-81715014D01*
X139070000Y-81714417D01*
X139063939Y-81715014D01*
X138870130Y-81734102D01*
X138870122Y-81734103D01*
X138864066Y-81734700D01*
X138858242Y-81736466D01*
X138858235Y-81736468D01*
X138671877Y-81792999D01*
X138671875Y-81792999D01*
X138666046Y-81794768D01*
X138660679Y-81797636D01*
X138660671Y-81797640D01*
X138488920Y-81889444D01*
X138488915Y-81889447D01*
X138483550Y-81892315D01*
X138478846Y-81896174D01*
X138478842Y-81896178D01*
X138328296Y-82019727D01*
X138328290Y-82019732D01*
X138323590Y-82023590D01*
X138319732Y-82028290D01*
X138319727Y-82028296D01*
X138196178Y-82178842D01*
X138196174Y-82178846D01*
X138192315Y-82183550D01*
X138189447Y-82188915D01*
X138189444Y-82188920D01*
X138097640Y-82360671D01*
X138097636Y-82360679D01*
X138094768Y-82366046D01*
X138092999Y-82371875D01*
X138092999Y-82371877D01*
X138036468Y-82558235D01*
X138036466Y-82558242D01*
X138034700Y-82564066D01*
X138034103Y-82570122D01*
X138034102Y-82570130D01*
X138015890Y-82755040D01*
X138014417Y-82770000D01*
X137585583Y-82770000D01*
X137565300Y-82564066D01*
X137505232Y-82366046D01*
X137407685Y-82183550D01*
X137276410Y-82023590D01*
X137116450Y-81892315D01*
X137111079Y-81889444D01*
X136939328Y-81797640D01*
X136939323Y-81797638D01*
X136933954Y-81794768D01*
X136873656Y-81776477D01*
X136741764Y-81736468D01*
X136741759Y-81736467D01*
X136735934Y-81734700D01*
X136729875Y-81734103D01*
X136729869Y-81734102D01*
X136536061Y-81715014D01*
X136530000Y-81714417D01*
X136523939Y-81715014D01*
X136330130Y-81734102D01*
X136330122Y-81734103D01*
X136324066Y-81734700D01*
X136318242Y-81736466D01*
X136318235Y-81736468D01*
X136131877Y-81792999D01*
X136131875Y-81792999D01*
X136126046Y-81794768D01*
X136120679Y-81797636D01*
X136120671Y-81797640D01*
X135948920Y-81889444D01*
X135948915Y-81889447D01*
X135943550Y-81892315D01*
X135938846Y-81896174D01*
X135938842Y-81896178D01*
X135788296Y-82019727D01*
X135788290Y-82019732D01*
X135783590Y-82023590D01*
X135779732Y-82028290D01*
X135779727Y-82028296D01*
X135656178Y-82178842D01*
X135656174Y-82178846D01*
X135652315Y-82183550D01*
X135649447Y-82188915D01*
X135649444Y-82188920D01*
X135557640Y-82360671D01*
X135557636Y-82360679D01*
X135554768Y-82366046D01*
X135552999Y-82371875D01*
X135552999Y-82371877D01*
X135496468Y-82558235D01*
X135496466Y-82558242D01*
X135494700Y-82564066D01*
X135494103Y-82570122D01*
X135494102Y-82570130D01*
X135475890Y-82755040D01*
X135474417Y-82770000D01*
X135045583Y-82770000D01*
X135025300Y-82564066D01*
X134965232Y-82366046D01*
X134867685Y-82183550D01*
X134736410Y-82023590D01*
X134576450Y-81892315D01*
X134571079Y-81889444D01*
X134399328Y-81797640D01*
X134399323Y-81797638D01*
X134393954Y-81794768D01*
X134333656Y-81776477D01*
X134201764Y-81736468D01*
X134201759Y-81736467D01*
X134195934Y-81734700D01*
X134189875Y-81734103D01*
X134189869Y-81734102D01*
X133996061Y-81715014D01*
X133990000Y-81714417D01*
X133983939Y-81715014D01*
X133790130Y-81734102D01*
X133790122Y-81734103D01*
X133784066Y-81734700D01*
X133778242Y-81736466D01*
X133778235Y-81736468D01*
X133591877Y-81792999D01*
X133591875Y-81792999D01*
X133586046Y-81794768D01*
X133580679Y-81797636D01*
X133580671Y-81797640D01*
X133408920Y-81889444D01*
X133408915Y-81889447D01*
X133403550Y-81892315D01*
X133398846Y-81896174D01*
X133398842Y-81896178D01*
X133248296Y-82019727D01*
X133248290Y-82019732D01*
X133243590Y-82023590D01*
X133239732Y-82028290D01*
X133239727Y-82028296D01*
X133116178Y-82178842D01*
X133116174Y-82178846D01*
X133112315Y-82183550D01*
X133109447Y-82188915D01*
X133109444Y-82188920D01*
X133017640Y-82360671D01*
X133017636Y-82360679D01*
X133014768Y-82366046D01*
X133012999Y-82371875D01*
X133012999Y-82371877D01*
X132956468Y-82558235D01*
X132956466Y-82558242D01*
X132954700Y-82564066D01*
X132954103Y-82570122D01*
X132954102Y-82570130D01*
X132935890Y-82755040D01*
X132934417Y-82770000D01*
X132505583Y-82770000D01*
X132485300Y-82564066D01*
X132425232Y-82366046D01*
X132327685Y-82183550D01*
X132196410Y-82023590D01*
X132036450Y-81892315D01*
X132031079Y-81889444D01*
X131859328Y-81797640D01*
X131859323Y-81797638D01*
X131853954Y-81794768D01*
X131793656Y-81776477D01*
X131661764Y-81736468D01*
X131661759Y-81736467D01*
X131655934Y-81734700D01*
X131649875Y-81734103D01*
X131649869Y-81734102D01*
X131456061Y-81715014D01*
X131450000Y-81714417D01*
X131443939Y-81715014D01*
X131250130Y-81734102D01*
X131250122Y-81734103D01*
X131244066Y-81734700D01*
X131238242Y-81736466D01*
X131238235Y-81736468D01*
X131051877Y-81792999D01*
X131051875Y-81792999D01*
X131046046Y-81794768D01*
X131040679Y-81797636D01*
X131040671Y-81797640D01*
X130868920Y-81889444D01*
X130868915Y-81889447D01*
X130863550Y-81892315D01*
X130858846Y-81896174D01*
X130858842Y-81896178D01*
X130708296Y-82019727D01*
X130708290Y-82019732D01*
X130703590Y-82023590D01*
X130699732Y-82028290D01*
X130699727Y-82028296D01*
X130576178Y-82178842D01*
X130576174Y-82178846D01*
X130572315Y-82183550D01*
X130569447Y-82188915D01*
X130569444Y-82188920D01*
X130477640Y-82360671D01*
X130477636Y-82360679D01*
X130474768Y-82366046D01*
X130473001Y-82371870D01*
X130472996Y-82371883D01*
X130454593Y-82432551D01*
X130421289Y-82486502D01*
X130365668Y-82516937D01*
X130302274Y-82515899D01*
X130247680Y-82483660D01*
X130216158Y-82428648D01*
X130184832Y-82311738D01*
X130181143Y-82301602D01*
X130085889Y-82097332D01*
X130080491Y-82087982D01*
X129951215Y-81903357D01*
X129944280Y-81895092D01*
X129825665Y-81776477D01*
X129794369Y-81723731D01*
X129792180Y-81662438D01*
X129819633Y-81607593D01*
X129870013Y-81572614D01*
X129993777Y-81526452D01*
X130009189Y-81518037D01*
X130110092Y-81442501D01*
X130122501Y-81430092D01*
X130198037Y-81329189D01*
X130206452Y-81313777D01*
X130250888Y-81194641D01*
X130254426Y-81179667D01*
X130259646Y-81131114D01*
X130260000Y-81124518D01*
X130260000Y-80727187D01*
X130277021Y-80664486D01*
X130323411Y-80618998D01*
X130386434Y-80603211D01*
X130448790Y-80621459D01*
X130493357Y-80668732D01*
X130572315Y-80816450D01*
X130703590Y-80976410D01*
X130863550Y-81107685D01*
X131046046Y-81205232D01*
X131244066Y-81265300D01*
X131450000Y-81285583D01*
X131655934Y-81265300D01*
X131853954Y-81205232D01*
X132036450Y-81107685D01*
X132196410Y-80976410D01*
X132327685Y-80816450D01*
X132425232Y-80633954D01*
X132485300Y-80435934D01*
X132505583Y-80230000D01*
X132934417Y-80230000D01*
X132935014Y-80236061D01*
X132954102Y-80429869D01*
X132954103Y-80429875D01*
X132954700Y-80435934D01*
X132956467Y-80441759D01*
X132956468Y-80441764D01*
X133003666Y-80597356D01*
X133014768Y-80633954D01*
X133017638Y-80639323D01*
X133017640Y-80639328D01*
X133109444Y-80811079D01*
X133112315Y-80816450D01*
X133243590Y-80976410D01*
X133403550Y-81107685D01*
X133586046Y-81205232D01*
X133784066Y-81265300D01*
X133990000Y-81285583D01*
X134195934Y-81265300D01*
X134393954Y-81205232D01*
X134576450Y-81107685D01*
X134736410Y-80976410D01*
X134867685Y-80816450D01*
X134965232Y-80633954D01*
X135025300Y-80435934D01*
X135045583Y-80230000D01*
X135474417Y-80230000D01*
X135475014Y-80236061D01*
X135494102Y-80429869D01*
X135494103Y-80429875D01*
X135494700Y-80435934D01*
X135496467Y-80441759D01*
X135496468Y-80441764D01*
X135543666Y-80597356D01*
X135554768Y-80633954D01*
X135557638Y-80639323D01*
X135557640Y-80639328D01*
X135649444Y-80811079D01*
X135652315Y-80816450D01*
X135783590Y-80976410D01*
X135943550Y-81107685D01*
X136126046Y-81205232D01*
X136324066Y-81265300D01*
X136530000Y-81285583D01*
X136735934Y-81265300D01*
X136933954Y-81205232D01*
X137116450Y-81107685D01*
X137276410Y-80976410D01*
X137407685Y-80816450D01*
X137505232Y-80633954D01*
X137565300Y-80435934D01*
X137585583Y-80230000D01*
X138014417Y-80230000D01*
X138015014Y-80236061D01*
X138034102Y-80429869D01*
X138034103Y-80429875D01*
X138034700Y-80435934D01*
X138036467Y-80441759D01*
X138036468Y-80441764D01*
X138083666Y-80597356D01*
X138094768Y-80633954D01*
X138097638Y-80639323D01*
X138097640Y-80639328D01*
X138189444Y-80811079D01*
X138192315Y-80816450D01*
X138323590Y-80976410D01*
X138483550Y-81107685D01*
X138666046Y-81205232D01*
X138864066Y-81265300D01*
X139070000Y-81285583D01*
X139275934Y-81265300D01*
X139473954Y-81205232D01*
X139656450Y-81107685D01*
X139816410Y-80976410D01*
X139947685Y-80816450D01*
X140045232Y-80633954D01*
X140105300Y-80435934D01*
X140125583Y-80230000D01*
X140554417Y-80230000D01*
X140555014Y-80236061D01*
X140574102Y-80429869D01*
X140574103Y-80429875D01*
X140574700Y-80435934D01*
X140576467Y-80441759D01*
X140576468Y-80441764D01*
X140623666Y-80597356D01*
X140634768Y-80633954D01*
X140637638Y-80639323D01*
X140637640Y-80639328D01*
X140729444Y-80811079D01*
X140732315Y-80816450D01*
X140863590Y-80976410D01*
X141023550Y-81107685D01*
X141206046Y-81205232D01*
X141404066Y-81265300D01*
X141610000Y-81285583D01*
X141815934Y-81265300D01*
X142013954Y-81205232D01*
X142196450Y-81107685D01*
X142356410Y-80976410D01*
X142487685Y-80816450D01*
X142585232Y-80633954D01*
X142645300Y-80435934D01*
X142665583Y-80230000D01*
X142645300Y-80024066D01*
X142585232Y-79826046D01*
X142487685Y-79643550D01*
X142356410Y-79483590D01*
X142196450Y-79352315D01*
X142152616Y-79328885D01*
X142019328Y-79257640D01*
X142019323Y-79257638D01*
X142013954Y-79254768D01*
X141977356Y-79243666D01*
X141821764Y-79196468D01*
X141821759Y-79196467D01*
X141815934Y-79194700D01*
X141809875Y-79194103D01*
X141809869Y-79194102D01*
X141616061Y-79175014D01*
X141610000Y-79174417D01*
X141603939Y-79175014D01*
X141410130Y-79194102D01*
X141410122Y-79194103D01*
X141404066Y-79194700D01*
X141398242Y-79196466D01*
X141398235Y-79196468D01*
X141211877Y-79252999D01*
X141211875Y-79252999D01*
X141206046Y-79254768D01*
X141200679Y-79257636D01*
X141200671Y-79257640D01*
X141028920Y-79349444D01*
X141028915Y-79349447D01*
X141023550Y-79352315D01*
X141018846Y-79356174D01*
X141018842Y-79356178D01*
X140868296Y-79479727D01*
X140868290Y-79479732D01*
X140863590Y-79483590D01*
X140859732Y-79488290D01*
X140859727Y-79488296D01*
X140736178Y-79638842D01*
X140736174Y-79638846D01*
X140732315Y-79643550D01*
X140729447Y-79648915D01*
X140729444Y-79648920D01*
X140637640Y-79820671D01*
X140637636Y-79820679D01*
X140634768Y-79826046D01*
X140632999Y-79831875D01*
X140632999Y-79831877D01*
X140576468Y-80018235D01*
X140576466Y-80018242D01*
X140574700Y-80024066D01*
X140574103Y-80030122D01*
X140574102Y-80030130D01*
X140555890Y-80215040D01*
X140554417Y-80230000D01*
X140125583Y-80230000D01*
X140105300Y-80024066D01*
X140045232Y-79826046D01*
X139947685Y-79643550D01*
X139816410Y-79483590D01*
X139656450Y-79352315D01*
X139612616Y-79328885D01*
X139479328Y-79257640D01*
X139479323Y-79257638D01*
X139473954Y-79254768D01*
X139437356Y-79243666D01*
X139281764Y-79196468D01*
X139281759Y-79196467D01*
X139275934Y-79194700D01*
X139269875Y-79194103D01*
X139269869Y-79194102D01*
X139076061Y-79175014D01*
X139070000Y-79174417D01*
X139063939Y-79175014D01*
X138870130Y-79194102D01*
X138870122Y-79194103D01*
X138864066Y-79194700D01*
X138858242Y-79196466D01*
X138858235Y-79196468D01*
X138671877Y-79252999D01*
X138671875Y-79252999D01*
X138666046Y-79254768D01*
X138660679Y-79257636D01*
X138660671Y-79257640D01*
X138488920Y-79349444D01*
X138488915Y-79349447D01*
X138483550Y-79352315D01*
X138478846Y-79356174D01*
X138478842Y-79356178D01*
X138328296Y-79479727D01*
X138328290Y-79479732D01*
X138323590Y-79483590D01*
X138319732Y-79488290D01*
X138319727Y-79488296D01*
X138196178Y-79638842D01*
X138196174Y-79638846D01*
X138192315Y-79643550D01*
X138189447Y-79648915D01*
X138189444Y-79648920D01*
X138097640Y-79820671D01*
X138097636Y-79820679D01*
X138094768Y-79826046D01*
X138092999Y-79831875D01*
X138092999Y-79831877D01*
X138036468Y-80018235D01*
X138036466Y-80018242D01*
X138034700Y-80024066D01*
X138034103Y-80030122D01*
X138034102Y-80030130D01*
X138015890Y-80215040D01*
X138014417Y-80230000D01*
X137585583Y-80230000D01*
X137565300Y-80024066D01*
X137505232Y-79826046D01*
X137407685Y-79643550D01*
X137276410Y-79483590D01*
X137116450Y-79352315D01*
X137072616Y-79328885D01*
X136939328Y-79257640D01*
X136939323Y-79257638D01*
X136933954Y-79254768D01*
X136897356Y-79243666D01*
X136741764Y-79196468D01*
X136741759Y-79196467D01*
X136735934Y-79194700D01*
X136729875Y-79194103D01*
X136729869Y-79194102D01*
X136536061Y-79175014D01*
X136530000Y-79174417D01*
X136523939Y-79175014D01*
X136330130Y-79194102D01*
X136330122Y-79194103D01*
X136324066Y-79194700D01*
X136318242Y-79196466D01*
X136318235Y-79196468D01*
X136131877Y-79252999D01*
X136131875Y-79252999D01*
X136126046Y-79254768D01*
X136120679Y-79257636D01*
X136120671Y-79257640D01*
X135948920Y-79349444D01*
X135948915Y-79349447D01*
X135943550Y-79352315D01*
X135938846Y-79356174D01*
X135938842Y-79356178D01*
X135788296Y-79479727D01*
X135788290Y-79479732D01*
X135783590Y-79483590D01*
X135779732Y-79488290D01*
X135779727Y-79488296D01*
X135656178Y-79638842D01*
X135656174Y-79638846D01*
X135652315Y-79643550D01*
X135649447Y-79648915D01*
X135649444Y-79648920D01*
X135557640Y-79820671D01*
X135557636Y-79820679D01*
X135554768Y-79826046D01*
X135552999Y-79831875D01*
X135552999Y-79831877D01*
X135496468Y-80018235D01*
X135496466Y-80018242D01*
X135494700Y-80024066D01*
X135494103Y-80030122D01*
X135494102Y-80030130D01*
X135475890Y-80215040D01*
X135474417Y-80230000D01*
X135045583Y-80230000D01*
X135025300Y-80024066D01*
X134965232Y-79826046D01*
X134867685Y-79643550D01*
X134736410Y-79483590D01*
X134576450Y-79352315D01*
X134532616Y-79328885D01*
X134399328Y-79257640D01*
X134399323Y-79257638D01*
X134393954Y-79254768D01*
X134357356Y-79243666D01*
X134201764Y-79196468D01*
X134201759Y-79196467D01*
X134195934Y-79194700D01*
X134189875Y-79194103D01*
X134189869Y-79194102D01*
X133996061Y-79175014D01*
X133990000Y-79174417D01*
X133983939Y-79175014D01*
X133790130Y-79194102D01*
X133790122Y-79194103D01*
X133784066Y-79194700D01*
X133778242Y-79196466D01*
X133778235Y-79196468D01*
X133591877Y-79252999D01*
X133591875Y-79252999D01*
X133586046Y-79254768D01*
X133580679Y-79257636D01*
X133580671Y-79257640D01*
X133408920Y-79349444D01*
X133408915Y-79349447D01*
X133403550Y-79352315D01*
X133398846Y-79356174D01*
X133398842Y-79356178D01*
X133248296Y-79479727D01*
X133248290Y-79479732D01*
X133243590Y-79483590D01*
X133239732Y-79488290D01*
X133239727Y-79488296D01*
X133116178Y-79638842D01*
X133116174Y-79638846D01*
X133112315Y-79643550D01*
X133109447Y-79648915D01*
X133109444Y-79648920D01*
X133017640Y-79820671D01*
X133017636Y-79820679D01*
X133014768Y-79826046D01*
X133012999Y-79831875D01*
X133012999Y-79831877D01*
X132956468Y-80018235D01*
X132956466Y-80018242D01*
X132954700Y-80024066D01*
X132954103Y-80030122D01*
X132954102Y-80030130D01*
X132935890Y-80215040D01*
X132934417Y-80230000D01*
X132505583Y-80230000D01*
X132485300Y-80024066D01*
X132425232Y-79826046D01*
X132327685Y-79643550D01*
X132196410Y-79483590D01*
X132036450Y-79352315D01*
X131992616Y-79328885D01*
X131859328Y-79257640D01*
X131859323Y-79257638D01*
X131853954Y-79254768D01*
X131817356Y-79243666D01*
X131661764Y-79196468D01*
X131661759Y-79196467D01*
X131655934Y-79194700D01*
X131649875Y-79194103D01*
X131649869Y-79194102D01*
X131456061Y-79175014D01*
X131450000Y-79174417D01*
X131443939Y-79175014D01*
X131250130Y-79194102D01*
X131250122Y-79194103D01*
X131244066Y-79194700D01*
X131238242Y-79196466D01*
X131238235Y-79196468D01*
X131051877Y-79252999D01*
X131051875Y-79252999D01*
X131046046Y-79254768D01*
X131040679Y-79257636D01*
X131040671Y-79257640D01*
X130868920Y-79349444D01*
X130868915Y-79349447D01*
X130863550Y-79352315D01*
X130858846Y-79356174D01*
X130858842Y-79356178D01*
X130708296Y-79479727D01*
X130708290Y-79479732D01*
X130703590Y-79483590D01*
X130699732Y-79488290D01*
X130699727Y-79488296D01*
X130576178Y-79638842D01*
X130576174Y-79638846D01*
X130572315Y-79643550D01*
X130569447Y-79648915D01*
X130569444Y-79648920D01*
X130493358Y-79791267D01*
X130448790Y-79838541D01*
X130386434Y-79856789D01*
X130323411Y-79841002D01*
X130277021Y-79795514D01*
X130260000Y-79732813D01*
X130260000Y-79335482D01*
X130259646Y-79328885D01*
X130254426Y-79280332D01*
X130250888Y-79265358D01*
X130206452Y-79146222D01*
X130198037Y-79130810D01*
X130122501Y-79029907D01*
X130110092Y-79017498D01*
X130009189Y-78941962D01*
X129993777Y-78933547D01*
X129874641Y-78889111D01*
X129859667Y-78885573D01*
X129811114Y-78880353D01*
X129804518Y-78880000D01*
X129176326Y-78880000D01*
X129163450Y-78883450D01*
X129160000Y-78896326D01*
X129160000Y-84086369D01*
X128660000Y-84086369D01*
X128660000Y-83036326D01*
X128656549Y-83023450D01*
X128643674Y-83020000D01*
X127593631Y-83020000D01*
X127582688Y-83022551D01*
X126579260Y-83022551D01*
X126579527Y-81124518D01*
X127560000Y-81124518D01*
X127560353Y-81131114D01*
X127565573Y-81179667D01*
X127569111Y-81194641D01*
X127613547Y-81313777D01*
X127621962Y-81329189D01*
X127697498Y-81430092D01*
X127709907Y-81442501D01*
X127810810Y-81518037D01*
X127826222Y-81526452D01*
X127949986Y-81572614D01*
X128000366Y-81607593D01*
X128027819Y-81662437D01*
X128025630Y-81723730D01*
X127994335Y-81776477D01*
X127875714Y-81895098D01*
X127868784Y-81903357D01*
X127739508Y-82087982D01*
X127734110Y-82097332D01*
X127638856Y-82301602D01*
X127635168Y-82311736D01*
X127583056Y-82506219D01*
X127582688Y-82517448D01*
X127593631Y-82520000D01*
X128643674Y-82520000D01*
X128656549Y-82516549D01*
X128660000Y-82503674D01*
X128660000Y-80496326D01*
X128656549Y-80483450D01*
X128643674Y-80480000D01*
X127576326Y-80480000D01*
X127563450Y-80483450D01*
X127560000Y-80496326D01*
X127560000Y-81124518D01*
X126579527Y-81124518D01*
X126579691Y-79963674D01*
X127560000Y-79963674D01*
X127563450Y-79976549D01*
X127576326Y-79980000D01*
X128643674Y-79980000D01*
X128656549Y-79976549D01*
X128660000Y-79963674D01*
X128660000Y-78896326D01*
X128656549Y-78883450D01*
X128643674Y-78880000D01*
X128015482Y-78880000D01*
X128008885Y-78880353D01*
X127960332Y-78885573D01*
X127945358Y-78889111D01*
X127826222Y-78933547D01*
X127810810Y-78941962D01*
X127709907Y-79017498D01*
X127697498Y-79029907D01*
X127621962Y-79130810D01*
X127613547Y-79146222D01*
X127569111Y-79265358D01*
X127565573Y-79280332D01*
X127560353Y-79328885D01*
X127560000Y-79335482D01*
X127560000Y-79963674D01*
X126579691Y-79963674D01*
X126579983Y-77893983D01*
X126596602Y-77831990D01*
X126641988Y-77786610D01*
X126703983Y-77770000D01*
X149026000Y-77770000D01*
X149088000Y-77786613D01*
G37*
G04 #@! TD.AperFunction*
M02*
